<?xml version="1.0" encoding="UTF-8" standalone="no"?>
<!-- Generator: Adobe Illustrator 16.0.0, SVG Export Plug-In . SVG Version: 6.00 Build 0)  -->

<svg
   xmlns:dc="http://purl.org/dc/elements/1.1/"
   xmlns:cc="http://creativecommons.org/ns#"
   xmlns:rdf="http://www.w3.org/1999/02/22-rdf-syntax-ns#"
   xmlns:svg="http://www.w3.org/2000/svg"
   xmlns="http://www.w3.org/2000/svg"
   xmlns:sodipodi="http://sodipodi.sourceforge.net/DTD/sodipodi-0.dtd"
   xmlns:inkscape="http://www.inkscape.org/namespaces/inkscape"
   version="1.1"
   id="Calque_1"
   x="0px"
   y="0px"
   width="1063px"
   height="1067px"
   viewBox="0 0 1063 1067"
   enable-background="new 0 0 1063 1067"
   xml:space="preserve"
   sodipodi:docname="Link.svg"
   inkscape:version="0.92.1 r15371"><metadata
   id="metadata4163"><rdf:RDF><cc:Work
       rdf:about=""><dc:format>image/svg+xml</dc:format><dc:type
         rdf:resource="http://purl.org/dc/dcmitype/StillImage" /></cc:Work></rdf:RDF></metadata><defs
   id="defs4161" /><sodipodi:namedview
   pagecolor="#ffffff"
   bordercolor="#666666"
   borderopacity="1"
   objecttolerance="10"
   gridtolerance="10"
   guidetolerance="10"
   inkscape:pageopacity="0"
   inkscape:pageshadow="2"
   inkscape:window-width="741"
   inkscape:window-height="480"
   id="namedview4159"
   showgrid="false"
   inkscape:zoom="0.22118088"
   inkscape:cx="1297.8411"
   inkscape:cy="533.5"
   inkscape:window-x="0"
   inkscape:window-y="0"
   inkscape:window-maximized="0"
   inkscape:current-layer="g4156" />

<g
   id="g4156">
	<path
   fill="#01CD6B"
   d="M264.807,282.494c0,0,92.271-115.326,275-69c213,54,287,418,337,439s77,20,77,36s-173,113-303,23"
   id="path4074" />
	<g
   id="g4082">
		<g
   id="g4078">
			<path
   fill="#FFE6CC"
   d="M673.048,582.07l76.496-31.498c0,0-26.999,97.494-64.497,118.494     C647.549,690.064,673.048,582.07,673.048,582.07z"
   id="path4076" />
		</g>
		<path
   fill="#FEAE86"
   d="M670.549,655.57c-0.682,0-1.375-0.101-2.061-0.312c-3.695-1.137-5.769-5.054-4.632-8.749    c6.304-20.491,37.136-53.125,40.63-56.778c2.672-2.794,7.103-2.891,9.896-0.22c2.793,2.672,2.893,7.103,0.221,9.896    c-8.861,9.269-32.85,36.539-37.366,51.219C676.312,653.636,673.541,655.57,670.549,655.57z"
   id="path4080" />
	</g>
	<g
   id="g4090">
		<g
   id="g4086">
			<path
   fill="#FFE6CC"
   d="M186.076,582.07l-76.496-31.498c0,0,26.998,97.494,64.496,118.494     C211.574,690.064,186.076,582.07,186.076,582.07z"
   id="path4084" />
		</g>
		<path
   fill="#FEAE86"
   d="M188.575,655.57c-2.992,0-5.762-1.934-6.688-4.943c-4.517-14.68-28.505-41.95-37.367-51.219    c-2.671-2.794-2.572-7.225,0.221-9.896c2.794-2.671,7.224-2.574,9.896,0.22c3.495,3.654,34.325,36.287,40.63,56.778    c1.137,3.695-0.937,7.612-4.632,8.749C189.95,655.47,189.256,655.57,188.575,655.57z"
   id="path4088" />
	</g>
	<path
   fill="#FEAB06"
   d="M668.42,582.07c0,0,17.999,142.494,52.497,196.49c0,0-58.497,1.5-106.494-94.496   C566.425,588.07,668.42,582.07,668.42,582.07z"
   id="path4092" />
	<path
   fill="#FEAB06"
   d="M190.076,582.07c0,0-18,142.494-52.498,196.49c0,0,58.497,1.5,106.495-94.496   C292.07,588.07,190.076,582.07,190.076,582.07z"
   id="path4094" />
	<circle
   fill="#FFE6CC"
   cx="428.807"
   cy="617.494"
   r="246"
   id="circle4096" />
	<path
   fill="#FEAE86"
   d="M422.813,673.495c-2.376,0-4.693-1.21-6.006-3.395c-1.992-3.313-0.92-7.614,2.394-9.606l19.99-12.015   l-19.994-26.8c-2.312-3.099-1.674-7.484,1.424-9.796c3.098-2.313,7.485-1.675,9.796,1.425l24.62,33   c1.183,1.585,1.64,3.597,1.258,5.537s-1.567,3.629-3.262,4.648l-26.62,16C425.284,673.172,424.041,673.495,422.813,673.495z"
   id="path4098" />
	<g
   id="g4104">
		<path
   fill="#45314E"
   d="M432.407,792.609c57.65,0.086,69.182-43.568,68.229-61.182c-0.661-12.205-22.364-12.48-22.364-12.48    l-48.101-0.072l-2.715-0.004l-48.835-0.07c0,0-21.703,0.207-22.399,12.414c-1.007,17.607,10.76,61.18,68.411,61.266"
   id="path4100" />
		<path
   fill="#FD4B4A"
   d="M456.217,764.158c-0.013,7.494-12.017,13.547-26.812,13.525c-14.796-0.02-26.782-6.111-26.772-13.604    c0.011-7.49,12.016-13.545,26.812-13.523C444.24,750.578,456.227,756.67,456.217,764.158z"
   id="path4102" />
	</g>
	<path
   fill="#FFD102"
   d="M526.807,389.494c0,0,50,165,147,194l23-11c0,0,31-267-164-289S526.807,389.494,526.807,389.494z"
   id="path4106" />
	<path
   fill="#FEAB06"
   d="M539.807,396.994l0.551-1.035c13.971-37.121,16.018-79.436,5.76-110.527   c-4.315-0.775-8.433-1.424-12.992-1.938c-0.827-0.094-2.125-0.178-2.125-0.266v0.002c11,27.951,10.315,71.246-3.41,107.75   c0.727,2.279,2.145,7.088,4.566,13.756C533.836,404.232,536.17,402.246,539.807,396.994z"
   id="path4108" />
	<path
   fill="#03AF5C"
   d="M879.798,690.494c0.352,0,0.709-0.025,1.067-0.082c3.821-0.584,6.445-4.156,5.86-7.977   c-1.452-9.49-3.717-19.592-5.908-28.287c-1.322-0.539-2.654-1.084-4.011-1.654c-4.769-2.004-9.755-7.133-15.06-14.807   c2.02,6.711,8.31,28.369,11.14,46.865C873.417,688.016,876.399,690.494,879.798,690.494z"
   id="path4110" />
	<path
   fill="none"
   stroke="#FEAE86"
   stroke-width="14"
   stroke-linecap="round"
   stroke-linejoin="round"
   stroke-miterlimit="10"
   d="   M226.807,651.494"
   id="path4112" />
	<path
   fill="none"
   stroke="#FEAE86"
   stroke-width="14"
   stroke-linecap="round"
   stroke-linejoin="round"
   stroke-miterlimit="10"
   d="   M370.807,651.494"
   id="path4114" />
	<g
   id="g4132">
		<g
   id="g4120">
			<circle
   fill="#FFFFFF"
   cx="294.485"
   cy="595.705"
   r="77.18"
   id="circle4116" />
			<circle
   fill="#45314E"
   cx="294.485"
   cy="595.705"
   r="59.567"
   id="circle4118" />
		</g>
		<g
   id="g4130">
			<ellipse
   fill="#FFE6CC"
   cx="295.456"
   cy="660.75"
   rx="68.927"
   ry="26.211"
   id="ellipse4122" />
			<g
   id="g4128">
				<path
   fill="#FFE6CC"
   d="M364.597,650.07c-15.438-10.562-41.082-17.475-70.111-17.475c-29.03,0-54.673,6.912-70.111,17.475"
   id="path4124" />
				<path
   fill="#FEAE86"
   d="M364.59,657.071c-1.362,0-2.737-0.396-3.946-1.224c-14.874-10.177-39.606-16.252-66.159-16.252      s-51.285,6.075-66.159,16.252c-3.19,2.184-7.547,1.365-9.73-1.825s-1.366-7.547,1.825-9.729      c17.112-11.708,44.8-18.697,74.064-18.697s56.952,6.989,74.064,18.697c3.191,2.183,4.008,6.539,1.825,9.729      C369.018,656.005,366.823,657.071,364.59,657.071z"
   id="path4126" />
			</g>
		</g>
	</g>
	<path
   fill="#FFD102"
   d="M141.078,540.072c0,0,290.985,28.5,370.481-113.994c79.496-142.492-12-235.488-160.492-194.99   s-199.49,202.49-208.489,239.988c0,0,50.997-3,77.996-22.498C220.574,448.578,160.577,531.074,141.078,540.072z"
   id="path4134" />
	<path
   fill="#FEAB06"
   d="M255.005,412.975c2.725-2.742,2.711-7.174-0.031-9.9c-2.743-2.725-7.175-2.709-9.899,0.033   c-29.866,30.057-51.495,56.719-51.71,56.984c-0.45,0.555-0.799,1.16-1.053,1.789c10.226-3.229,20.29-7.545,28.263-13.303   L255.005,412.975z"
   id="path4136" />
	<g
   id="g4154">
		<g
   id="g4142">
			<circle
   fill="#FFFFFF"
   cx="555.128"
   cy="595.705"
   r="77.18"
   id="circle4138" />
			<circle
   fill="#45314E"
   cx="555.127"
   cy="595.705"
   r="59.567"
   id="circle4140" />
		</g>
		<g
   id="g4152">
			<ellipse
   fill="#FFE6CC"
   cx="556.099"
   cy="660.75"
   rx="68.927"
   ry="26.211"
   id="ellipse4144" />
			<g
   id="g4150">
				<path
   fill="#FFE6CC"
   d="M625.239,650.07c-15.438-10.562-41.082-17.475-70.111-17.475c-29.03,0-54.674,6.912-70.111,17.475"
   id="path4146" />
				<path
   fill="#FEAE86"
   d="M485.023,657.071c-2.233,0-4.427-1.066-5.784-3.048c-2.183-3.191-1.366-7.547,1.825-9.73      c17.111-11.708,44.799-18.697,74.064-18.697c29.265,0,56.952,6.989,74.063,18.697c3.191,2.183,4.008,6.539,1.825,9.729      c-2.183,3.191-6.539,4.009-9.729,1.825c-14.875-10.177-39.607-16.252-66.159-16.252c-26.553,0-51.286,6.075-66.159,16.252      C487.761,656.675,486.384,657.071,485.023,657.071z"
   id="path4148" />
			</g>
		</g>
	</g>
</g>
</svg>