<?xml version="1.0" encoding="UTF-8" standalone="no"?>
<!-- Generator: Adobe Illustrator 16.0.0, SVG Export Plug-In . SVG Version: 6.00 Build 0)  -->

<svg
   xmlns:dc="http://purl.org/dc/elements/1.1/"
   xmlns:cc="http://creativecommons.org/ns#"
   xmlns:rdf="http://www.w3.org/1999/02/22-rdf-syntax-ns#"
   xmlns:svg="http://www.w3.org/2000/svg"
   xmlns="http://www.w3.org/2000/svg"
   xmlns:sodipodi="http://sodipodi.sourceforge.net/DTD/sodipodi-0.dtd"
   xmlns:inkscape="http://www.inkscape.org/namespaces/inkscape"
   version="1.1"
   id="Calque_1"
   x="0px"
   y="0px"
   width="1063px"
   height="1067px"
   viewBox="0 0 1063 1067"
   enable-background="new 0 0 1063 1067"
   xml:space="preserve"
   sodipodi:docname="Mojo.svg"
   inkscape:version="0.92.1 r15371"><metadata
   id="metadata53"><rdf:RDF><cc:Work
       rdf:about=""><dc:format>image/svg+xml</dc:format><dc:type
         rdf:resource="http://purl.org/dc/dcmitype/StillImage" /></cc:Work></rdf:RDF></metadata><defs
   id="defs51" /><sodipodi:namedview
   pagecolor="#ffffff"
   bordercolor="#666666"
   borderopacity="1"
   objecttolerance="10"
   gridtolerance="10"
   guidetolerance="10"
   inkscape:pageopacity="0"
   inkscape:pageshadow="2"
   inkscape:window-width="1858"
   inkscape:window-height="1057"
   id="namedview49"
   showgrid="false"
   inkscape:zoom="0.81911903"
   inkscape:cx="531.5"
   inkscape:cy="533.5"
   inkscape:window-x="-8"
   inkscape:window-y="-8"
   inkscape:window-maximized="1"
   inkscape:current-layer="Calque_1" />

<g
   id="g46">
	<path
   fill="#01CD6B"
   d="M247.307,283.994c0,0,92.271-115.326,275-69c213,54,287,418,337,439s77,20,77,36s-173,113-303,23"
   id="path12" />
	<path
   fill="#03AF5C"
   d="M862.299,691.994c0.352,0,0.709-0.025,1.067-0.082c3.821-0.584,6.445-4.156,5.86-7.977   c-1.453-9.49-3.717-19.592-5.908-28.287c-1.322-0.539-2.654-1.084-4.012-1.654c-4.768-2.004-9.754-7.133-15.059-14.807   c2.02,6.711,8.309,28.369,11.14,46.865C855.918,689.516,858.9,691.994,862.299,691.994z"
   id="path14" />
	<circle
   fill="#E7724A"
   cx="412.307"
   cy="616.994"
   r="246"
   id="circle16" />
	<g
   id="g20">
		<path
   fill="#45314E"
   d="M628,516.09V409.008c0-2.217-2.002-4.008-4.85-4.008H205.463c-2.848,0-5.463,1.791-5.463,4.008v100.67    c-21,21.732-34.271,51.488-34.271,84.316c0,66.551,54.027,120.503,120.578,120.503c36.798,0,69.815-16.497,91.919-42.497h66.315    c22.103,26,55.043,42.497,91.843,42.497c66.549,0,120.347-53.95,120.347-120.501C656.731,564.289,646,537.098,628,516.09z"
   id="path18" />
	</g>
	<g
   id="g26">
		<circle
   fill="#FFE6CC"
   cx="412.769"
   cy="744.994"
   r="85.501"
   id="circle22" />
		<circle
   fill="#45314E"
   cx="412.769"
   cy="744.994"
   r="51.471"
   id="circle24" />
	</g>
	<g
   id="g40">
		<g
   id="g32">
			<circle
   fill="#FEAB06"
   cx="286.384"
   cy="593.994"
   r="79.501"
   id="circle28" />
			<circle
   fill="#45314E"
   cx="286.384"
   cy="593.994"
   r="61.358"
   id="circle30" />
		</g>
		<g
   id="g38">
			<circle
   fill="#FEAB06"
   cx="539.154"
   cy="593.994"
   r="79.501"
   id="circle34" />
			<circle
   fill="#45314E"
   cx="539.154"
   cy="593.994"
   r="61.358"
   id="circle36" />
		</g>
	</g>
	<path
   fill="#FFD102"
   d="M315,545c0,0-7.499-55.504,6-114c0,0,68.116,158.703,335.559,158.703c0,0,57.785-237.363-113.252-321.709   c-109.494-53.998-204.733-29.273-204.733-29.273c-148.492,40.498-203.496,194.357-212.495,231.855c0,0,31.004-12.867,53.503-50.365   s-26.998,34.498-32.998,184.492C146.583,604.703,245,483,258,433C258,433,264,498,315,545z"
   id="path42" />
	<path
   fill="#FEAB06"
   d="M514.558,455.745c-2.351-3.069-6.744-3.652-9.813-1.303s-3.653,6.742-1.304,9.812   c2.382,3.113,46.247,59.901,102.142,97.83c-55.907-17.175-94.688-38.464-119.415-55.408c-36.688-25.14-51.21-46.361-51.353-46.572   c-2.147-3.205-6.485-4.069-9.698-1.928c-3.217,2.145-4.086,6.49-1.941,9.707c0.623,0.934,15.688,23.173,54.225,49.754   c33.142,22.86,90.594,53.28,179.17,72.019c0.131-0.548,1.398-5.898,2.962-14.897C586.168,548.417,515.28,456.688,514.558,455.745z"
   id="path44" />
</g>
</svg>