<?xml version="1.0" encoding="UTF-8" standalone="no"?>
<!-- Generator: Adobe Illustrator 16.0.0, SVG Export Plug-In . SVG Version: 6.00 Build 0)  -->

<svg
   xmlns:dc="http://purl.org/dc/elements/1.1/"
   xmlns:cc="http://creativecommons.org/ns#"
   xmlns:rdf="http://www.w3.org/1999/02/22-rdf-syntax-ns#"
   xmlns:svg="http://www.w3.org/2000/svg"
   xmlns="http://www.w3.org/2000/svg"
   xmlns:sodipodi="http://sodipodi.sourceforge.net/DTD/sodipodi-0.dtd"
   xmlns:inkscape="http://www.inkscape.org/namespaces/inkscape"
   version="1.1"
   id="Calque_1"
   x="0px"
   y="0px"
   width="1063px"
   height="1067px"
   viewBox="0 0 1063 1067"
   enable-background="new 0 0 1063 1067"
   xml:space="preserve"
   sodipodi:docname="Zora.svg"
   inkscape:version="0.92.1 r15371"><metadata
   id="metadata124"><rdf:RDF><cc:Work
       rdf:about=""><dc:format>image/svg+xml</dc:format><dc:type
         rdf:resource="http://purl.org/dc/dcmitype/StillImage" /></cc:Work></rdf:RDF></metadata><defs
   id="defs122" /><sodipodi:namedview
   pagecolor="#ffffff"
   bordercolor="#666666"
   borderopacity="1"
   objecttolerance="10"
   gridtolerance="10"
   guidetolerance="10"
   inkscape:pageopacity="0"
   inkscape:pageshadow="2"
   inkscape:window-width="640"
   inkscape:window-height="480"
   id="namedview120"
   showgrid="false"
   inkscape:zoom="0.22118088"
   inkscape:cx="531.5"
   inkscape:cy="533.5"
   inkscape:window-x="0"
   inkscape:window-y="0"
   inkscape:window-maximized="0"
   inkscape:current-layer="Calque_1" />

<g
   id="g117">
	<path
   fill="#1EB8B3"
   d="M215.75,355.052c0,0,133.271-155.326,316-109c213,54,287,408,337,429s77,20,77,36s-173,113-303,23"
   id="path57" />
	<path
   fill="#19918F"
   d="M871.741,713.053c0.353,0,0.709-0.026,1.067-0.082c3.822-0.584,6.445-4.156,5.861-7.978   c-1.453-9.49-3.718-19.592-5.908-28.287c-1.323-0.538-2.655-1.084-4.012-1.654c-4.768-2.003-9.755-7.133-15.06-14.807   c2.02,6.711,8.31,28.369,11.14,46.865C865.36,710.573,868.343,713.053,871.741,713.053z"
   id="path59" />
	<g
   id="g63">
		<path
   fill="#50E2DE"
   d="M727.75,579.552c0-170.38-136.553-308.5-305-308.5s-305,138.12-305,308.5    c0,101.057,48.041,190.735,122.281,247.005C208.798,773.045,189.75,637,189.75,637h463.846c0,0-19.76,141.131-52.029,192.445    C678.016,773.387,727.75,682.364,727.75,579.552z"
   id="path61" />
	</g>
	<circle
   fill="#50E2DE"
   cx="422.75"
   cy="556.052"
   r="246"
   id="circle65" />
	<g
   id="g71">
		<circle
   fill="#FFFFFF"
   cx="545.52"
   cy="588.052"
   r="79.501"
   id="circle67" />
		<circle
   fill="#45314E"
   cx="545.52"
   cy="588.052"
   r="61.358"
   id="circle69" />
	</g>
	<g
   id="g77">
		<circle
   fill="#FFFFFF"
   cx="292.75"
   cy="588.052"
   r="79.501"
   id="circle73" />
		<circle
   fill="#45314E"
   cx="292.75"
   cy="588.052"
   r="61.358"
   id="circle75" />
	</g>
	<g
   id="g83">
		<path
   fill="#50E2DE"
   d="M391.75,655.052c0,0,0.667-134.334-74.999-150.334c-59.865-12.658-99.001,20.334-99.001,20.334"
   id="path79" />
		<path
   fill="#1EB8B3"
   d="M391.751,662c-0.012,0-0.023,0-0.036,0c-3.865,0-6.983-3.141-6.965-7.006l0,0    c0.006-1.287-0.252-128.809-69.447-143.44c-55.872-11.812-92.676,18.536-93.041,18.843c-2.956,2.494-7.372,2.12-9.864-0.836    c-2.492-2.956-2.116-7.371,0.84-9.861c1.704-1.438,42.467-35.05,104.961-21.831c33.707,7.128,58.327,36.952,71.199,86.247    c9.415,36.057,9.359,69.536,9.352,70.945C398.73,658.914,395.6,662,391.751,662z"
   id="path81" />
	</g>
	<g
   id="g91">
		<g
   id="g89">
			<path
   fill="#50E2DE"
   d="M489.75,708.718c0,15.465-14.924,28.142-33.333,28.142S423.083,724,423.083,709h-0.333     c0,15-14.924,27.859-33.333,27.859s-33.333-12.606-33.333-28.07"
   id="path85" />
			<path
   fill="#1EB8B3"
   d="M456.417,743.859c-13.941,0-26.253-6.146-33.5-15.465c-7.247,9.319-19.559,15.465-33.5,15.465     c-22.24,0-40.333-15.732-40.333-35.07c0-3.866,3.134-7,7-7s7,3.134,7,7c0,11.618,11.813,21.07,26.333,21.07     c7.203,0,13.97-2.363,19.056-6.654c4.693-3.96,7.277-9.005,7.277-14.205c0-3.866,3.134-7,7-7h0.333c3.866,0,7,3.134,7,7     c0,5.2,2.584,10.245,7.277,14.205c5.086,4.291,11.854,6.654,19.056,6.654c14.521,0,26.333-9.484,26.333-21.142     c0-3.866,3.134-7,7-7s7,3.134,7,7C496.75,728.095,478.656,743.859,456.417,743.859z"
   id="path87" />
		</g>
	</g>
	<polygon
   fill="#19918F"
   points="466.208,439.946 423.75,499.052 381.292,439.946 422.442,458.859  "
   id="polygon93" />
	<polygon
   fill="#19918F"
   points="466.208,378.542 423.75,437.647 381.292,378.542 422.442,397.455  "
   id="polygon95" />
	<polygon
   fill="#19918F"
   points="466.208,318.297 423.75,377.403 381.292,318.297 422.442,337.21  "
   id="polygon97" />
	<g
   id="g103">
		<circle
   fill="#FFFFFF"
   cx="546.249"
   cy="588.052"
   r="79.501"
   id="circle99" />
		<circle
   fill="#45314E"
   cx="546.249"
   cy="588.052"
   r="61.358"
   id="circle101" />
	</g>
	<g
   id="g109">
		<path
   fill="#50E2DE"
   d="M447.249,655.052c0,0-0.667-134.334,74.999-150.334c59.865-12.658,99.001,20.334,99.001,20.334"
   id="path105" />
		<path
   fill="#1EB8B3"
   d="M447.248,662c-3.85,0-6.98-3.086-6.999-6.939c-0.007-1.408-0.063-34.901,9.352-70.957    c12.872-49.296,37.492-79.113,71.199-86.24c62.491-13.213,103.256,20.396,104.961,21.834c2.956,2.491,3.332,6.908,0.841,9.865    c-2.492,2.957-6.908,3.332-9.864,0.84c-0.354-0.295-37.476-30.588-93.041-18.836c-69.284,14.65-69.454,142.138-69.447,143.424    c0.019,3.866-3.099,7.01-6.965,7.01C447.272,662,447.26,662,447.248,662z"
   id="path107" />
	</g>
	<g
   id="g115">
		<path
   fill="#1EB8B3"
   d="M674.331,496.644c-0.878-3.766-4.643-6.103-8.407-5.228c-3.765,0.878-6.104,4.643-5.227,8.407    c4.237,18.169,6.386,36.914,6.386,55.714c0,28.206-5.083,57.68-14.083,83.515v0.5c0,0-2.377,18.716-7.895,47.68    c23.455-39.445,35.978-84.605,35.978-131.694C681.083,535.668,678.812,515.854,674.331,496.644z"
   id="path111" />
		<path
   fill="#1EB8B3"
   d="M190.25,637.302c-7.75-27.5-11.833-53.559-11.833-81.765c0-18.802,2.148-37.546,6.386-55.714    c0.878-3.765-1.463-7.529-5.228-8.407c-3.765-0.877-7.529,1.462-8.407,5.228c-4.479,19.208-6.751,39.023-6.751,58.894    c0,44.903,11.389,88.053,32.783,126.165c-4.85-26.093-7.45-44.65-7.45-44.65L190.25,637.302z"
   id="path113" />
	</g>
</g>
</svg>