<?xml version="1.0" encoding="UTF-8" standalone="no"?>
<!-- Generator: Adobe Illustrator 16.0.0, SVG Export Plug-In . SVG Version: 6.00 Build 0)  -->

<svg
   xmlns:dc="http://purl.org/dc/elements/1.1/"
   xmlns:cc="http://creativecommons.org/ns#"
   xmlns:rdf="http://www.w3.org/1999/02/22-rdf-syntax-ns#"
   xmlns:svg="http://www.w3.org/2000/svg"
   xmlns="http://www.w3.org/2000/svg"
   xmlns:sodipodi="http://sodipodi.sourceforge.net/DTD/sodipodi-0.dtd"
   xmlns:inkscape="http://www.inkscape.org/namespaces/inkscape"
   version="1.1"
   id="Calque_1"
   x="0px"
   y="0px"
   width="1063px"
   height="1067px"
   viewBox="0 0 1063 1067"
   enable-background="new 0 0 1063 1067"
   xml:space="preserve"
   sodipodi:docname="acoustic.svg"
   inkscape:version="0.92.1 r15371"><metadata
   id="metadata264"><rdf:RDF><cc:Work
       rdf:about=""><dc:format>image/svg+xml</dc:format><dc:type
         rdf:resource="http://purl.org/dc/dcmitype/StillImage" /></cc:Work></rdf:RDF></metadata><defs
   id="defs262" /><sodipodi:namedview
   pagecolor="#ffffff"
   bordercolor="#666666"
   borderopacity="1"
   objecttolerance="10"
   gridtolerance="10"
   guidetolerance="10"
   inkscape:pageopacity="0"
   inkscape:pageshadow="2"
   inkscape:window-width="1858"
   inkscape:window-height="1057"
   id="namedview260"
   showgrid="false"
   inkscape:zoom="0.22118088"
   inkscape:cx="531.5"
   inkscape:cy="533.5"
   inkscape:window-x="-8"
   inkscape:window-y="-8"
   inkscape:window-maximized="1"
   inkscape:current-layer="Calque_1" />

<g
   id="g257"
   transform="rotate(-90,531.79234,533.1605)">
	<path
   d="m 366.044,811.432 c 0,0 -0.752,-0.562 -2.209,-1.654 -0.726,-0.551 -1.625,-1.232 -2.694,-2.045 -0.534,-0.406 -1.11,-0.846 -1.727,-1.316 -0.604,-0.49 -1.25,-1.016 -1.935,-1.57 -1.375,-1.119 -2.91,-2.369 -4.599,-3.744 -1.649,-1.422 -3.448,-2.975 -5.394,-4.65 -1.924,-1.703 -3.945,-3.584 -6.129,-5.58 -1.087,-1.002 -2.162,-2.076 -3.297,-3.164 -1.125,-1.094 -2.302,-2.209 -3.472,-3.387 -1.162,-1.191 -2.355,-2.412 -3.579,-3.664 -0.613,-0.629 -1.232,-1.266 -1.859,-1.912 -0.609,-0.658 -1.227,-1.326 -1.851,-2.002 -1.249,-1.357 -2.527,-2.746 -3.833,-4.166 -1.271,-1.453 -2.57,-2.938 -3.896,-4.451 -1.344,-1.51 -2.63,-3.111 -3.982,-4.721 -0.669,-0.811 -1.345,-1.627 -2.026,-2.455 -0.681,-0.826 -1.335,-1.686 -2.014,-2.541 -1.338,-1.723 -2.749,-3.449 -4.099,-5.266 -1.35,-1.822 -2.721,-3.676 -4.115,-5.559 -10.968,-15.205 -22.062,-33.514 -31.669,-54.895 -1.163,-2.686 -2.378,-5.389 -3.514,-8.158 -0.56,-1.389 -1.121,-2.785 -1.686,-4.189 -0.282,-0.703 -0.566,-1.404 -0.849,-2.111 -0.27,-0.711 -0.539,-1.426 -0.809,-2.141 -1.074,-2.861 -2.189,-5.748 -3.171,-8.707 -0.505,-1.477 -1.013,-2.961 -1.522,-4.451 -0.478,-1.502 -0.958,-3.01 -1.44,-4.525 -3.841,-12.133 -7.017,-24.977 -9.412,-38.395 -0.152,-0.836 -0.305,-1.678 -0.457,-2.52 -0.136,-0.844 -0.271,-1.689 -0.407,-2.537 -0.266,-1.697 -0.534,-3.4 -0.803,-5.107 -0.224,-1.715 -0.448,-3.438 -0.674,-5.164 -0.111,-0.863 -0.223,-1.73 -0.334,-2.598 -0.093,-0.869 -0.186,-1.74 -0.279,-2.613 -0.823,-6.975 -1.275,-14.082 -1.594,-21.287 -0.267,-7.209 -0.312,-14.518 -0.061,-21.904 0.056,-1.846 0.169,-3.695 0.252,-5.551 l 0.139,-2.789 0.199,-2.791 c 0.145,-1.861 0.257,-3.734 0.433,-5.604 0.192,-1.869 0.386,-3.744 0.579,-5.621 0.175,-1.881 0.452,-3.754 0.683,-5.637 0.245,-1.883 0.469,-3.771 0.776,-5.654 0.291,-1.887 0.583,-3.777 0.874,-5.67 0.346,-1.885 0.691,-3.775 1.039,-5.668 0.332,-1.896 0.746,-3.781 1.144,-5.674 0.407,-1.891 0.776,-3.793 1.245,-5.68 0.45,-1.889 0.899,-3.781 1.352,-5.678 0.5,-1.887 1.001,-3.777 1.502,-5.668 0.492,-1.896 1.068,-3.771 1.628,-5.656 0.569,-1.881 1.104,-3.775 1.735,-5.646 0.613,-1.875 1.228,-3.754 1.842,-5.635 0.664,-1.865 1.327,-3.734 1.993,-5.605 0.643,-1.881 1.394,-3.725 2.115,-5.582 0.726,-1.855 1.442,-3.719 2.236,-5.551 0.78,-1.842 1.547,-3.689 2.347,-5.529 0.828,-1.826 1.656,-3.652 2.487,-5.482 l 0.626,-1.371 0.659,-1.359 1.319,-2.717 1.33,-2.715 1.398,-2.686 c 0.948,-1.783 1.859,-3.588 2.842,-5.357 0.99,-1.768 1.981,-3.533 2.974,-5.303 4.071,-7.016 8.422,-13.904 13.087,-20.602 4.7,-6.674 9.672,-13.176 14.913,-19.467 5.281,-6.254 10.826,-12.291 16.586,-18.111 l 4.267,-4.148 c 1.228,-1.223 2.929,-2.764 4.481,-4.197 3.186,-2.992 6.244,-5.557 9.355,-8.248 6.287,-5.246 12.79,-10.217 19.457,-14.926 6.702,-4.66 13.584,-9.023 20.602,-13.094 1.768,-0.992 3.534,-1.986 5.298,-2.979 1.77,-0.984 3.576,-1.896 5.359,-2.842 l 2.686,-1.398 2.715,-1.334 2.715,-1.326 1.358,-0.658 1.371,-0.625 c 1.831,-0.83 3.658,-1.66 5.484,-2.488 1.84,-0.799 3.689,-1.566 5.529,-2.346 1.835,-0.795 3.697,-1.51 5.554,-2.236 1.858,-0.719 3.701,-1.473 5.578,-2.127 1.871,-0.666 3.74,-1.328 5.606,-1.992 1.881,-0.615 3.76,-1.229 5.637,-1.842 1.87,-0.633 3.766,-1.166 5.647,-1.734 1.885,-0.561 3.762,-1.135 5.657,-1.627 15.112,-4.139 30.314,-6.992 45.334,-8.631 15.021,-1.656 29.852,-2.111 44.268,-1.549 7.206,0.326 14.317,0.764 21.294,1.592 0.872,0.092 1.744,0.186 2.613,0.279 0.867,0.111 1.733,0.223 2.598,0.334 1.728,0.227 3.449,0.451 5.166,0.676 1.708,0.268 3.412,0.533 5.109,0.799 0.848,0.135 1.693,0.271 2.539,0.406 0.841,0.152 1.682,0.305 2.52,0.459 13.42,2.398 26.267,5.574 38.402,9.414 12.143,3.816 23.597,8.211 34.289,12.998 21.385,9.611 39.693,20.715 54.897,31.689 1.882,1.396 3.735,2.77 5.557,4.119 0.914,0.666 1.794,1.367 2.668,2.057 0.874,0.688 1.741,1.369 2.6,2.045 0.854,0.68 1.713,1.334 2.541,2.016 0.825,0.682 1.645,1.357 2.454,2.025 1.609,1.354 3.21,2.643 4.717,3.986 1.516,1.326 3.001,2.627 4.453,3.898 1.419,1.309 2.807,2.586 4.164,3.836 0.675,0.625 1.343,1.242 2.001,1.854 0.646,0.627 1.282,1.246 1.911,1.859 1.251,1.225 2.473,2.418 3.661,3.582 1.18,1.172 2.294,2.348 3.388,3.475 1.087,1.137 2.16,2.211 3.162,3.301 1.995,2.182 3.873,4.207 5.577,6.131 1.676,1.947 3.226,3.748 4.646,5.398 1.371,1.688 2.617,3.221 3.732,4.594 0.556,0.686 1.078,1.33 1.568,1.934 0.472,0.621 0.913,1.199 1.322,1.736 0.812,1.072 1.496,1.975 2.047,2.699 1.09,1.459 1.652,2.211 1.652,2.211 0,0 -3.051,-2.178 -8.77,-6.264 -1.434,-1.002 -3.034,-2.119 -4.796,-3.35 -1.776,-1.197 -3.715,-2.504 -5.81,-3.918 -2.094,-1.406 -4.388,-2.854 -6.792,-4.434 -2.427,-1.553 -5.038,-3.15 -7.767,-4.855 -1.383,-0.826 -2.802,-1.674 -4.258,-2.545 -0.726,-0.432 -1.46,-0.871 -2.204,-1.316 -0.752,-0.43 -1.513,-0.865 -2.283,-1.307 -1.537,-0.879 -3.11,-1.775 -4.719,-2.693 -1.621,-0.889 -3.277,-1.795 -4.969,-2.721 -1.674,-0.943 -3.438,-1.818 -5.207,-2.746 -0.884,-0.465 -1.775,-0.932 -2.675,-1.406 -0.901,-0.471 -1.829,-0.912 -2.754,-1.377 -1.86,-0.908 -3.724,-1.877 -5.664,-2.779 -1.93,-0.914 -3.893,-1.84 -5.887,-2.783 -16.027,-7.348 -34.493,-14.453 -55.011,-20.113 -10.263,-2.811 -21.034,-5.246 -32.223,-7.191 -1.397,-0.248 -2.8,-0.498 -4.217,-0.697 -1.412,-0.221 -2.829,-0.441 -4.252,-0.664 -1.42,-0.234 -2.858,-0.393 -4.293,-0.594 -1.438,-0.182 -2.873,-0.404 -4.325,-0.557 -2.903,-0.303 -5.813,-0.672 -8.759,-0.914 -1.47,-0.131 -2.943,-0.266 -4.424,-0.4 -1.48,-0.1 -2.967,-0.199 -4.459,-0.301 -11.921,-0.809 -24.159,-0.832 -36.56,-0.227 -3.1,0.207 -6.211,0.365 -9.327,0.676 -3.122,0.221 -6.243,0.586 -9.378,0.916 -1.565,0.176 -3.13,0.406 -4.698,0.604 l -2.354,0.309 -2.352,0.367 c -1.566,0.242 -3.137,0.486 -4.711,0.729 -1.566,0.277 -3.137,0.553 -4.71,0.83 -12.555,2.334 -25.116,5.488 -37.461,9.629 -1.555,0.48 -3.084,1.043 -4.623,1.584 -1.535,0.551 -3.084,1.062 -4.603,1.668 -1.524,0.582 -3.051,1.166 -4.581,1.75 -1.511,0.623 -3.024,1.25 -4.54,1.877 -1.525,0.596 -3.017,1.281 -4.523,1.932 -1.503,0.656 -3.015,1.299 -4.495,2.016 -1.485,0.699 -2.974,1.398 -4.464,2.1 -1.47,0.738 -2.941,1.477 -4.415,2.215 -23.493,11.955 -45.334,27.703 -64.199,46.6 -4.7,4.738 -9.226,9.639 -13.581,14.68 -4.299,5.086 -8.421,10.311 -12.344,15.67 -0.96,1.355 -1.92,2.709 -2.878,4.062 l -0.72,1.016 -0.689,1.035 -1.384,2.068 -1.388,2.061 c -0.454,0.693 -0.889,1.398 -1.334,2.098 -0.878,1.404 -1.793,2.785 -2.643,4.205 -3.469,5.639 -6.646,11.438 -9.684,17.285 -11.973,23.496 -20.164,48.594 -24.794,73.717 -0.277,1.572 -0.554,3.145 -0.828,4.711 -0.247,1.574 -0.494,3.145 -0.739,4.713 l -0.366,2.35 -0.307,2.355 c -0.198,1.568 -0.428,3.133 -0.603,4.699 -0.333,3.135 -0.685,6.258 -0.923,9.379 -0.31,3.117 -0.468,6.23 -0.673,9.33 -0.603,12.404 -0.583,24.646 0.224,36.57 0.102,1.492 0.203,2.979 0.304,4.461 0.134,1.479 0.268,2.955 0.401,4.424 0.242,2.945 0.601,5.857 0.909,8.762 0.155,1.453 0.378,2.889 0.561,4.326 0.201,1.436 0.36,2.875 0.596,4.293 0.471,2.838 0.83,5.684 1.359,8.473 0.245,1.398 0.49,2.793 0.732,4.182 0.275,1.383 0.549,2.76 0.82,4.131 0.528,2.748 1.132,5.457 1.721,8.15 0.147,0.672 0.296,1.344 0.442,2.014 0.162,0.666 0.324,1.33 0.485,1.994 0.321,1.328 0.643,2.648 0.962,3.965 0.686,2.623 1.364,5.223 2.035,7.793 5.667,20.521 12.779,38.988 20.134,55.012 1.881,3.984 3.702,7.861 5.57,11.551 0.465,0.924 0.908,1.854 1.38,2.754 0.473,0.898 0.941,1.791 1.404,2.676 0.93,1.766 1.806,3.531 2.751,5.205 0.926,1.689 1.833,3.346 2.722,4.967 0.919,1.609 1.818,3.182 2.697,4.719 0.44,0.77 0.878,1.529 1.309,2.281 0.445,0.744 0.885,1.479 1.318,2.205 0.87,1.455 1.72,2.873 2.546,4.254 1.707,2.729 3.307,5.338 4.861,7.764 1.58,2.404 3.032,4.695 4.438,6.789 1.414,2.094 2.723,4.031 3.923,5.809 1.228,1.756 2.344,3.352 3.343,4.781 0.503,0.717 0.978,1.393 1.42,2.027 0.456,0.627 0.881,1.215 1.275,1.758 0.787,1.088 1.448,2.002 1.981,2.74 1.073,1.475 1.618,2.239 1.618,2.239 z"
   id="path207"
   inkscape:connector-curvature="0"
   style="fill:#1eb8b3" />
	<path
   d="m 462.19,851.104 c 0,0 -0.662,-0.473 -1.946,-1.385 -0.638,-0.461 -1.43,-1.033 -2.371,-1.713 -0.469,-0.342 -0.977,-0.709 -1.52,-1.105 -0.531,-0.412 -1.1,-0.854 -1.702,-1.32 -1.21,-0.943 -2.562,-1.996 -4.049,-3.156 -1.452,-1.199 -3.036,-2.51 -4.749,-3.924 -1.693,-1.441 -3.475,-3.033 -5.397,-4.725 -0.957,-0.85 -1.905,-1.762 -2.904,-2.684 -0.991,-0.93 -2.028,-1.877 -3.06,-2.879 -1.025,-1.012 -2.077,-2.051 -3.156,-3.115 -0.539,-0.535 -1.086,-1.078 -1.64,-1.627 -0.538,-0.561 -1.081,-1.131 -1.632,-1.707 -1.101,-1.156 -2.229,-2.34 -3.38,-3.551 -1.122,-1.24 -2.269,-2.506 -3.439,-3.801 -1.185,-1.287 -2.321,-2.656 -3.516,-4.031 -1.189,-1.379 -2.388,-2.799 -3.568,-4.275 -1.181,-1.475 -2.428,-2.955 -3.623,-4.51 -1.191,-1.564 -2.403,-3.152 -3.636,-4.768 -9.7,-13.045 -19.536,-28.809 -28.085,-47.291 -1.036,-2.32 -2.118,-4.658 -3.13,-7.055 -0.499,-1.203 -1,-2.41 -1.503,-3.625 -0.251,-0.607 -0.504,-1.217 -0.756,-1.828 -0.24,-0.615 -0.48,-1.232 -0.723,-1.852 -0.958,-2.479 -1.955,-4.977 -2.831,-7.543 -0.452,-1.279 -0.905,-2.566 -1.36,-3.857 -0.429,-1.301 -0.858,-2.609 -1.291,-3.922 -3.438,-10.518 -6.3,-21.67 -8.475,-33.334 -0.139,-0.729 -0.277,-1.459 -0.416,-2.189 -0.123,-0.734 -0.247,-1.471 -0.37,-2.207 -0.243,-1.477 -0.489,-2.957 -0.733,-4.443 -0.206,-1.492 -0.413,-2.99 -0.62,-4.492 -0.103,-0.752 -0.203,-1.506 -0.307,-2.26 -0.086,-0.758 -0.172,-1.516 -0.259,-2.273 -0.762,-6.072 -1.198,-12.262 -1.512,-18.539 -0.571,-12.559 -0.246,-25.49 1.126,-38.6 0.145,-1.641 0.377,-3.277 0.571,-4.922 0.207,-1.645 0.395,-3.293 0.655,-4.938 0.246,-1.646 0.492,-3.297 0.739,-4.951 0.295,-1.646 0.59,-3.299 0.886,-4.951 0.283,-1.656 0.639,-3.303 0.979,-4.957 0.35,-1.652 0.665,-3.314 1.067,-4.963 0.387,-1.652 0.773,-3.307 1.161,-4.965 0.43,-1.648 0.86,-3.299 1.292,-4.955 0.426,-1.656 0.923,-3.297 1.406,-4.943 0.491,-1.645 0.954,-3.303 1.499,-4.938 0.531,-1.641 1.062,-3.283 1.595,-4.928 0.574,-1.633 1.149,-3.268 1.725,-4.904 0.557,-1.645 1.208,-3.258 1.835,-4.881 0.631,-1.625 1.252,-3.254 1.942,-4.859 0.678,-1.609 1.344,-3.227 2.039,-4.836 0.72,-1.598 1.44,-3.197 2.161,-4.799 0.707,-1.607 1.511,-3.174 2.266,-4.766 l 1.157,-2.377 1.219,-2.352 c 0.824,-1.559 1.618,-3.141 2.475,-4.688 0.863,-1.547 1.726,-3.092 2.591,-4.641 3.55,-6.141 7.344,-12.172 11.418,-18.033 4.104,-5.84 8.445,-11.531 13.027,-17.035 4.615,-5.473 9.463,-10.754 14.499,-15.844 l 3.714,-3.611 c 1.045,-1.041 2.555,-2.41 3.92,-3.668 2.811,-2.643 5.477,-4.873 8.201,-7.227 5.499,-4.586 11.192,-8.928 17.026,-13.039 5.865,-4.07 11.889,-7.879 18.031,-11.426 1.547,-0.867 3.093,-1.73 4.638,-2.598 1.549,-0.855 3.13,-1.65 4.691,-2.475 l 2.35,-1.219 2.376,-1.162 2.375,-1.152 c 0.791,-0.389 1.586,-0.762 2.39,-1.117 25.515,-11.857 52.495,-18.844 78.7,-21.576 13.111,-1.381 26.048,-1.709 38.609,-1.137 6.278,0.322 12.472,0.744 18.544,1.51 0.759,0.086 1.517,0.174 2.273,0.26 0.755,0.102 1.509,0.205 2.261,0.309 1.503,0.207 3.001,0.414 4.493,0.621 1.487,0.242 2.969,0.484 4.444,0.727 0.737,0.125 1.473,0.248 2.208,0.371 0.731,0.141 1.461,0.279 2.191,0.418 11.666,2.178 22.819,5.039 33.343,8.479 10.528,3.416 20.444,7.34 29.688,11.6 18.484,8.555 34.25,18.398 47.293,28.107 1.614,1.234 3.202,2.447 4.765,3.641 1.56,1.191 3.036,2.441 4.512,3.625 0.732,0.6 1.466,1.18 2.175,1.779 0.706,0.604 1.406,1.199 2.1,1.791 1.375,1.195 2.743,2.334 4.03,3.52 1.293,1.172 2.561,2.318 3.802,3.441 1.208,1.152 2.393,2.281 3.548,3.383 0.575,0.553 1.145,1.098 1.706,1.635 0.548,0.553 1.091,1.1 1.626,1.641 1.064,1.08 2.103,2.133 3.113,3.158 1.002,1.033 1.949,2.068 2.877,3.062 0.922,1 1.833,1.949 2.683,2.906 1.69,1.924 3.28,3.709 4.721,5.402 1.415,1.715 2.724,3.299 3.924,4.752 1.153,1.486 2.202,2.836 3.142,4.047 0.467,0.602 0.906,1.17 1.318,1.701 0.396,0.547 0.768,1.055 1.109,1.527 0.682,0.943 1.255,1.738 1.717,2.377 0.911,1.283 1.382,1.947 1.382,1.947 0,0 -2.681,-1.822 -7.706,-5.238 -1.257,-0.836 -2.661,-1.77 -4.206,-2.799 -1.555,-1 -3.253,-2.094 -5.087,-3.273 -1.83,-1.176 -3.836,-2.383 -5.936,-3.703 -2.119,-1.297 -4.398,-2.627 -6.776,-4.051 -4.82,-2.768 -10.14,-5.785 -16.037,-8.811 -1.455,-0.785 -2.985,-1.51 -4.521,-2.281 -0.767,-0.385 -1.54,-0.773 -2.321,-1.166 -0.779,-0.393 -1.585,-0.758 -2.387,-1.143 -3.201,-1.547 -6.556,-3.057 -10.003,-4.611 -13.865,-6.078 -29.787,-11.924 -47.407,-16.527 -17.623,-4.553 -36.937,-7.914 -57.29,-8.986 -10.169,-0.584 -20.59,-0.5 -31.136,0.105 -2.635,0.197 -5.281,0.357 -7.93,0.643 -2.652,0.209 -5.304,0.541 -7.966,0.842 -1.329,0.16 -2.656,0.365 -3.989,0.545 l -1.997,0.275 -1.995,0.328 c -1.33,0.217 -2.663,0.434 -3.998,0.648 -1.328,0.244 -2.66,0.488 -3.995,0.732 -10.648,2.061 -21.288,4.799 -31.733,8.365 -1.315,0.416 -2.61,0.896 -3.912,1.363 -1.297,0.471 -2.609,0.912 -3.893,1.432 -1.29,0.5 -2.581,1 -3.874,1.502 -1.277,0.535 -2.557,1.072 -3.839,1.609 -5.108,2.168 -10.182,4.469 -15.127,7.055 -19.849,10.191 -38.287,23.533 -54.246,39.516 -3.977,4.01 -7.806,8.154 -11.494,12.412 -3.639,4.299 -7.132,8.711 -10.458,13.238 l -2.441,3.434 c -0.832,1.131 -1.572,2.324 -2.368,3.477 l -1.181,1.742 -1.132,1.771 c -0.745,1.188 -1.522,2.354 -2.244,3.553 -2.949,4.762 -5.649,9.66 -8.242,14.6 -10.203,19.854 -17.265,41.082 -21.351,62.391 -1.021,5.326 -1.841,10.662 -2.535,15.979 -0.303,2.662 -0.621,5.316 -0.848,7.969 -0.286,2.648 -0.443,5.295 -0.641,7.932 -0.089,1.318 -0.131,2.637 -0.201,3.951 -0.068,1.314 -0.132,2.625 -0.15,3.936 -0.04,1.311 -0.081,2.619 -0.122,3.922 -0.009,1.307 -0.019,2.607 -0.028,3.906 l -0.014,1.945 0.032,1.941 c 0.022,1.295 0.044,2.584 0.064,3.871 0.046,1.285 0.093,2.566 0.138,3.848 l 0.064,1.916 0.11,1.91 c 1.072,20.359 4.436,39.678 8.994,57.305 4.61,17.623 10.463,33.547 16.55,47.41 1.559,3.445 3.067,6.801 4.617,10.002 0.385,0.801 0.753,1.605 1.146,2.385 0.393,0.781 0.781,1.555 1.166,2.322 0.772,1.533 1.499,3.064 2.285,4.52 0.771,1.469 1.525,2.906 2.265,4.316 0.765,1.398 1.514,2.766 2.245,4.102 0.367,0.67 0.73,1.332 1.09,1.986 0.371,0.646 0.736,1.287 1.098,1.92 0.727,1.268 1.434,2.504 2.123,3.707 1.424,2.377 2.758,4.656 4.058,6.771 1.318,2.102 2.53,4.104 3.707,5.934 1.181,1.834 2.274,3.529 3.276,5.084 1.027,1.541 1.96,2.939 2.795,4.193 3.426,5.028 5.254,7.71 5.254,7.71 z"
   id="path209"
   inkscape:connector-curvature="0"
   style="fill:#1eb8b3" />
	<path
   d="m 557.592,874.631 c 0,0 -0.538,-0.365 -1.582,-1.07 -0.519,-0.355 -1.162,-0.797 -1.927,-1.322 -0.382,-0.266 -0.793,-0.549 -1.234,-0.855 -0.432,-0.32 -0.894,-0.662 -1.384,-1.025 -3.982,-2.877 -9.636,-7.291 -16.398,-13.555 -0.834,-0.795 -1.691,-1.609 -2.569,-2.445 -0.439,-0.42 -0.884,-0.846 -1.335,-1.275 -0.438,-0.443 -0.881,-0.891 -1.329,-1.344 -0.897,-0.91 -1.815,-1.842 -2.754,-2.795 -0.915,-0.977 -1.849,-1.975 -2.803,-2.994 -0.965,-1.014 -1.893,-2.094 -2.867,-3.18 -0.97,-1.09 -1.947,-2.209 -2.909,-3.377 -0.965,-1.166 -1.982,-2.336 -2.958,-3.566 -0.973,-1.238 -1.963,-2.494 -2.968,-3.773 -7.925,-10.332 -15.976,-22.865 -23.001,-37.619 -6.979,-14.748 -12.967,-31.717 -16.595,-50.461 -0.117,-0.584 -0.232,-1.172 -0.349,-1.758 l -0.312,-1.771 c -0.205,-1.186 -0.41,-2.377 -0.618,-3.57 -0.173,-1.199 -0.348,-2.402 -0.522,-3.607 l -0.259,-1.818 -0.224,-1.826 c -0.648,-4.881 -1.033,-9.859 -1.316,-14.91 -0.525,-10.107 -0.321,-20.523 0.731,-31.092 0.111,-1.324 0.292,-2.643 0.442,-3.969 0.159,-1.326 0.305,-2.656 0.51,-3.982 0.19,-1.328 0.383,-2.66 0.576,-3.994 0.231,-1.328 0.463,-2.66 0.696,-3.994 0.997,-5.326 2.124,-10.688 3.565,-16.014 0.339,-1.338 0.736,-2.662 1.122,-3.994 0.391,-1.328 0.76,-2.664 1.196,-3.986 0.424,-1.324 0.848,-2.65 1.272,-3.979 0.46,-1.32 0.92,-2.641 1.38,-3.965 0.445,-1.328 0.966,-2.631 1.469,-3.943 0.506,-1.311 1.005,-2.629 1.559,-3.924 0.545,-1.301 1.09,-2.605 1.636,-3.908 0.578,-1.293 1.157,-2.586 1.735,-3.879 4.745,-10.305 10.431,-20.324 17.019,-29.785 3.319,-4.713 6.791,-9.338 10.505,-13.773 1.891,-2.186 3.756,-4.396 5.729,-6.51 0.979,-1.066 1.942,-2.145 2.957,-3.174 l 3.262,-3.361 c 3.258,-3.242 8.33,-7.914 12.552,-11.465 4.433,-3.717 9.046,-7.203 13.765,-10.516 9.458,-6.598 19.479,-12.279 29.778,-17.041 20.621,-9.529 42.414,-15.082 63.541,-17.182 10.571,-1.061 20.993,-1.268 31.101,-0.74 5.053,0.293 10.034,0.664 14.914,1.316 l 1.829,0.223 1.816,0.26 c 1.208,0.176 2.41,0.35 3.611,0.525 1.193,0.205 2.384,0.408 3.569,0.611 l 1.772,0.314 c 0.588,0.115 1.175,0.232 1.76,0.35 18.749,3.627 35.722,9.619 50.474,16.604 14.757,7.031 27.29,15.09 37.622,23.02 1.278,1.006 2.535,1.998 3.772,2.973 1.232,0.973 2.4,1.992 3.565,2.959 1.167,0.963 2.287,1.943 3.377,2.91 1.085,0.977 2.164,1.904 3.179,2.871 1.02,0.955 2.018,1.891 2.995,2.805 0.951,0.941 1.882,1.859 2.791,2.758 0.453,0.449 0.9,0.893 1.342,1.33 0.431,0.451 0.856,0.896 1.277,1.336 0.835,0.881 1.649,1.736 2.443,2.572 6.256,6.766 10.679,12.436 13.536,16.406 0.361,0.49 0.703,0.951 1.022,1.383 0.308,0.445 0.593,0.859 0.858,1.242 0.526,0.768 0.97,1.414 1.326,1.934 0.703,1.045 1.066,1.582 1.066,1.582 0,0 -2.177,-1.402 -6.255,-4.035 -1.019,-0.645 -2.156,-1.363 -3.406,-2.156 -1.259,-0.77 -2.632,-1.611 -4.115,-2.521 -1.478,-0.904 -3.097,-1.832 -4.791,-2.848 -1.708,-1 -3.546,-2.021 -5.46,-3.115 -3.881,-2.125 -8.157,-4.441 -12.887,-6.756 -1.167,-0.604 -2.394,-1.156 -3.625,-1.746 -1.229,-0.592 -2.476,-1.195 -3.77,-1.766 -2.563,-1.182 -5.246,-2.334 -8,-3.518 -11.077,-4.631 -23.755,-9.055 -37.724,-12.494 -13.974,-3.396 -29.233,-5.85 -45.257,-6.518 -16.008,-0.688 -32.771,0.338 -49.446,3.686 -16.674,3.311 -33.227,8.943 -48.703,16.951 -3.85,2.039 -7.681,4.135 -11.387,6.453 -0.934,0.566 -1.841,1.178 -2.764,1.766 l -1.378,0.889 -1.359,0.92 c -1.833,1.195 -3.605,2.482 -5.394,3.75 -3.53,2.6 -6.954,5.348 -10.321,8.17 -3.521,3.055 -5.947,5.285 -9.927,9.215 0.443,-0.436 0.039,-0.035 0.102,-0.096 l -0.145,0.148 -0.288,0.295 -0.578,0.59 -1.157,1.18 c -0.784,0.775 -1.517,1.596 -2.268,2.398 -1.52,1.594 -2.939,3.273 -4.398,4.918 -2.826,3.365 -5.589,6.777 -8.181,10.314 l -1.904,2.678 c -0.65,0.883 -1.225,1.816 -1.85,2.715 l -0.928,1.354 -0.89,1.379 c -0.586,0.924 -1.197,1.83 -1.766,2.766 -2.315,3.709 -4.414,7.537 -6.462,11.385 -8.025,15.475 -13.646,32.037 -16.975,48.713 -3.354,16.68 -4.384,33.449 -3.697,49.465 0.669,16.027 3.125,31.293 6.528,45.27 3.444,13.971 7.876,26.648 12.514,37.727 1.188,2.752 2.339,5.436 3.523,7.998 0.57,1.295 1.178,2.541 1.768,3.77 0.591,1.23 1.145,2.457 1.748,3.623 2.318,4.73 4.639,9.004 6.767,12.881 1.096,1.914 2.119,3.752 3.119,5.459 1.017,1.693 1.947,3.311 2.854,4.787 0.91,1.484 1.753,2.855 2.524,4.111 0.791,1.248 1.509,2.381 2.152,3.395 2.648,4.074 4.056,6.252 4.056,6.252 z"
   id="path211"
   inkscape:connector-curvature="0"
   style="fill:#1eb8b3" />
	<path
   d="m 653.242,903.537 c 0,0 -1.697,-1.061 -4.786,-3.139 -0.771,-0.521 -1.632,-1.104 -2.579,-1.744 -0.921,-0.689 -1.911,-1.465 -2.999,-2.301 -1.089,-0.844 -2.26,-1.752 -3.509,-2.721 -1.211,-1.006 -2.454,-2.104 -3.787,-3.27 -0.663,-0.586 -1.346,-1.189 -2.044,-1.807 -0.35,-0.311 -0.703,-0.625 -1.062,-0.945 -0.34,-0.334 -0.685,-0.67 -1.032,-1.014 -1.396,-1.369 -2.867,-2.809 -4.383,-4.336 -1.514,-1.529 -2.972,-3.217 -4.539,-4.947 -0.389,-0.434 -0.781,-0.873 -1.177,-1.316 -0.398,-0.443 -0.803,-0.889 -1.176,-1.361 -0.759,-0.939 -1.528,-1.898 -2.312,-2.871 -6.269,-7.809 -12.652,-17.34 -18.236,-28.631 -0.689,-1.414 -1.432,-2.83 -2.091,-4.299 -0.638,-1.479 -1.283,-2.973 -1.935,-4.482 -1.374,-3.006 -2.435,-6.189 -3.64,-9.406 -0.298,-0.807 -0.598,-1.617 -0.846,-2.445 -0.259,-0.828 -0.517,-1.656 -0.777,-2.492 -0.506,-1.672 -1.053,-3.354 -1.531,-5.07 -0.442,-1.723 -0.903,-3.461 -1.335,-5.223 -0.215,-0.881 -0.443,-1.764 -0.649,-2.654 -0.18,-0.896 -0.36,-1.797 -0.543,-2.699 -0.357,-1.812 -0.716,-3.639 -1.078,-5.475 -0.268,-1.857 -0.537,-3.725 -0.807,-5.605 -0.132,-0.945 -0.263,-1.891 -0.396,-2.84 -0.092,-0.955 -0.184,-1.912 -0.276,-2.873 -0.161,-1.924 -0.352,-3.861 -0.483,-5.816 -0.137,-3.91 -0.398,-7.885 -0.24,-11.904 0.02,-1.006 0.037,-2.014 0.056,-3.025 l 0.03,-1.52 0.096,-1.521 c 0.125,-2.033 0.282,-4.074 0.439,-6.127 0.823,-8.191 2.177,-16.527 4.347,-24.824 2.24,-8.27 5.062,-16.547 8.73,-24.576 0.898,-2.014 1.918,-3.98 2.906,-5.965 0.508,-0.986 0.978,-1.992 1.521,-2.961 0.551,-0.967 1.1,-1.934 1.651,-2.9 l 1.661,-2.904 c 0.281,-0.482 0.551,-0.971 0.842,-1.447 l 0.905,-1.412 c 1.229,-1.869 2.458,-3.74 3.688,-5.615 1.307,-1.82 2.651,-3.619 3.984,-5.428 1.3,-1.838 2.769,-3.541 4.213,-5.264 1.456,-1.715 2.864,-3.475 4.437,-5.086 l 2.309,-2.461 1.157,-1.229 0.578,-0.611 0.29,-0.307 0.145,-0.154 c 0.248,-0.244 -0.349,0.33 0.591,-0.586 2.916,-2.713 5.277,-5.107 9.317,-8.432 1.836,-1.539 3.703,-3.172 5.49,-4.424 1.809,-1.334 3.608,-2.678 5.429,-3.984 1.875,-1.232 3.746,-2.463 5.616,-3.691 l 1.405,-0.912 c 0.477,-0.293 0.966,-0.562 1.449,-0.842 l 2.903,-1.662 c 0.968,-0.551 1.936,-1.102 2.901,-1.65 0.97,-0.545 1.977,-1.014 2.962,-1.521 1.988,-0.984 3.944,-2.023 5.961,-2.916 2.026,-0.867 4.049,-1.732 6.067,-2.596 1.001,-0.447 2.033,-0.812 3.059,-1.191 1.025,-0.375 2.049,-0.75 3.072,-1.125 1.025,-0.365 2.05,-0.73 3.072,-1.094 1.038,-0.312 2.074,-0.627 3.108,-0.939 1.035,-0.309 2.068,-0.619 3.1,-0.928 1.032,-0.305 2.057,-0.629 3.103,-0.865 2.078,-0.521 4.159,-1.002 6.227,-1.488 1.029,-0.264 2.079,-0.424 3.116,-0.625 1.039,-0.191 2.076,-0.381 3.111,-0.572 1.034,-0.186 2.066,-0.373 3.098,-0.561 1.037,-0.133 2.072,-0.264 3.106,-0.395 1.033,-0.129 2.063,-0.256 3.092,-0.383 1.029,-0.117 2.05,-0.279 3.08,-0.336 2.054,-0.154 4.096,-0.318 6.127,-0.447 l 1.521,-0.094 1.521,-0.029 c 1.012,-0.02 2.021,-0.037 3.027,-0.055 4.021,-0.156 7.995,0.092 11.908,0.236 1.955,0.133 3.894,0.322 5.818,0.486 0.96,0.09 1.918,0.18 2.873,0.27 0.95,0.133 1.896,0.266 2.842,0.398 1.881,0.271 3.75,0.539 5.606,0.809 1.845,0.34 3.669,0.717 5.478,1.076 0.903,0.182 1.803,0.363 2.7,0.543 0.891,0.207 1.774,0.436 2.654,0.65 1.763,0.434 3.503,0.887 5.227,1.334 1.716,0.479 3.398,1.027 5.072,1.533 1.668,0.525 3.333,0.994 4.938,1.621 1.608,0.594 3.203,1.182 4.784,1.762 0.783,0.305 1.578,0.557 2.341,0.9 0.765,0.328 1.526,0.656 2.285,0.98 1.509,0.652 3.003,1.299 4.482,1.939 1.469,0.66 2.889,1.395 4.301,2.09 11.294,5.588 20.826,11.979 28.633,18.254 0.973,0.785 1.93,1.557 2.871,2.316 0.474,0.369 0.919,0.777 1.361,1.174 0.443,0.398 0.882,0.791 1.316,1.182 1.729,1.568 3.417,3.025 4.943,4.543 1.527,1.518 2.967,2.988 4.337,4.387 0.341,0.348 0.679,0.693 1.012,1.033 0.325,0.352 0.634,0.715 0.945,1.062 0.616,0.701 1.219,1.383 1.805,2.049 1.164,1.33 2.264,2.58 3.263,3.787 0.96,1.244 1.86,2.408 2.698,3.492 0.825,1.08 1.589,2.08 2.289,2.996 0.65,0.957 1.239,1.826 1.768,2.605 2.097,3.111 3.141,4.797 3.141,4.797 0,0 -1.761,-0.992 -4.924,-2.902 -0.788,-0.475 -1.669,-1.004 -2.638,-1.586 -0.986,-0.553 -2.062,-1.154 -3.226,-1.805 -1.151,-0.646 -2.388,-1.342 -3.707,-2.084 -1.324,-0.725 -2.775,-1.428 -4.26,-2.217 -0.744,-0.391 -1.509,-0.789 -2.292,-1.199 -0.391,-0.203 -0.785,-0.408 -1.186,-0.617 -0.409,-0.195 -0.823,-0.391 -1.242,-0.588 -1.662,-0.795 -3.4,-1.623 -5.212,-2.488 -0.887,-0.451 -1.849,-0.822 -2.8,-1.238 -0.948,-0.412 -1.915,-0.832 -2.9,-1.26 -0.988,-0.416 -1.963,-0.887 -3.002,-1.275 -1.03,-0.4 -2.077,-0.809 -3.141,-1.225 -8.48,-3.305 -18.141,-6.424 -28.726,-8.779 -0.66,-0.146 -1.324,-0.293 -1.992,-0.441 -0.669,-0.141 -1.325,-0.326 -2.007,-0.439 -1.354,-0.246 -2.72,-0.492 -4.1,-0.742 -2.737,-0.549 -5.567,-0.877 -8.404,-1.299 -0.71,-0.105 -1.422,-0.209 -2.146,-0.264 -0.719,-0.072 -1.441,-0.145 -2.165,-0.219 -1.449,-0.141 -2.897,-0.322 -4.364,-0.434 -1.473,-0.082 -2.951,-0.158 -4.432,-0.26 -0.742,-0.047 -1.483,-0.107 -2.229,-0.143 -0.746,-0.014 -1.497,-0.025 -2.249,-0.037 -1.502,-0.029 -3.01,-0.045 -4.521,-0.094 -1.512,0.031 -3.033,0.064 -4.563,0.098 -0.764,0.018 -1.527,0.033 -2.294,0.049 -0.765,0.053 -1.531,0.104 -2.301,0.156 -1.535,0.1 -3.077,0.166 -4.621,0.285 -6.171,0.607 -12.393,1.449 -18.591,2.744 -0.781,0.123 -1.544,0.35 -2.316,0.525 -0.771,0.188 -1.542,0.375 -2.314,0.561 -0.771,0.184 -1.544,0.367 -2.318,0.551 -0.765,0.219 -1.529,0.439 -2.296,0.658 -0.767,0.219 -1.532,0.436 -2.302,0.654 -0.764,0.227 -1.543,0.408 -2.292,0.689 -1.514,0.52 -3.024,1.047 -4.548,1.537 -0.769,0.23 -1.509,0.541 -2.257,0.83 -0.746,0.291 -1.494,0.582 -2.242,0.873 -0.749,0.289 -1.499,0.578 -2.248,0.867 -0.732,0.332 -1.464,0.664 -2.197,0.996 -0.736,0.322 -1.473,0.645 -2.211,0.967 -0.738,0.322 -1.483,0.627 -2.192,1.012 -1.438,0.721 -2.879,1.445 -4.322,2.17 l -0.541,0.271 -0.524,0.303 -1.051,0.6 -2.115,1.18 c -0.7,0.402 -1.424,0.764 -2.108,1.193 l -2.046,1.301 -2.054,1.293 c -0.341,0.217 -0.69,0.422 -1.025,0.648 l -0.992,0.701 c -1.329,0.922 -2.66,1.846 -3.991,2.77 -2.517,1.982 -5.276,4.023 -7.357,5.898 -2.004,1.535 -5.117,4.65 -7.868,7.234 0.855,-0.83 0.176,-0.166 0.341,-0.324 l -0.105,0.111 -0.21,0.223 -0.42,0.443 -0.842,0.883 -1.688,1.766 c -1.165,1.143 -2.171,2.422 -3.236,3.65 -2.176,2.42 -4.102,5.033 -6.107,7.582 -1.822,2.682 -3.762,5.279 -5.422,8.059 l -1.3,2.049 c -0.431,0.684 -0.793,1.408 -1.194,2.109 -0.394,0.703 -0.78,1.412 -1.186,2.111 l -0.604,1.049 -0.304,0.525 -0.271,0.541 c -0.726,1.443 -1.449,2.887 -2.17,4.324 -0.384,0.709 -0.689,1.455 -1.012,2.193 -0.318,0.738 -0.643,1.475 -0.977,2.207 -0.331,0.734 -0.664,1.467 -0.995,2.197 -0.289,0.752 -0.577,1.502 -0.866,2.25 -0.292,0.75 -0.582,1.498 -0.872,2.244 -0.29,0.748 -0.601,1.488 -0.83,2.258 -0.517,1.52 -1.031,3.035 -1.545,4.547 -0.281,0.75 -0.463,1.529 -0.688,2.295 -0.219,0.768 -0.437,1.535 -0.654,2.301 -0.222,0.768 -0.442,1.531 -0.663,2.297 -0.186,0.773 -0.369,1.547 -0.555,2.318 -0.186,0.773 -0.372,1.547 -0.559,2.316 -0.176,0.771 -0.402,1.535 -0.525,2.316 -1.302,6.199 -2.145,12.426 -2.751,18.602 -0.118,1.543 -0.185,3.086 -0.283,4.621 -0.054,0.77 -0.108,1.537 -0.161,2.303 -0.016,0.766 -0.032,1.531 -0.048,2.293 -0.032,1.531 -0.063,3.053 -0.095,4.566 0.03,1.518 0.061,3.025 0.091,4.523 0.012,0.752 0.024,1.502 0.037,2.25 0.037,0.746 0.098,1.486 0.144,2.229 0.103,1.48 0.174,2.961 0.259,4.434 0.113,1.467 0.297,2.916 0.438,4.363 0.171,1.443 0.239,2.902 0.48,4.314 0.429,2.836 0.748,5.672 1.302,8.408 0.251,1.379 0.499,2.746 0.744,4.1 0.277,1.35 0.595,2.676 0.881,4.002 2.361,10.586 5.487,20.248 8.8,28.727 0.415,1.062 0.824,2.111 1.226,3.139 0.189,0.523 0.411,1.023 0.63,1.521 0.218,0.498 0.434,0.992 0.647,1.482 0.429,0.984 0.85,1.953 1.262,2.9 0.417,0.949 0.788,1.912 1.241,2.797 0.866,1.811 1.697,3.551 2.492,5.211 0.198,0.418 0.396,0.832 0.591,1.24 0.208,0.4 0.414,0.797 0.617,1.186 0.411,0.783 0.811,1.547 1.201,2.291 0.787,1.484 1.498,2.938 2.22,4.254 0.735,1.311 1.425,2.539 2.065,3.684 0.649,1.158 1.25,2.232 1.801,3.215 0.594,0.977 1.132,1.865 1.614,2.66 1.936,3.184 2.917,4.928 2.917,4.928 z"
   id="path213"
   inkscape:connector-curvature="0"
   style="fill:#1eb8b3" />
	<path
   d="m 749.636,948.59 c 0,0 -1.294,-0.799 -3.65,-2.365 -0.588,-0.395 -1.244,-0.832 -1.966,-1.316 -0.704,-0.52 -1.459,-1.105 -2.288,-1.736 -0.831,-0.639 -1.725,-1.324 -2.677,-2.059 -0.922,-0.762 -1.86,-1.6 -2.881,-2.477 -0.508,-0.443 -1.03,-0.896 -1.566,-1.361 -0.267,-0.236 -0.538,-0.473 -0.812,-0.715 -0.261,-0.252 -0.523,-0.508 -0.789,-0.768 -1.064,-1.035 -2.187,-2.125 -3.344,-3.283 -1.155,-1.156 -2.269,-2.436 -3.464,-3.746 -0.585,-0.664 -1.22,-1.318 -1.797,-2.029 -0.578,-0.715 -1.167,-1.439 -1.765,-2.178 -4.786,-5.92 -9.662,-13.154 -13.932,-21.73 -4.25,-8.568 -7.983,-18.467 -10.214,-29.473 -0.275,-1.379 -0.551,-2.768 -0.829,-4.164 -0.205,-1.414 -0.412,-2.836 -0.62,-4.266 -0.102,-0.719 -0.203,-1.439 -0.305,-2.16 -0.07,-0.727 -0.143,-1.455 -0.214,-2.186 -0.125,-1.465 -0.271,-2.939 -0.374,-4.426 -0.109,-2.977 -0.312,-6.002 -0.194,-9.061 0.013,-0.766 0.026,-1.535 0.039,-2.305 l 0.021,-1.156 0.071,-1.158 c 0.093,-1.547 0.211,-3.1 0.329,-4.664 0.62,-6.236 1.645,-12.584 3.291,-18.902 1.702,-6.299 3.846,-12.602 6.638,-18.719 0.684,-1.535 1.459,-3.033 2.21,-4.543 0.387,-0.752 0.744,-1.52 1.158,-2.258 l 1.257,-2.209 1.264,-2.211 c 0.215,-0.369 0.42,-0.742 0.643,-1.105 l 0.688,-1.072 c 0.936,-1.424 1.871,-2.852 2.809,-4.277 0.995,-1.389 2.018,-2.758 3.034,-4.137 0.989,-1.398 2.107,-2.695 3.208,-4.01 1.108,-1.307 2.182,-2.646 3.378,-3.873 l 1.758,-1.875 0.881,-0.934 0.441,-0.469 0.222,-0.232 0.11,-0.117 c 0.19,-0.189 -0.272,0.258 0.456,-0.453 2.215,-2.061 4,-3.871 7.086,-6.412 2.84,-2.498 5.548,-4.363 8.322,-6.404 1.427,-0.939 2.853,-1.875 4.276,-2.811 l 1.07,-0.695 c 0.363,-0.223 0.736,-0.428 1.104,-0.641 l 2.211,-1.266 2.211,-1.256 c 0.739,-0.414 1.506,-0.771 2.258,-1.158 1.514,-0.748 3.003,-1.537 4.54,-2.219 1.543,-0.658 3.084,-1.316 4.621,-1.975 0.763,-0.34 1.549,-0.617 2.33,-0.904 0.78,-0.285 1.561,-0.57 2.34,-0.855 0.78,-0.277 1.561,-0.555 2.341,-0.83 0.79,-0.238 1.58,-0.477 2.368,-0.715 0.788,-0.234 1.574,-0.471 2.36,-0.703 0.785,-0.234 1.565,-0.479 2.362,-0.66 1.583,-0.395 3.167,-0.76 4.741,-1.129 0.784,-0.199 1.583,-0.32 2.373,-0.473 0.791,-0.145 1.581,-0.289 2.369,-0.434 0.788,-0.141 1.574,-0.283 2.358,-0.424 0.79,-0.1 1.579,-0.199 2.366,-0.299 1.575,-0.182 3.136,-0.416 4.698,-0.543 1.563,-0.115 3.118,-0.238 4.666,-0.334 l 1.158,-0.07 1.157,-0.021 c 0.77,-0.014 1.538,-0.025 2.304,-0.039 3.06,-0.113 6.085,0.076 9.063,0.193 1.488,0.102 2.963,0.25 4.427,0.375 0.731,0.07 1.46,0.141 2.187,0.211 0.723,0.102 1.443,0.203 2.162,0.305 1.431,0.207 2.854,0.416 4.267,0.621 1.402,0.262 2.79,0.553 4.166,0.826 11.011,2.23 20.913,5.969 29.482,10.223 8.578,4.271 15.813,9.152 21.732,13.943 0.737,0.6 1.463,1.189 2.176,1.77 0.714,0.574 1.366,1.213 2.03,1.797 1.31,1.197 2.59,2.311 3.746,3.469 1.156,1.156 2.246,2.279 3.281,3.346 0.259,0.268 0.515,0.531 0.768,0.791 0.246,0.268 0.479,0.545 0.713,0.812 0.465,0.535 0.919,1.059 1.359,1.566 0.877,1.021 1.718,1.965 2.474,2.885 0.726,0.947 1.407,1.836 2.039,2.662 0.624,0.824 1.2,1.586 1.729,2.283 0.49,0.732 0.935,1.395 1.334,1.988 1.581,2.375 2.366,3.66 2.366,3.66 0,0 -1.343,-0.748 -3.754,-2.186 -0.601,-0.357 -1.271,-0.758 -2.011,-1.195 -0.751,-0.416 -1.57,-0.869 -2.456,-1.359 -0.876,-0.486 -1.818,-1.01 -2.823,-1.568 -1.006,-0.547 -2.103,-1.088 -3.236,-1.676 -0.568,-0.291 -1.15,-0.59 -1.749,-0.895 -0.298,-0.152 -0.6,-0.307 -0.904,-0.465 -0.311,-0.145 -0.626,-0.293 -0.944,-0.441 -1.264,-0.596 -2.587,-1.221 -3.965,-1.869 -0.674,-0.342 -1.405,-0.619 -2.128,-0.932 -0.722,-0.309 -1.457,-0.625 -2.206,-0.947 -0.75,-0.312 -1.492,-0.664 -2.282,-0.957 -0.782,-0.301 -1.577,-0.607 -2.386,-0.918 -6.442,-2.48 -13.777,-4.818 -21.805,-6.576 -8.023,-1.742 -16.729,-3.004 -25.828,-3.162 -1.138,-0.018 -2.279,-0.027 -3.423,-0.061 -1.145,0.027 -2.296,0.055 -3.454,0.082 -0.576,0.014 -1.155,0.027 -1.735,0.041 -0.579,0.041 -1.159,0.082 -1.742,0.121 -1.161,0.08 -2.328,0.133 -3.495,0.225 -4.67,0.473 -9.374,1.117 -14.06,2.105 -1.174,0.23 -2.331,0.559 -3.501,0.828 -0.583,0.141 -1.168,0.279 -1.753,0.418 -0.577,0.168 -1.155,0.334 -1.735,0.502 -0.578,0.166 -1.157,0.332 -1.738,0.498 -0.578,0.172 -1.167,0.311 -1.733,0.523 -1.143,0.395 -2.284,0.795 -3.437,1.166 -0.58,0.176 -1.139,0.412 -1.703,0.631 l -1.695,0.662 -1.698,0.656 -1.659,0.756 -1.67,0.732 c -0.557,0.244 -1.12,0.475 -1.656,0.766 -1.086,0.547 -2.173,1.094 -3.264,1.645 -4.302,2.297 -8.445,4.9 -12.423,7.76 -1.898,1.498 -3.986,3.043 -5.55,4.451 -1.502,1.15 -3.873,3.521 -5.958,5.48 0.665,-0.645 0.139,-0.129 0.266,-0.252 l -0.079,0.084 -0.158,0.166 -0.317,0.336 -0.636,0.668 -1.276,1.334 c -0.88,0.863 -1.641,1.828 -2.445,2.756 -1.644,1.828 -3.1,3.801 -4.617,5.727 -1.376,2.023 -2.843,3.986 -4.099,6.086 l -0.983,1.545 c -0.326,0.518 -0.6,1.064 -0.903,1.594 l -0.897,1.596 c -0.294,0.535 -0.635,1.043 -0.891,1.596 -0.55,1.092 -1.097,2.18 -1.645,3.266 -0.29,0.537 -0.522,1.102 -0.765,1.658 -0.241,0.559 -0.488,1.115 -0.741,1.666 l -0.754,1.662 -0.656,1.699 -0.662,1.695 c -0.221,0.564 -0.456,1.125 -0.63,1.705 -0.393,1.148 -0.783,2.293 -1.172,3.436 -0.215,0.566 -0.353,1.154 -0.525,1.734 -0.165,0.58 -0.331,1.16 -0.496,1.738 -0.168,0.58 -0.337,1.158 -0.505,1.736 -0.141,0.584 -0.281,1.17 -0.422,1.754 -0.27,1.17 -0.596,2.328 -0.826,3.5 -0.994,4.688 -1.64,9.396 -2.11,14.066 -0.311,4.674 -0.597,9.312 -0.41,13.857 0.157,9.104 1.421,17.811 3.167,25.838 1.762,8.031 4.104,15.363 6.591,21.805 0.621,1.613 1.213,3.191 1.88,4.67 0.322,0.748 0.638,1.482 0.948,2.203 0.313,0.723 0.593,1.455 0.933,2.127 0.651,1.379 1.276,2.701 1.873,3.963 0.15,0.318 0.298,0.635 0.444,0.945 0.155,0.307 0.311,0.605 0.462,0.904 0.308,0.598 0.606,1.18 0.898,1.746 0.589,1.135 1.133,2.232 1.678,3.234 0.554,0.996 1.072,1.932 1.555,2.803 0.49,0.883 0.941,1.701 1.355,2.449 0.447,0.746 0.853,1.422 1.217,2.029 1.457,2.427 2.196,3.757 2.196,3.757 z"
   id="path215"
   inkscape:connector-curvature="0"
   style="fill:#1eb8b3" />
	<g
   id="g221">
		<path
   d="m 235.023,316.797 c 0,0 -52.254,52.896 -15.724,112.666 12.031,19.688 31.091,25.213 45.688,27.871 0,0 -43.209,-66.824 3.402,-107.859"
   id="path217"
   inkscape:connector-curvature="0"
   style="fill:#19918f" />
		<path
   d="m 261.273,345.307 c 0,0 -9.927,64.252 46.578,87.887 18.611,7.785 34.947,1.938 46.651,-3.656 0,0 -64.851,-25.213 -52.847,-78.168"
   id="path219"
   inkscape:connector-curvature="0"
   style="fill:#19918f" />
	</g>
	<g
   id="g235">
		<g
   id="g227">
			<polyline
   points="136.106,170.875 135.05,214.154 160.736,195.506    "
   id="polyline223"
   style="fill:#ffffff" />
			<polygon
   points="135.312,213.658 160.59,195.305 160.882,195.707 134.789,214.652 135.856,170.871 136.354,170.883 "
   id="polygon225" />
		</g>
		<g
   id="g233">
			<polyline
   points="160.032,194.801 158.977,238.08 184.662,219.432    "
   id="polyline229"
   style="fill:#ffffff" />
			<polygon
   points="159.237,237.584 184.516,219.23 184.809,219.635 158.716,238.578 159.783,194.797 160.28,194.809 "
   id="polygon231" />
		</g>
	</g>
	<g
   id="g243">
		<polygon
   points="357.6,62.68 263.302,168.238 322.414,179.498 "
   id="polygon237"
   style="fill:#ffffff" />
		<polygon
   points="456.354,125.32 331.085,191.215 382.521,222.443 "
   id="polygon239"
   style="fill:#ffffff" />
		<polygon
   points="512.503,243.947 372.035,226.533 396.437,281.539 "
   id="polygon241"
   style="fill:#ffffff" />
	</g>
	<g
   id="g249">
		<path
   d="m 394.193,183.719 c 0,0 -76.001,-87.26 -268.819,-21.111 0,0 43.631,49.26 71.779,63.334 l -26.741,46.445 -64.742,-39.408 c 0,0 -26.476,46.215 14.074,84.445 49.26,46.447 104.149,-2.812 104.149,-2.812 z"
   id="path245"
   inkscape:connector-curvature="0"
   style="fill:#50e2de" />
		<circle
   cx="316.785"
   cy="261.12701"
   r="109.472"
   id="circle247"
   style="fill:#50e2de" />
	</g>
	<circle
   cx="316.785"
   cy="261.12701"
   r="49.759998"
   id="circle251"
   style="fill:#19918f" />
	<path
   d="m 840.874,899.219 c -0.389,0.389 -0.998,0.928 -1.262,0.664 L 297.299,357.57 c -0.264,-0.266 -0.085,-1.234 0.303,-1.623 l 21.111,-21.111 c 0.389,-0.389 1.347,-0.555 1.61,-0.291 l 542.313,542.312 c 0.264,0.264 -0.263,0.861 -0.651,1.25 z"
   id="path253"
   inkscape:connector-curvature="0"
   style="fill:#50e2de" />
	<path
   d="m 866.293,1003.641 c 0,0 -1.066,-0.242 -2.953,-0.805 -0.47,-0.143 -0.996,-0.301 -1.574,-0.475 -0.575,-0.207 -1.19,-0.455 -1.872,-0.725 -0.671,-0.279 -1.4,-0.584 -2.18,-0.93 -0.754,-0.355 -1.538,-0.736 -2.369,-1.164 -1.685,-0.832 -3.446,-1.893 -5.365,-3.121 -0.958,-0.615 -1.903,-1.311 -2.898,-2.041 -0.492,-0.369 -1.018,-0.732 -1.511,-1.137 -0.491,-0.408 -0.989,-0.826 -1.495,-1.248 -4.057,-3.416 -8.283,-7.846 -12.119,-13.416 -3.828,-5.561 -7.302,-12.258 -9.69,-19.975 -0.288,-0.971 -0.578,-1.947 -0.87,-2.932 -0.241,-1.002 -0.484,-2.012 -0.729,-3.025 -0.116,-0.512 -0.231,-1.025 -0.347,-1.539 -0.096,-0.52 -0.191,-1.043 -0.288,-1.564 -0.178,-1.051 -0.367,-2.109 -0.528,-3.182 -0.571,-4.297 -0.854,-8.783 -0.709,-13.393 0.185,-4.605 0.7,-9.338 1.733,-14.084 1.049,-4.738 2.511,-9.5 4.475,-14.15 1.989,-4.633 4.412,-9.164 7.277,-13.449 0.727,-1.062 1.492,-2.1 2.251,-3.145 0.744,-1.059 1.571,-2.049 2.395,-3.045 0.827,-0.992 1.632,-2.008 2.526,-2.938 l 1.323,-1.412 0.666,-0.705 0.333,-0.35 0.167,-0.176 0.084,-0.088 c 0.271,-0.266 -0.487,0.471 0.628,-0.617 l 1.994,-1.871 c 0.461,-0.467 1.833,-1.637 2.924,-2.547 2.378,-2.051 4.336,-3.375 6.468,-4.902 4.286,-2.865 8.812,-5.299 13.446,-7.295 4.646,-1.975 9.411,-3.438 14.151,-4.49 4.748,-1.039 9.481,-1.561 14.091,-1.748 4.612,-0.148 9.102,0.127 13.401,0.701 1.073,0.158 2.134,0.352 3.185,0.529 0.523,0.096 1.045,0.191 1.565,0.285 0.517,0.117 1.029,0.232 1.541,0.35 1.022,0.23 2.031,0.482 3.027,0.729 0.992,0.275 1.969,0.578 2.935,0.869 7.725,2.385 14.425,5.865 19.99,9.697 5.572,3.842 10.004,8.076 13.419,12.141 0.422,0.51 0.839,1.008 1.247,1.5 0.404,0.492 0.767,1.021 1.136,1.514 0.729,0.996 1.427,1.939 2.039,2.904 1.229,1.922 2.285,3.688 3.115,5.377 0.427,0.83 0.811,1.623 1.158,2.371 0.331,0.768 0.625,1.492 0.898,2.158 0.262,0.678 0.506,1.291 0.713,1.867 0.186,0.59 0.354,1.127 0.504,1.607 0.584,1.914 0.805,2.967 0.805,2.967 0,0 -1.098,-0.205 -2.984,-0.65 -0.469,-0.109 -0.991,-0.229 -1.566,-0.361 -0.574,-0.119 -1.201,-0.25 -1.879,-0.389 -0.655,-0.145 -1.359,-0.297 -2.112,-0.461 -0.742,-0.16 -1.558,-0.285 -2.375,-0.451 -0.829,-0.154 -1.67,-0.34 -2.578,-0.477 -0.902,-0.145 -1.836,-0.287 -2.779,-0.453 -1.937,-0.256 -3.938,-0.57 -6.072,-0.762 -4.238,-0.438 -8.825,-0.672 -13.532,-0.562 -4.708,0.121 -9.524,0.506 -14.251,1.414 -0.59,0.107 -1.179,0.225 -1.764,0.32 -0.585,0.133 -1.171,0.273 -1.752,0.395 l -0.87,0.184 -0.866,0.23 c -0.57,0.145 -1.144,0.289 -1.721,0.438 -2.277,0.658 -4.505,1.357 -6.66,2.172 -2.143,0.854 -4.231,1.723 -6.218,2.732 -1.974,1.029 -3.886,2.082 -5.699,3.24 -1.8,1.184 -3.524,2.418 -5.184,3.727 -0.761,0.664 -1.771,1.451 -2.12,1.82 -0.292,0.273 -0.347,0.236 -1.18,1.057 l -1.978,1.887 c 1.077,-1.049 0.279,-0.27 0.511,-0.494 l -0.034,0.037 -0.068,0.072 -0.136,0.145 -0.273,0.291 -0.555,0.572 c -0.391,0.363 -0.721,0.775 -1.078,1.166 -0.738,0.764 -1.368,1.605 -2.076,2.398 -1.307,1.66 -2.554,3.379 -3.744,5.178 -1.17,1.812 -2.223,3.727 -3.256,5.705 -1.017,1.986 -1.891,4.076 -2.748,6.223 -0.816,2.156 -1.523,4.389 -2.18,6.67 -0.154,0.57 -0.285,1.146 -0.435,1.723 l -0.233,0.867 -0.183,0.871 c -0.133,0.59 -0.265,1.174 -0.396,1.756 -0.107,0.594 -0.214,1.182 -0.32,1.766 -0.911,4.732 -1.29,9.557 -1.406,14.268 -0.103,4.709 0.142,9.297 0.585,13.533 0.199,2.133 0.51,4.137 0.773,6.068 0.17,0.943 0.312,1.879 0.459,2.777 0.141,0.906 0.325,1.75 0.482,2.576 0.159,0.834 0.312,1.625 0.454,2.367 0.155,0.742 0.303,1.436 0.438,2.082 0.139,0.674 0.267,1.295 0.384,1.867 0.146,0.586 0.277,1.119 0.396,1.594 0.474,1.911 0.666,2.99 0.666,2.99 z"
   id="path255"
   inkscape:connector-curvature="0"
   style="fill:#ffffff" />
</g>
</svg>