<?xml version="1.0" encoding="UTF-8" standalone="no"?>
<!-- Generator: Adobe Illustrator 16.0.0, SVG Export Plug-In . SVG Version: 6.00 Build 0)  -->

<svg
   xmlns:dc="http://purl.org/dc/elements/1.1/"
   xmlns:cc="http://creativecommons.org/ns#"
   xmlns:rdf="http://www.w3.org/1999/02/22-rdf-syntax-ns#"
   xmlns:svg="http://www.w3.org/2000/svg"
   xmlns="http://www.w3.org/2000/svg"
   xmlns:sodipodi="http://sodipodi.sourceforge.net/DTD/sodipodi-0.dtd"
   xmlns:inkscape="http://www.inkscape.org/namespaces/inkscape"
   version="1.1"
   id="Calque_1"
   x="0px"
   y="0px"
   width="1063px"
   height="1067px"
   viewBox="0 0 1063 1067"
   enable-background="new 0 0 1063 1067"
   xml:space="preserve"
   inkscape:version="0.91 r13725"
   sodipodi:docname="edm.svg"><metadata
     id="metadata4175"><rdf:RDF><cc:Work
         rdf:about=""><dc:format>image/svg+xml</dc:format><dc:type
           rdf:resource="http://purl.org/dc/dcmitype/StillImage" /></cc:Work></rdf:RDF></metadata><defs
     id="defs4173" /><sodipodi:namedview
     pagecolor="#ffffff"
     bordercolor="#666666"
     borderopacity="1"
     objecttolerance="10"
     gridtolerance="10"
     guidetolerance="10"
     inkscape:pageopacity="0"
     inkscape:pageshadow="2"
     inkscape:window-width="1920"
     inkscape:window-height="1028"
     id="namedview4171"
     showgrid="false"
     inkscape:zoom="0.80506092"
     inkscape:cx="531.5"
     inkscape:cy="533.5"
     inkscape:window-x="-8"
     inkscape:window-y="-8"
     inkscape:window-maximized="1"
     inkscape:current-layer="Calque_1" /><g
     id="g4139"><g
       id="g4141"><path
         fill="#FEAB06"
         d="M929.355,32.279c-1.376,0.545-2.373,1.135-3.379,2.143c-1.872,1.871-2.957,4.371-3.046,7.121l-0.972,31.84    L695.34,300.002c-18.95,18.951-18.765,49.861,0.186,68.812c18.95,18.949,49.861,19.135,68.812,0.184l226.807-226.809l31.328-1.209    c2.748-0.088,5.195-1.33,7.066-3.201c1.008-1.008,1.447-1.945,1.992-3.322c1.555-3.938,0.252-8.143-2.74-11.135l-88.351-88.35    C937.448,31.98,933.291,30.725,929.355,32.279z"
         id="path4143" /><polygon
         fill="#E7724A"
         points="921.959,73.383 912.073,83.27 981.07,152.266 991.145,142.189 992.413,142.143 922.009,71.736       "
         id="polygon4145" /><rect
         x="873.251"
         y="134.71"
         transform="matrix(-0.7071 -0.7071 0.7071 -0.7071 1473.394 894.9037)"
         fill="#E7724A"
         width="97.577"
         height="15.178"
         id="rect4147" /></g><path
       fill="#FEAB06"
       d="M306.432,690.441l238.405-238.402c18.951-18.953,49.479-19.15,68.429-0.201l0,0   c18.951,18.953,18.753,49.479-0.198,68.432L374.663,758.674"
       id="path4149" /><path
       fill="#FFFFFF"
       stroke="#000000"
       stroke-width="14"
       stroke-linecap="round"
       stroke-linejoin="round"
       stroke-miterlimit="10"
       d="   M415.439,648.098"
       id="path4151" /><path
       fill="#FEAB06"
       d="M322.6,590.256c-52.595,6.854-102.063,17.736-107.091,18.85l-0.112,0.045   c-2.081,0.133-3.706,1.281-4.444,3.234c-0.738,1.949-0.076,3.967,1.398,5.443l233.228,233.227c1.473,1.473,3.47,2.152,5.422,1.416   c0.718-0.271,1.251-0.586,1.773-1.107c0.898-0.898,1.41-2.055,1.493-3.371l-0.021-0.047c1.113-5.027,12.062-54.561,18.915-107.152   c9.979-76.6,7.35-121.596-8.324-137.27l-4.956-4.955C444.205,582.893,399.198,580.277,322.6,590.256z"
       id="path4153" /><path
       fill="#E7724A"
       d="M815.604,248.158c80.541,80.541,80.542,211.127,0,291.668c-80.543,80.541-211.126,80.541-291.668-0.002   c-80.541-80.539-80.542-211.125,0-291.666S735.061,167.617,815.604,248.158z"
       id="path4155" /><path
       fill="#FEAB06"
       d="M155,366h337.735c26.8,0,48.527,22.199,48.527,49.002l0,0c0,26.799-21.727,48.998-48.526,48.998H155"
       id="path4157" /><ellipse
       transform="matrix(0.9933 -0.116 0.116 0.9933 -46.7826 23.6846)"
       fill="#FFD102"
       cx="180.149"
       cy="413.881"
       rx="149.148"
       ry="172.877"
       id="ellipse4159" /><ellipse
       transform="matrix(0.9933 -0.1159 0.1159 0.9933 -46.4703 28.9018)"
       fill="#45314E"
       cx="225.186"
       cy="413.88"
       rx="55.023"
       ry="63.775"
       id="ellipse4161" /><path
       fill="#FEAB06"
       d="M701,912V573.846c0-26.803-22.199-48.527-49.001-48.527l0,0c-26.8,0-48.999,21.725-48.999,48.525V912"
       id="path4163" /><path
       fill="#FFD102"
       d="M669.994,738.287c-94.836-11.072-179.454,46.279-189.006,128.096   c-9.553,81.816,59.579,157.119,154.414,168.189c94.834,11.072,179.455-46.275,189.008-128.094   C833.963,824.662,764.828,749.359,669.994,738.287z"
       id="path4165" /><ellipse
       transform="matrix(0.116 -0.9933 0.9933 0.116 -258.7098 1392.1116)"
       fill="#45314E"
       cx="652.699"
       cy="841.393"
       rx="55.022"
       ry="63.776"
       id="ellipse4167" /><path
       fill="#FFFFFF"
       d="M771.651,292.109c-43.688-43.688-91.69-78.174-135.171-97.105c-2.571-1.119-5.11-2.166-7.627-3.162   c-19.301,3.889-38.152,10.555-55.916,20.004c13.329-0.084,30.705,4.336,50.562,12.98c3.415,1.484,6.864,3.088,10.343,4.787   l-140.634,75.598c-3.062-0.586-6.052-1.041-8.976-1.379c-5.028,10.348-9.146,21.025-12.342,31.916   c5.64-0.098,12.11,0.676,19.241,2.328l101.236,55.275c13.921,11.084,27.765,23.447,41.181,36.863   c37.547,37.547,66.931,78.418,82.846,114.975c7.916,18.184,11.869,34.42,11.648,46.676c12.519-3.676,24.754-8.566,36.528-14.662   l77.796-128.607c6.377,16.398,9.616,30.805,9.546,42.236c9.452-17.766,16.12-36.621,20.009-55.924   c-0.996-2.52-2.042-5.059-3.162-7.629C849.828,383.797,815.338,335.797,771.651,292.109z M624.936,271.328l8.391,107.33   l-22.96-12.537c-25.155-19.785-50.661-35.781-74.767-46.77L624.936,271.328z M750.971,536.844L699.926,430.9l106.767,13.828   L750.971,536.844z M825.995,414.43l-158.858-20.574l-11.936-152.709c30.891,18.209,63.15,43.662,93.451,73.963   C780.876,347.334,807.618,381.775,825.995,414.43z"
       id="path4169" /></g></svg>