<?xml version="1.0" encoding="UTF-8" standalone="no"?>
<!-- Generator: Adobe Illustrator 16.0.0, SVG Export Plug-In . SVG Version: 6.00 Build 0)  -->

<svg
   xmlns:dc="http://purl.org/dc/elements/1.1/"
   xmlns:cc="http://creativecommons.org/ns#"
   xmlns:rdf="http://www.w3.org/1999/02/22-rdf-syntax-ns#"
   xmlns:svg="http://www.w3.org/2000/svg"
   xmlns="http://www.w3.org/2000/svg"
   xmlns:sodipodi="http://sodipodi.sourceforge.net/DTD/sodipodi-0.dtd"
   xmlns:inkscape="http://www.inkscape.org/namespaces/inkscape"
   version="1.1"
   id="Calque_1"
   x="0px"
   y="0px"
   width="1063px"
   height="1067px"
   viewBox="0 0 1063 1067"
   enable-background="new 0 0 1063 1067"
   xml:space="preserve"
   sodipodi:docname="organ.svg"
   inkscape:version="0.92.1 r15371"><metadata
   id="metadata203"><rdf:RDF><cc:Work
       rdf:about=""><dc:format>image/svg+xml</dc:format><dc:type
         rdf:resource="http://purl.org/dc/dcmitype/StillImage" /></cc:Work></rdf:RDF></metadata><defs
   id="defs201" /><sodipodi:namedview
   pagecolor="#ffffff"
   bordercolor="#666666"
   borderopacity="1"
   objecttolerance="10"
   gridtolerance="10"
   guidetolerance="10"
   inkscape:pageopacity="0"
   inkscape:pageshadow="2"
   inkscape:window-width="640"
   inkscape:window-height="480"
   id="namedview199"
   showgrid="false"
   inkscape:zoom="0.22118088"
   inkscape:cx="531.5"
   inkscape:cy="533.5"
   inkscape:window-x="0"
   inkscape:window-y="0"
   inkscape:window-maximized="0"
   inkscape:current-layer="Calque_1" />

<g
   id="g196">
	<path
   fill="#1EB8B3"
   d="M432,352.058v-29.244c0-31.086-24.912-56.288-56-56.288s-56,25.202-56,56.288v38.16   c14-3.613,29.516-6.434,45.837-8.222C389.687,350.139,412,350.05,432,352.058z"
   id="path160" />
	<path
   fill="#1EB8B3"
   d="M452.886,439.977c-0.051-0.078-0.097-0.156-0.147-0.234c-21.167,8.094-47.132,14.317-75.498,17.425   c-33.908,3.715-65.416,2.329-90.094-2.945c-0.912,0.868-1.809,1.745-2.771,2.566C196.495,486.223,136,547.825,136,619.068   c0,99.807,172.036,180.716,318.474,180.716S927,689.25,927,589.442C927,499.867,621.404,449.385,452.886,439.977z"
   id="path162" />
	<path
   fill="#19918F"
   d="M377.241,457.167c28.366-3.107,54.203-9.331,75.371-17.425C440.296,421.066,435,398.478,432,383.636   v-31.578c-20-2.008-42.313-1.919-66.163,0.694C349.516,354.54,334,357.36,320,360.974v22.662   c-4,19.002-11.773,50.685-32.692,70.586C311.985,459.496,343.333,460.882,377.241,457.167z"
   id="path164" />
	<g
   id="g178">
		<g
   id="g170">
			<circle
   fill="#45314E"
   cx="361.154"
   cy="730.014"
   r="32.588"
   id="circle166" />
			<circle
   fill="#45314E"
   cx="361.154"
   cy="629.288"
   r="32.588"
   id="circle168" />
		</g>
		<g
   id="g176">
			<circle
   fill="#45314E"
   cx="269.315"
   cy="685.576"
   r="32.588"
   id="circle172" />
			<circle
   fill="#45314E"
   cx="458.918"
   cy="685.576"
   r="32.588"
   id="circle174" />
		</g>
	</g>
	<g
   id="g186">
		<circle
   fill="#45314E"
   cx="530.019"
   cy="512.048"
   r="32.588"
   id="circle180" />
		<circle
   fill="#45314E"
   cx="618.896"
   cy="541.674"
   r="32.589"
   id="circle182" />
		<circle
   fill="#45314E"
   cx="707.771"
   cy="526.861"
   r="32.588"
   id="circle184" />
	</g>
	<g
   id="g194">
		<polygon
   fill="#FFD102"
   points="356.39,399 375.971,365.089 395.551,399   "
   id="polygon188" />
		<polygon
   fill="#FFD102"
   points="337.065,435 356.646,401.086 376.225,435   "
   id="polygon190" />
		<polygon
   fill="#FFD102"
   points="414.878,435 395.299,401.086 375.718,435   "
   id="polygon192" />
	</g>
</g>
</svg>