<?xml version="1.0" encoding="UTF-8" standalone="no"?>
<!-- Generator: Adobe Illustrator 16.0.0, SVG Export Plug-In . SVG Version: 6.00 Build 0)  -->

<svg
   xmlns:dc="http://purl.org/dc/elements/1.1/"
   xmlns:cc="http://creativecommons.org/ns#"
   xmlns:rdf="http://www.w3.org/1999/02/22-rdf-syntax-ns#"
   xmlns:svg="http://www.w3.org/2000/svg"
   xmlns="http://www.w3.org/2000/svg"
   xmlns:sodipodi="http://sodipodi.sourceforge.net/DTD/sodipodi-0.dtd"
   xmlns:inkscape="http://www.inkscape.org/namespaces/inkscape"
   version="1.1"
   id="Calque_1"
   x="0px"
   y="0px"
   width="1063px"
   height="1067px"
   viewBox="0 0 1063 1067"
   enable-background="new 0 0 1063 1067"
   xml:space="preserve"
   sodipodi:docname="piano.svg"
   inkscape:version="0.92.1 r15371"><metadata
   id="metadata301"><rdf:RDF><cc:Work
       rdf:about=""><dc:format>image/svg+xml</dc:format><dc:type
         rdf:resource="http://purl.org/dc/dcmitype/StillImage" /></cc:Work></rdf:RDF></metadata><defs
   id="defs299" /><sodipodi:namedview
   pagecolor="#ffffff"
   bordercolor="#666666"
   borderopacity="1"
   objecttolerance="10"
   gridtolerance="10"
   guidetolerance="10"
   inkscape:pageopacity="0"
   inkscape:pageshadow="2"
   inkscape:window-width="640"
   inkscape:window-height="480"
   id="namedview297"
   showgrid="false"
   inkscape:zoom="0.22118088"
   inkscape:cx="531.5"
   inkscape:cy="533.5"
   inkscape:window-x="0"
   inkscape:window-y="0"
   inkscape:window-maximized="0"
   inkscape:current-layer="Calque_1" />

<g
   id="g294">
	<path
   fill="#E7724A"
   d="M642.813,836.713C642.813,898.24,592.936,948,531.406,948h-0.957c-61.528,0-111.407-49.76-111.407-111.287   l13.024-298.221c0-61.527,36.854-111.492,98.383-111.492h0.957c61.529,0,98.383,49.965,98.383,111.492L642.813,836.713z"
   id="path268" />
	<g
   id="g276">
		<path
   fill="#FFFFFF"
   d="M419.258,723.283"
   id="path270" />
		<path
   fill="#FD945F"
   d="M722,253H336.379l-62.75,261.781c0,0,2.368,170.554,145.629,208.44c0,0,46.57,18.581,109.714,18.581    c63.146,0,113.966-18.535,113.966-18.535c143.262-37.887,145.539-208.494,145.539-208.494L725.727,253H339"
   id="path272" />
		<path
   fill="#FFFFFF"
   d="M642.938,723.283"
   id="path274" />
	</g>
	<path
   fill="#FFFFFF"
   d="M773.717,318.59c0.022-0.471,0.051-0.817,0.051-1.288L724.04,186H338.065l-49.727,131.302   c0,0.471,0.03,0.877,0.051,1.348c-3.052,5.975-4.787,12.704-4.787,19.872c0,24.195,19.614,43.793,43.807,43.793   c0.296,0,0.585-0.023,0.879-0.029c6.53,15.984,22.225,27.25,40.561,27.25c14.767,0,27.818-7.316,35.755-18.514   c4.909,18.824,22.026,32.717,42.387,32.717c16.976,0,31.685-9.661,38.958-23.781c0.474,0.027,0.946,0.059,1.422,0.084   c4.752,19.052,21.975,33.17,42.498,33.17c0.398,0,0.791-0.021,1.184-0.031c0.396,0.011,0.786,0.031,1.184,0.031   c20.525,0,37.746-14.118,42.501-33.17c0.474-0.025,0.946-0.057,1.42-0.084c7.272,14.12,21.981,23.781,38.958,23.781   c20.363,0,37.478-13.895,42.389-32.719c7.935,11.197,20.986,18.512,35.753,18.512c18.335,0,34.03-11.27,40.561-27.254   c0.294,0.006,0.585,0.021,0.879,0.021c24.194,0,43.807-19.612,43.807-43.807C778.503,331.324,776.771,324.563,773.717,318.59z"
   id="path278" />
	<ellipse
   fill="#FFE6CC"
   cx="530.928"
   cy="188.068"
   rx="193.58"
   ry="68.609"
   id="ellipse280" />
	<path
   fill="#FFFFFF"
   d="M714.77,517.93L531.52,728.907L348.27,517.93l-47.021,106.307c4.215,8.545,9.063,17.079,14.663,25.387   l38.931-88.017l156.105,179.728c5.832,0.319,11.847,0.5,18.023,0.5c8.026,0,15.852-0.301,23.401-0.824l155.823-179.403   l38.582,87.228c5.578-8.363,10.412-16.945,14.599-25.535L714.77,517.93z"
   id="path282" />
	<polygon
   fill="#FFFFFF"
   points="575.91,615 532.704,676.567 489.497,615  "
   id="polygon284" />
	<g
   id="g288">
		<path
   fill="#FFE6CC"
   d="M641.82,814.086l-40.057-37.948L531.52,879.775l-70.244-103.638l-41.291,39.118l-0.942,21.576    c0,3.846,0.194,7.645,0.576,11.391l37.701-35.719l74.201,109.479l74.201-109.479l36.609,34.684    c0.314-3.41,0.483-6.864,0.483-10.355L641.82,814.086z"
   id="path286" />
	</g>
	<circle
   fill="#FFE6CC"
   cx="458.114"
   cy="855.889"
   r="10.656"
   id="circle290" />
	<circle
   fill="#FFE6CC"
   cx="604.926"
   cy="855.889"
   r="10.656"
   id="circle292" />
</g>
</svg>