<?xml version="1.0" encoding="utf-8"?>
<!-- Generator: Adobe Illustrator 16.0.0, SVG Export Plug-In . SVG Version: 6.00 Build 0)  -->
<!DOCTYPE svg PUBLIC "-//W3C//DTD SVG 1.1//EN" "http://www.w3.org/Graphics/SVG/1.1/DTD/svg11.dtd">
<svg version="1.1" id="Calque_1" xmlns="http://www.w3.org/2000/svg" xmlns:xlink="http://www.w3.org/1999/xlink" x="0px" y="0px"
	 width="223.27px" height="223.27px" viewBox="0 0 223.27 223.27" enable-background="new 0 0 223.27 223.27" xml:space="preserve">
<path fill="#FFFFFF" d="M195.26,34.681L90.008,15.166c-1.266-0.236-2.521,0.013-3.726,0.471l-4.472,1.703
	c-2.737,1.043-4.587,3.549-4.558,6.479l1.015,106.652c-9.162-3.586-29.177-8.197-49.748,8.322
	c-18.23,14.603-2.564,67.538,39.01,46.051c12.953-6.694,19.836-14.008,23.006-20.998c1.246-1.277,2.006-3.032,1.987-4.959
	l-0.017-1.619c0.428-2.771,0.346-5.439-0.078-7.937l-0.833-85.499l95.903,16.725l0.546,68.544
	c-8.646-3.612-29.376-9.186-50.726,7.937c-18.226,14.625-2.55,67.584,39.027,46.096c12.596-6.508,19.449-13.596,22.732-20.412
	c1.928-1.259,3.207-3.43,3.188-5.904l-0.807-101.242c0.086-0.66,0.08-1.312-0.017-1.942l-0.055-6.944l-0.414-25.24
	C200.92,38.121,198.532,35.292,195.26,34.681z M91.26,29.518l95.811,17.876l0.311,18.93L91.457,49.595L91.26,29.518z"/>
</svg>
