<?xml version="1.0" encoding="utf-8"?>
<!-- Generator: Adobe Illustrator 16.0.0, SVG Export Plug-In . SVG Version: 6.00 Build 0)  -->
<!DOCTYPE svg PUBLIC "-//W3C//DTD SVG 1.1//EN" "http://www.w3.org/Graphics/SVG/1.1/DTD/svg11.dtd">
<svg version="1.1" id="Calque_1" xmlns="http://www.w3.org/2000/svg" xmlns:xlink="http://www.w3.org/1999/xlink" x="0px" y="0px"
	 width="223.27px" height="223.27px" viewBox="0 0 223.27 223.27" enable-background="new 0 0 223.27 223.27" xml:space="preserve">
<path fill="#FFFFFF" d="M113.568,1.818c-2.057-1.869-5.025-2.342-7.562-1.209c-2.537,1.135-4.163,3.662-4.144,6.441l1.13,157.44
	c-8.587-3.695-29.305-9.511-50.845,7.455c-18.357,14.423-3.199,67.528,38.583,46.435c12.792-6.457,19.727-13.56,23.034-20.406
	c2.063-1.23,3.443-3.487,3.425-6.063l-1.204-167.905c6.351,6.744,14.454,15.959,22.225,26.541
	c14.498,19.744,30.721,48.305,25.663,72.237c-2.999,14.198-19.161,23.421-19.309,23.503c-3.38,1.875-4.602,6.135-2.728,9.517
	c1.876,3.38,6.137,4.604,9.517,2.728c0.891-0.494,21.884-12.342,26.218-32.854C189.094,71.143,116.657,4.622,113.568,1.818z"/>
</svg>
