<?xml version="1.0" encoding="UTF-8" standalone="no"?>
<!-- Generator: Adobe Illustrator 16.0.0, SVG Export Plug-In . SVG Version: 6.00 Build 0)  -->

<svg
   xmlns:dc="http://purl.org/dc/elements/1.1/"
   xmlns:cc="http://creativecommons.org/ns#"
   xmlns:rdf="http://www.w3.org/1999/02/22-rdf-syntax-ns#"
   xmlns:svg="http://www.w3.org/2000/svg"
   xmlns="http://www.w3.org/2000/svg"
   xmlns:sodipodi="http://sodipodi.sourceforge.net/DTD/sodipodi-0.dtd"
   xmlns:inkscape="http://www.inkscape.org/namespaces/inkscape"
   version="1.1"
   id="Calque_1"
   x="0px"
   y="0px"
   width="3864px"
   height="1119px"
   viewBox="0 0 3864 1119"
   enable-background="new 0 0 3864 1119"
   xml:space="preserve"
   sodipodi:docname="background.svg"
   inkscape:version="0.92.1 r15371"><metadata
   id="metadata300"><rdf:RDF><cc:Work
       rdf:about=""><dc:format>image/svg+xml</dc:format><dc:type
         rdf:resource="http://purl.org/dc/dcmitype/StillImage" /></cc:Work></rdf:RDF></metadata><defs
   id="defs298" /><sodipodi:namedview
   pagecolor="#ffffff"
   bordercolor="#666666"
   borderopacity="1"
   objecttolerance="10"
   gridtolerance="10"
   guidetolerance="10"
   inkscape:pageopacity="0"
   inkscape:pageshadow="2"
   inkscape:window-width="640"
   inkscape:window-height="480"
   id="namedview296"
   showgrid="false"
   inkscape:zoom="0.089285714"
   inkscape:cx="1932"
   inkscape:cy="559.5"
   inkscape:window-x="0"
   inkscape:window-y="0"
   inkscape:window-maximized="0"
   inkscape:current-layer="g293" />
<g
   id="g293">
	<rect
   fill="#603E65"
   width="3864"
   height="1028"
   id="rect2" />
	<path
   fill="#45314E"
   d="M3621.072,1000.16c0,0-137.4-64.152-147.73-67.83c-8.832-3.147-21.442-9.305-32.017-10.448   c-1.793-0.196-3.53-0.263-5.175-0.129c-8.733,0.705-27.228,7.933-35.314,11.238c-8.774-3.919-14.846-6.545-17.043-7.327   c-13.144-4.685-31.913-13.846-47.651-15.549c-2.669-0.293-5.253-0.392-7.702-0.192c-16.908,1.367-58.42,19.161-58.42,19.161   s-0.232-0.1-0.649-0.276c-11.996-5.118-189.802-80.933-205.277-83.204c-0.029-0.006-0.073-0.015-0.101-0.02   c-15.377-2.052-35.364,2.054-44.593,6.845c-9.224,4.789-213.719,110.193-226.014,117.724   c-12.302,7.529-115.314,58.178-115.314,58.178l647.222-1.196l278.365-0.517c0,0-24.171-11.286-56.519-26.319L3621.072,1000.16z"
   id="path4" />
	<path
   fill="#8F68A1"
   d="M2584.331,763H2566c0,0,0,0.249,0,0.233c0-12.354-10.156-22.369-22.51-22.369   c-5.678,0-10.928,2.119-14.871,5.604c-3.867-18.419-21.852-32.351-43.412-32.351c-3.229,0-6.391,0.315-9.422,0.908   c-4.104-4.873-10.255-7.972-17.123-7.972c-10.384,0-19.117,7.076-21.639,16.667c-6.768-4.955-14.878-7.843-23.595-7.843   c-14.102,0-26.609,7.552-34.424,19.203c-3.369-1.402-7.063-2.18-10.94-2.18c-13.203,0-24.306,8.98-27.543,21.165   c-4.106-4.407-9.958-7.307-16.457-7.307c-10.305,0-18.984,7.24-21.65,16.24h-151.266c-10.305,0-19.148,8.636-19.148,18.941v0.243   c0,10.306,8.844,18.815,19.148,18.815h433.183c10.306,0,18.669-8.51,18.669-18.815v-0.243C2603,771.636,2594.637,763,2584.331,763z   "
   id="path6" />
	<g
   id="g24">
		<path
   fill="#37273F"
   d="M2429.306,959.686c0-5.194-3.248-9.327-8.443-9.327h-64.667c-5.195,0-10.245,4.133-10.245,9.327v25.982    h83.355V959.686z"
   id="path8" />
		<path
   fill="#37273F"
   d="M2375.893,917.437c0-7.556-7.619-12.571-15.174-12.571h-13.676c-7.555,0-13.535,5.016-13.535,12.571    v31.228h-26.844v39.547h69.229V917.437z"
   id="path10" />
		<path
   fill="#37273F"
   d="M2109.703,941.578c0-4.723-2.751-7.88-7.47-7.88h-44.149c-8.838-15.542-24.97-42.481-27.409-46.552    c-1.684-2.801-5.739-4.117-8.565-4.632v0.323h-2.287c-1.8,0-3.076,0-3.076,0h-4.256c0,0-1.277,0-3.079,0h-4.255v-0.323    c-2.826,0.515-5.897,1.831-7.577,4.632c-2.442,4.07-17.589,31.01-26.43,46.552h-45.11v26.823h-34.848v22.604h218.512V941.578z"
   id="path12" />
		<path
   fill="#37273F"
   d="M2159.466,942.783c0-2.863-1.83-5.383-3.991-6.936c0.1-0.523-0.248-1.061-0.248-1.613v-10.259    c0-4.722-1.983-7.368-6.708-7.368h-0.171c0.113-1.413-1.598-2.305-1.598-2.891v-5.127c0-4.724-2.059-8.936-6.779-8.936h-22.225    c-4.722,0-9.142,4.212-9.142,8.936v5.127c0,0.642-0.03,1.262,0.103,1.859c-4.007,0.712-7.166,4.188-7.166,8.399v10.259    c0,0.234-0.213,0.455-0.194,0.686c-3.054,1.301-5.458,4.332-5.458,7.863v34.533h-21.191h-2.826v-1.064v-7.237v-37.157    c0-2.83-2.114-5.128-4.944-5.128c-2.831,0-4.944,2.298-4.944,5.128v38.429h-18.367v14.111h115.851V942.783z"
   id="path14" />
		<path
   fill="#37273F"
   d="M1976.229,937.834c0-4.723-1.975-7.261-6.696-7.261h-41.338v-8.128c0-4.307-4.239-7.34-8.478-7.845v-5.712    c0-1.727-1.098-3.128-2.826-3.128c-1.727,0-2.825,1.401-2.825,3.128v6.145h-0.955c-4.722,0-8.936,2.689-8.936,7.412v8.128h-4.682    l0.043-0.767c-6.622,0-14.158,8.52-14.158,8.52l-18.644,20.503h-4.979c-1.187,0-2.206,0.528-2.735,1.413h117.208V937.834z"
   id="path16" />
		<path
   fill="#37273F"
   d="M2702.503,959.934c0-6.247-2.536-10.424-8.782-10.424h-25.125v-19.275c0-6.248-3.977-10.379-10.225-10.379    h-77.765c-6.247,0-12.321,4.131-12.321,10.379v41.871h-25.429v-35.297h-26.845v-31.227c0-7.553-5.979-12.569-13.531-12.569    h-13.678c-7.557,0-15.174,5.017-15.174,12.569v87.715h228.874V959.934z"
   id="path18" />
		<path
   fill="#37273F"
   d="M2487.369,949.93h-4.976l-18.647-20.502c0,0-7.533-8.52-14.158-8.52l0.113,0.059l-4.412-0.176    l-0.004-0.529v-6.717c0-4.305-4.237-7.34-8.476-7.844v-5.712c0-1.728-1.099-3.128-2.826-3.128s-2.825,1.4-2.825,3.128v6.144    h-0.955c-4.722,0-8.936,2.691-8.936,7.412v6.717h-4.683h-0.085c-6.622,0-14.029,9.166-14.029,9.166l-18.645,20.502h-4.978    c-1.187,0-2.206,0.529-2.736,1.413h113.992C2489.574,950.459,2488.556,949.93,2487.369,949.93z"
   id="path20" />
		<rect
   x="2401"
   y="947"
   fill="#37273F"
   width="131"
   height="42"
   id="rect22" />
	</g>
	<g
   id="g42">
		<rect
   x="2194"
   y="864"
   fill="#37273F"
   width="99"
   height="22"
   id="rect26" />
		<rect
   x="2179"
   y="910"
   fill="#37273F"
   width="130"
   height="74"
   id="rect28" />
		<polygon
   fill="#37273F"
   points="2293.426,886 2193.914,886 2178.107,910 2309.233,910   "
   id="polygon30" />
		<rect
   x="2224"
   y="942"
   fill="#211826"
   width="40"
   height="42"
   id="rect32" />
		<path
   fill="#37273F"
   d="M2290.84,794.75c0,3.968-3.217,7.25-7.185,7.25h-80.114c-3.968,0-7.185-3.282-7.185-7.25l7.903-63.397    c0-3.967,3.217-7.353,7.186-7.353h64.307c3.968,0,7.185,3.386,7.185,7.353L2290.84,794.75z"
   id="path34" />
		<path
   fill="#37273F"
   d="M2272.367,714.823c0.02-0.201-0.367-0.405-0.367-0.61v-16.885c0-0.208,0.387-0.41,0.367-0.613    c-0.008-0.088,0.183-0.174,0.172-0.263c-0.012-0.087,0.074-0.405,0.06-0.493c-0.039-0.246-0.022,0.041-0.088-0.959h0.018l0,0    c-0.397,0-1.265-2.535-2.419-3.477c-5.957-7.996-15.109-12.999-26.109-13.225v-0.012c0,0-0.379,0.004-0.5,0.006    c-0.12-0.002,0.5-0.006-0.5-0.006v0.012c-11,0.226-19.963,5.229-25.92,13.225c-1.152,0.941-1.938,2.477-2.335,3.477l0,0h0.052    c-0.064,1-0.088,0.713-0.128,0.959c-0.014,0.088-0.014,0.289-0.026,0.377c-0.01,0.088,0.189,0.232,0.182,0.321    c-0.02,0.201,0.176,0.463,0.176,0.671v16.885c0,0.205-0.188,0.409-0.17,0.61c0.01,0.089-0.082,0.177-0.072,0.265    c0.012,0.087-0.025,0.172-0.011,0.257c0.283,1.782,1.017,3.347,2.356,4.438c5.957,7.996,14.896,13.233,25.896,13.459v0.01    c1,0,0.38-0.004,0.5-0.006c0.121,0.002,0.5,0.006,0.5,0.006v-0.01c11-0.226,20.16-5.463,26.117-13.459    c1.338-1.092,2.284-2.656,2.567-4.438c0.013-0.085-0.166-0.17-0.153-0.257C2272.541,715,2272.359,714.912,2272.367,714.823z"
   id="path36" />
		<circle
   fill="#37273F"
   cx="2243.598"
   cy="820.674"
   r="67.356"
   id="circle38" />
		<circle
   fill="#211826"
   cx="2243.598"
   cy="820.674"
   r="49.575"
   id="circle40" />
	</g>
	<g
   id="stars_1_">
		<g
   id="g124">
			<path
   fill="#855E97"
   d="M1933.896,405.342c-2.858,0-5.169-2.311-5.169-5.165c0-2.85,2.311-5.166,5.169-5.166     c2.849,0,5.159,2.316,5.159,5.166C1939.056,403.031,1936.745,405.342,1933.896,405.342z"
   id="path44" />
			<path
   fill="#855E97"
   d="M2488.951,393.342c-2.859,0-5.172-2.312-5.172-5.166c0-2.851,2.312-5.168,5.172-5.168     c2.848,0,5.16,2.317,5.16,5.168C2494.111,391.03,2491.799,393.342,2488.951,393.342z"
   id="path46" />
			<path
   fill="#855E97"
   d="M1242.438,382.18c-2.861,0-5.171-2.312-5.171-5.165c0-2.851,2.31-5.167,5.171-5.167     c2.849,0,5.158,2.316,5.158,5.167C1247.596,379.868,1245.286,382.18,1242.438,382.18z"
   id="path48" />
			<path
   fill="#855E97"
   d="M433.887,161.4c-2.855,0-5.168-2.311-5.168-5.163c0-2.852,2.312-5.171,5.168-5.171     c2.852,0,5.161,2.319,5.161,5.171C439.048,159.09,436.738,161.4,433.887,161.4z"
   id="path50" />
			<path
   fill="#855E97"
   d="M3415.203,706.207c-2.855,0-5.168-2.311-5.168-5.163c0-2.852,2.312-5.171,5.168-5.171     c2.852,0,5.161,2.319,5.161,5.171C3420.364,703.896,3418.055,706.207,3415.203,706.207z"
   id="path52" />
			<path
   fill="#855E97"
   d="M1290.419,518.816c-2.86,0-5.168-2.311-5.168-5.164c0-2.85,2.308-5.167,5.168-5.167     c2.849,0,5.159,2.317,5.159,5.167C1295.578,516.506,1293.268,518.816,1290.419,518.816z"
   id="path54" />
			<path
   fill="#855E97"
   d="M1119.879,180.8c-2.86,0-5.169-2.312-5.169-5.165c0-2.85,2.309-5.168,5.169-5.168     c2.852,0,5.158,2.318,5.158,5.168C1125.037,178.487,1122.73,180.8,1119.879,180.8z"
   id="path56" />
			<path
   fill="#855E97"
   d="M1972.064,756.379c-2.861,0-5.17-2.312-5.17-5.164s2.309-5.17,5.17-5.17c2.85,0,5.158,2.318,5.158,5.17     S1974.914,756.379,1972.064,756.379z"
   id="path58" />
			<path
   fill="#855E97"
   d="M730.312,685.631c-2.861,0-5.171-2.313-5.171-5.164c0-2.852,2.31-5.169,5.171-5.169     c2.849,0,5.156,2.317,5.156,5.169C735.469,683.317,733.161,685.631,730.312,685.631z"
   id="path60" />
			<path
   fill="#855E97"
   d="M310.264,351.374c-2.86,0-5.173-2.313-5.173-5.163c0-2.853,2.312-5.172,5.173-5.172     c2.848,0,5.156,2.319,5.156,5.172C315.42,349.061,313.111,351.374,310.264,351.374z"
   id="path62" />
			<path
   fill="#855E97"
   d="M581.414,810.566c-2.862,0-5.169-2.313-5.169-5.163c0-2.852,2.307-5.167,5.169-5.167     c2.848,0,5.157,2.315,5.157,5.167C586.571,808.253,584.262,810.566,581.414,810.566z"
   id="path64" />
			<path
   fill="#855E97"
   d="M1453.916,125.969c-2.861,0-5.169-2.313-5.169-5.166c0-2.851,2.308-5.168,5.169-5.168     c2.85,0,5.16,2.317,5.16,5.168C1459.076,123.655,1456.766,125.969,1453.916,125.969z"
   id="path66" />
			<path
   fill="#855E97"
   d="M897.951,145.151c-2.859,0-5.168-2.313-5.168-5.166c0-2.849,2.309-5.167,5.168-5.167     c2.852,0,5.16,2.318,5.16,5.167C903.111,142.838,900.803,145.151,897.951,145.151z"
   id="path68" />
			<path
   fill="#855E97"
   d="M374.601,259.77c-2.861,0-5.17-2.313-5.17-5.166c0-2.85,2.309-5.166,5.17-5.166     c2.85,0,5.158,2.316,5.158,5.166C379.759,257.456,377.45,259.77,374.601,259.77z"
   id="path70" />
			<path
   fill="#855E97"
   d="M866.993,343.906c-2.86,0-5.171-2.314-5.171-5.166c0-2.85,2.311-5.168,5.171-5.168     c2.849,0,5.159,2.318,5.159,5.168C872.152,341.592,869.842,343.906,866.993,343.906z"
   id="path72" />
			<path
   fill="#855E97"
   d="M2238.254,204.321c-2.86,0-5.169-2.312-5.169-5.165c0-2.85,2.309-5.168,5.169-5.168     c2.852,0,5.158,2.318,5.158,5.168C2243.412,202.009,2241.105,204.321,2238.254,204.321z"
   id="path74" />
			<path
   fill="#855E97"
   d="M2016.326,168.673c-2.859,0-5.168-2.313-5.168-5.166c0-2.849,2.309-5.167,5.168-5.167     c2.852,0,5.16,2.318,5.16,5.167C2021.486,166.359,2019.178,168.673,2016.326,168.673z"
   id="path76" />
			<path
   fill="#855E97"
   d="M1985.368,367.428c-2.86,0-5.171-2.314-5.171-5.166c0-2.85,2.311-5.168,5.171-5.168     c2.849,0,5.159,2.318,5.159,5.168C1990.527,365.113,1988.217,367.428,1985.368,367.428z"
   id="path78" />
			<path
   fill="#855E97"
   d="M2703.299,531.354c-2.857,0-5.168-2.312-5.168-5.165c0-2.85,2.311-5.167,5.168-5.167     c2.852,0,5.16,2.317,5.16,5.167C2708.459,529.043,2706.15,531.354,2703.299,531.354z"
   id="path80" />
			<path
   fill="#855E97"
   d="M1403.908,458.662c-2.861,0-5.168-2.314-5.168-5.168c0-2.848,2.307-5.168,5.168-5.168     c2.85,0,5.158,2.32,5.158,5.168C1409.066,456.348,1406.758,458.662,1403.908,458.662z"
   id="path82" />
			<path
   fill="#855E97"
   d="M1347.894,323.686c-2.86,0-5.171-2.311-5.171-5.166c0-2.848,2.311-5.166,5.171-5.166     c2.85,0,5.16,2.318,5.16,5.166C1353.054,321.375,1350.743,323.686,1347.894,323.686z"
   id="path84" />
			<path
   fill="#855E97"
   d="M3526.76,221.685c-2.861,0-5.171-2.312-5.171-5.165c0-2.851,2.31-5.167,5.171-5.167     c2.849,0,5.158,2.316,5.158,5.167C3531.918,219.373,3529.608,221.685,3526.76,221.685z"
   id="path86" />
			<path
   fill="#855E97"
   d="M3574.741,358.321c-2.86,0-5.168-2.311-5.168-5.164c0-2.85,2.308-5.167,5.168-5.167     c2.849,0,5.159,2.317,5.159,5.167C3579.9,356.011,3577.59,358.321,3574.741,358.321z"
   id="path88" />
			<path
   fill="#855E97"
   d="M3688.23,298.167c-2.861,0-5.168-2.314-5.168-5.168c0-2.848,2.307-5.168,5.168-5.168     c2.85,0,5.158,2.32,5.158,5.168C3693.389,295.853,3691.08,298.167,3688.23,298.167z"
   id="path90" />
			<path
   fill="#855E97"
   d="M3632.216,163.19c-2.86,0-5.171-2.311-5.171-5.166c0-2.848,2.311-5.166,5.171-5.166     c2.85,0,5.16,2.318,5.16,5.166C3637.376,160.88,3635.065,163.19,3632.216,163.19z"
   id="path92" />
			<path
   fill="#855E97"
   d="M1541.239,789.496c-2.861,0-5.17-2.314-5.17-5.166c0-2.85,2.309-5.169,5.17-5.169     c2.85,0,5.158,2.319,5.158,5.169C1546.397,787.182,1544.089,789.496,1541.239,789.496z"
   id="path94" />
			<path
   fill="#855E97"
   d="M1571.26,690.796c-2.863,0-5.174-2.31-5.174-5.165c0-2.848,2.311-5.165,5.174-5.165     c2.848,0,5.158,2.317,5.158,5.165C1576.418,688.486,1574.107,690.796,1571.26,690.796z"
   id="path96" />
			<path
   fill="#855E97"
   d="M243.823,594.594c-2.86,0-5.172-2.312-5.172-5.166c0-2.849,2.312-5.166,5.172-5.166     c2.849,0,5.16,2.317,5.16,5.166C248.983,592.281,246.672,594.594,243.823,594.594z"
   id="path98" />
			<path
   fill="#855E97"
   d="M3693.403,543.354c-2.86,0-5.173-2.313-5.173-5.163c0-2.853,2.312-5.172,5.173-5.172     c2.848,0,5.156,2.319,5.156,5.172C3698.56,541.04,3696.251,543.354,3693.403,543.354z"
   id="path100" />
			<path
   fill="#855E97"
   d="M3757.74,451.749c-2.861,0-5.17-2.313-5.17-5.166c0-2.85,2.309-5.166,5.17-5.166     c2.85,0,5.158,2.316,5.158,5.166C3762.898,449.436,3760.59,451.749,3757.74,451.749z"
   id="path102" />
			<path
   fill="#855E97"
   d="M3626.963,786.573c-2.86,0-5.172-2.312-5.172-5.166c0-2.849,2.312-5.166,5.172-5.166     c2.849,0,5.16,2.317,5.16,5.166C3632.123,784.261,3629.812,786.573,3626.963,786.573z"
   id="path104" />
			<path
   fill="#855E97"
   d="M3348.477,259.804c-2.855,0-5.168-2.311-5.168-5.163c0-2.852,2.312-5.171,5.168-5.171     c2.852,0,5.161,2.319,5.161,5.171C3353.638,257.493,3351.328,259.804,3348.477,259.804z"
   id="path106" />
			<path
   fill="#855E97"
   d="M3224.854,449.777c-2.86,0-5.173-2.313-5.173-5.163c0-2.853,2.312-5.172,5.173-5.172     c2.848,0,5.156,2.319,5.156,5.172C3230.01,447.464,3227.701,449.777,3224.854,449.777z"
   id="path108" />
			<path
   fill="#855E97"
   d="M3289.19,358.173c-2.861,0-5.17-2.313-5.17-5.166c0-2.85,2.309-5.166,5.17-5.166     c2.85,0,5.158,2.316,5.158,5.166C3294.349,355.859,3292.04,358.173,3289.19,358.173z"
   id="path110" />
			<path
   fill="#855E97"
   d="M3158.413,692.997c-2.86,0-5.172-2.312-5.172-5.166c0-2.849,2.312-5.166,5.172-5.166     c2.849,0,5.16,2.317,5.16,5.166C3163.573,690.685,3161.262,692.997,3158.413,692.997z"
   id="path112" />
			<path
   fill="#855E97"
   d="M2047.904,588.363c-2.858,0-5.169-2.314-5.169-5.168c0-2.85,2.311-5.167,5.169-5.167     c2.848,0,5.162,2.317,5.162,5.167C2053.066,586.049,2050.752,588.363,2047.904,588.363z"
   id="path114" />
			<path
   fill="#855E97"
   d="M777.676,478.638c-2.858,0-5.17-2.314-5.17-5.166c0-2.85,2.312-5.168,5.17-5.168     c2.848,0,5.162,2.318,5.162,5.168C782.838,476.323,780.523,478.638,777.676,478.638z"
   id="path116" />
			<path
   fill="#855E97"
   d="M290.274,731.278c-2.859,0-5.17-2.313-5.17-5.165c0-2.85,2.311-5.17,5.17-5.17     c2.848,0,5.16,2.32,5.16,5.17C295.435,728.965,293.122,731.278,290.274,731.278z"
   id="path118" />
			<path
   fill="#855E97"
   d="M2914.153,344.503c-2.86,0-5.173-2.312-5.173-5.165c0-2.85,2.312-5.168,5.173-5.168     c2.85,0,5.157,2.318,5.157,5.168C2919.311,342.19,2917.003,344.503,2914.153,344.503z"
   id="path120" />
			<path
   fill="#855E97"
   d="M1032.386,471.413c-2.862,0-5.175-2.312-5.175-5.167c0-2.85,2.312-5.165,5.175-5.165     c2.847,0,5.158,2.315,5.158,5.165C1037.544,469.102,1035.232,471.413,1032.386,471.413z"
   id="path122" />
		</g>
		<path
   fill="#855E97"
   d="M1503.44,357.05c0.077,3.134,5.594,13.405,5.594,13.405s5.454-10.269,5.53-13.405    c3.146-0.089,13.396-5.528,13.396-5.528s-10.251-5.505-13.396-5.595c-0.091-3.19-5.53-13.396-5.53-13.396    s-5.505,10.207-5.591,13.396c-3.219,0.118-13.372,5.594-13.372,5.594S1500.222,356.934,1503.44,357.05z"
   id="path126" />
		<path
   fill="#855E97"
   d="M3111.44,558.05c0.077,3.134,5.594,13.405,5.594,13.405s5.454-10.269,5.53-13.405    c3.146-0.089,13.396-5.528,13.396-5.528s-10.251-5.505-13.396-5.595c-0.091-3.19-5.53-13.396-5.53-13.396    s-5.505,10.207-5.591,13.396c-3.219,0.118-13.372,5.594-13.372,5.594S3108.222,557.934,3111.44,558.05z"
   id="path128" />
		<path
   fill="#855E97"
   d="M3517.44,91.05c0.077,3.134,5.594,13.405,5.594,13.405s5.454-10.269,5.53-13.405    c3.146-0.089,13.396-5.528,13.396-5.528s-10.251-5.505-13.396-5.595c-0.091-3.19-5.53-13.396-5.53-13.396    s-5.505,10.207-5.591,13.396c-3.219,0.118-13.372,5.594-13.372,5.594S3514.222,90.934,3517.44,91.05z"
   id="path130" />
		<path
   fill="#855E97"
   d="M389.734,576.924c0.079,3.131,5.596,13.405,5.596,13.405s5.45-10.27,5.53-13.405    c3.144-0.09,13.393-5.528,13.393-5.528s-10.249-5.504-13.393-5.596c-0.09-3.189-5.53-13.396-5.53-13.396    s-5.507,10.209-5.592,13.398c-3.22,0.117-13.375,5.594-13.375,5.594S386.518,576.807,389.734,576.924z"
   id="path132" />
		<path
   fill="#855E97"
   d="M19.677,479.63c0.082,3.132,5.598,13.405,5.598,13.405s5.45-10.271,5.53-13.405    c3.145-0.09,13.396-5.528,13.396-5.528s-10.252-5.505-13.396-5.596c-0.091-3.189-5.53-13.396-5.53-13.396    s-5.505,10.207-5.595,13.396c-3.216,0.116-13.369,5.595-13.369,5.595S16.461,479.513,19.677,479.63z"
   id="path134" />
		<path
   fill="#855E97"
   d="M938.839,447.944c0.079,3.134,5.598,13.406,5.598,13.406s5.45-10.271,5.529-13.406    c3.144-0.089,13.396-5.527,13.396-5.527s-10.252-5.505-13.396-5.596c-0.09-3.189-5.529-13.394-5.529-13.394    s-5.507,10.206-5.596,13.396c-3.216,0.117-13.372,5.594-13.372,5.594S935.622,447.828,938.839,447.944z"
   id="path136" />
		<path
   fill="#855E97"
   d="M1839.848,169.114c0.078,3.132,5.594,13.406,5.594,13.406s5.452-10.27,5.529-13.406    c3.146-0.091,13.397-5.528,13.397-5.528s-10.252-5.503-13.397-5.596c-0.088-3.188-5.529-13.396-5.529-13.396    s-5.506,10.208-5.59,13.397c-3.22,0.116-13.373,5.594-13.373,5.594S1836.632,168.998,1839.848,169.114z"
   id="path138" />
		<path
   fill="#855E97"
   d="M2629.813,182.662c0.079,3.133,5.594,13.405,5.594,13.405s5.452-10.269,5.531-13.405    c3.144-0.089,13.394-5.527,13.394-5.527s-10.25-5.505-13.394-5.596c-0.093-3.189-5.531-13.396-5.531-13.396    s-5.507,10.208-5.59,13.397c-3.222,0.116-13.375,5.594-13.375,5.594S2626.595,182.545,2629.813,182.662z"
   id="path140" />
	</g>
	<path
   fill="#8F68A1"
   d="M3131.957,871.318h184.414c6.285,0,11.379-5.095,11.379-11.378v-0.119c0-6.284-5.094-11.379-11.379-11.379   h-28.119c-1.912-6.406-7.846-11.079-14.873-11.079c-2.21,0-4.309,0.465-6.212,1.296c-2.258-11.568-13.456-20.361-26.938-20.361   c-7.971,0-15.145,3.074-20.145,7.977c-4.121-10.355-13.455-17.588-24.318-17.588c-9.598,0-18.005,5.643-22.675,14.099   c-2.493-1.595-5.454-2.522-8.634-2.522c-4.389,0-8.363,1.764-11.262,4.617c-5.344-7.484-14.096-12.37-23.992-12.37   c-16.273,0-29.467,13.192-29.467,29.466c0,2.223,0.254,4.385,0.721,6.467h-20.934c-6.283,0-11.378,5.095-11.378,11.379v0.119   c0,6.283,5.095,11.378,11.378,11.378h47.215"
   id="path143" />
	<polygon
   fill="none"
   points="370.292,991.812 370.297,991.809 370.284,991.809  "
   id="polygon145" />
	<path
   fill="none"
   d="M373.381,990.006c-0.311,0.01-0.561,0.017-0.771,0.023C372.816,990.023,373.081,990.015,373.381,990.006z"
   id="path147" />
	<path
   fill="none"
   d="M654.482,698.43c-0.159-0.204-0.258-0.38-0.306-0.478C654.225,698.05,654.322,698.225,654.482,698.43z"
   id="path149" />
	<path
   fill="none"
   d="M644.729,687.702c0.048-0.016,0.104-0.04,0.135-0.034c-0.009-0.002-0.019-0.003-0.029-0.003   C644.809,687.665,644.763,687.691,644.729,687.702z"
   id="path151" />
	<path
   fill="none"
   d="M374.924,989.958c-0.38,0.012-0.714,0.022-1.023,0.032C374.208,989.98,374.548,989.97,374.924,989.958z"
   id="path153" />
	<path
   fill="none"
   d="M567.591,1009.43c0.015,0,0.033,0,0.049-0.001c-0.04,0.001-0.073-0.001-0.11-0.001   C567.553,1009.428,567.566,1009.43,567.591,1009.43z"
   id="path155" />
	<path
   fill="none"
   d="M654.482,698.43c-0.159-0.204-0.258-0.38-0.306-0.478C654.225,698.05,654.322,698.225,654.482,698.43z"
   id="path157" />
	<path
   fill="none"
   d="M644.729,687.702c0.048-0.016,0.104-0.04,0.135-0.034c-0.009-0.002-0.019-0.003-0.029-0.003   C644.809,687.665,644.763,687.691,644.729,687.702z"
   id="path159" />
	<g
   id="g199">
		<g
   id="g167">
			<path
   fill="#45314E"
   d="M1311.753,976.602c-3.486-4.699-85.53-115.27-98.417-131.839c-4.187-5.384-13.363-14.794-28.055-28.771     c-20.127-19.15-44.244-40.775-51.156-46.946l-1.433-1.274c-1.323-1.178-2.986-1.77-4.652-1.77c-1.555,0-3.111,0.516-4.397,1.555     l-43.082,34.798c-15.589-17.209-66.697-73.401-79.621-84.709c-3.221-2.817-7.416-10.86-11.857-19.376     c-3.622-6.943-7.727-14.812-12.619-22.565c-20.543-32.555-72.834-92.165-75.051-94.688c-1.328-1.512-3.244-2.379-5.258-2.379     c-4.525,0-10.085,2.249-36.48,30.541c-15.211,16.305-33.138,36.792-47.541,53.255c-8.284,9.469-15.439,17.646-20.339,23.043     c-4.216,4.648-5.39,5.704-5.619,5.896c-0.159,0.118-0.31,0.227-0.451,0.325c-2.515-4.167-6.855-9.602-12.488-10.728     c-0.428-0.085-0.892,0.029-1.327,0.029c-0.023,0-0.047,0-0.07,0c-0.002,0-0.004,0-0.005,0c-3.627,0-5.847,2.107-10.519,7.25     c-3.001,3.303-7.192,8.064-12.457,14.314c-49.696,58.992-179.889,224.465-199.993,256.943     c-6.421,10.372-11.078,18.084-13.845,22.965c-3.249,5.734-5.039,8.881-2.897,12.725c1.245,2.235,3.609,3.619,6.17,3.619     c2.049,0,3.623-0.831,4.841-1.858c16.171-0.494,94.099-2.839,115-2.839c2.369,0,3.449,0.029,3.915,0.05     c3.307,0.951,20.749,6.444,34.904,10.905c14.411,4.541,29.312,9.234,34.246,10.711c0.388,0.115,0.782,0.197,1.178,0.244     c0.332,0.074,0.603,0.125,0.791,0.16l0.06,0.011c0.709,0.16,1.441,0.229,2.364,0.229c4.664,0,20.303-2.03,43.629-5.127     c13.303-1.768,29.603-3.932,34.356-4.26c0.546,0.137,1.111,0.208,1.687,0.209l7.943,0.018     c22.169,0.053,89.631,0.213,157.114,0.213c12.952,0,25.942-0.006,38.688-0.02c85.454-0.087,130.731-0.469,138.421-1.168     c20.307-1.848,144.331-17.898,149.601-18.58c2.463-0.319,4.572-1.919,5.544-4.205     C1313.545,981.225,1313.232,978.596,1311.753,976.602z M538.292,991.812c-0.003,0-0.005-0.003-0.008-0.003     c0.004,0.001,0.009,0.001,0.013,0C538.296,991.809,538.293,991.812,538.292,991.812z M540.61,990.029     c0.21-0.007,0.46-0.014,0.771-0.023C541.081,990.015,540.816,990.023,540.61,990.029z M541.9,989.99     c0.31-0.01,0.644-0.021,1.023-0.032C542.548,989.97,542.208,989.98,541.9,989.99z M735.591,1009.43     c-0.024,0-0.038-0.002-0.062-0.002c0.037,0,0.07,0.002,0.11,0.001C735.624,1009.43,735.605,1009.43,735.591,1009.43z      M771.729,687.702c0.034-0.011,0.08-0.037,0.105-0.037c0.011,0,0.021,0.001,0.029,0.003     C771.832,687.662,771.776,687.687,771.729,687.702z M781.177,697.952c0.048,0.098,0.146,0.273,0.306,0.478     C781.322,698.225,781.225,698.05,781.177,697.952z"
   id="path161" />
			<path
   fill="#37273F"
   d="M966.047,1011.02c0,0-83.191-87.254-89.446-92.258c-5.349-4.281-12.983-12.654-19.386-14.211     c-1.086-0.267-2.138-0.357-3.133-0.176c-5.288,0.961-16.485,10.789-21.383,15.285c-5.312-5.328-8.988-8.9-10.318-9.965     c-7.959-6.371-19.323-18.833-28.852-21.148c-1.616-0.398-3.182-0.533-4.663-0.262c-10.238,1.86-35.372,26.062-35.372,26.062     s-0.142-0.136-0.394-0.377c-7.264-6.961-114.92-110.078-124.29-113.168c-0.018-0.008-0.045-0.021-0.062-0.027     c-9.31-2.791-21.412,2.795-26.999,9.311c-5.585,6.515-129.401,149.877-136.846,160.119c-7.448,10.241-69.82,79.129-69.82,79.129     l391.877-1.627l168.543-0.702c0,0-14.635-15.351-34.221-35.798L966.047,1011.02z"
   id="path163" />
			<path
   fill="#37273F"
   d="M1414.964,980.772c-4.944-6.803-87.189-102.03-90.899-106.358c-3.711-4.328-11.75-8.038-17.934-6.184     c-0.011,0.004-0.029,0.013-0.041,0.018c-6.224,2.053-77.734,70.547-82.559,75.172c-0.168,0.16-0.262,0.25-0.262,0.25     s-16.695-16.076-23.496-17.312c-0.984-0.18-2.023-0.09-3.098,0.174c-6.329,1.538-13.877,9.816-19.164,14.049     c-6.184,4.946-88.427,91.207-88.427,91.207l111.954,0.466l260.303,1.081C1461.342,1033.334,1419.911,987.575,1414.964,980.772z"
   id="path165" />
		</g>
		<g
   id="g177">
			<circle
   fill="#8F68A1"
   cx="1051.393"
   cy="729.062"
   r="27.385"
   id="circle169" />
			<circle
   fill="#8F68A1"
   cx="1045.402"
   cy="681.58"
   r="44.501"
   id="circle171" />
			<circle
   fill="#8F68A1"
   cx="1000.901"
   cy="655.465"
   r="27.385"
   id="circle173" />
			<circle
   fill="#8F68A1"
   cx="1091.615"
   cy="715.37"
   r="27.385"
   id="circle175" />
		</g>
		<g
   id="g193">
			<circle
   fill="#8F68A1"
   cx="887.938"
   cy="752.169"
   r="44.501"
   id="circle179" />
			<circle
   fill="#8F68A1"
   cx="712.501"
   cy="705.101"
   r="44.501"
   id="circle181" />
			<circle
   fill="#8F68A1"
   cx="748.872"
   cy="756.876"
   r="32.092"
   id="circle183" />
			<circle
   fill="#8F68A1"
   cx="935.862"
   cy="735.053"
   r="27.385"
   id="circle185" />
			<circle
   fill="#8F68A1"
   cx="757.858"
   cy="658.032"
   r="27.385"
   id="circle187" />
			<circle
   fill="#8F68A1"
   cx="726.194"
   cy="675.148"
   r="27.385"
   id="circle189" />
			<path
   fill="#8F68A1"
   d="M772.406,778h191.696c14.652,0,26.529-11.848,26.529-26.5l0,0c0-14.652-11.877-26.5-26.529-26.5H772.406     l0,0c-8.035,0-15.404-7.478-15.404-15.513l0,0c0-8.034,7.155-15.231,15.19-15.231L771.551,694h267.005     c14.652,0,26.53-11.848,26.53-26.5l0,0c0-14.652-11.878-26.5-26.53-26.5H771.551l-34.232,29.911l-20.538,30.788     c0,0,3.423,27.452,6.846,30.02S772.406,778,772.406,778z"
   id="path191" />
		</g>
		<path
   fill="#45314E"
   d="M989.082,698.27c-3.622-6.943-7.727-14.812-12.619-22.565c-20.543-32.555-72.834-92.165-75.051-94.688    c-1.328-1.512-3.244-2.379-5.258-2.379c-4.525,0-10.085,2.249-36.48,30.541c-15.211,16.305-33.138,36.792-47.541,53.255    c-8.284,9.469-15.439,17.646-20.339,23.043c-4.216,4.648-5.39,5.704-5.619,5.896c-0.159,0.118-0.31,0.227-0.451,0.325    c-2.515-4.167-6.855-9.602-12.488-10.728c-0.428-0.085-0.892,0.029-1.327,0.029c-0.023,0-0.047,0-0.07,0c-0.002,0-0.004,0-0.005,0    c-3.627,0-5.847,2.107-10.519,7.25c-3.001,3.303-7.192,8.064-12.457,14.314c-0.118,0.141-0.246,0.294-0.365,0.436h243.069    C990.747,701.461,989.919,699.875,989.082,698.27z M771.729,687.702c0.034-0.011,0.08-0.037,0.105-0.037    c0.011,0,0.021,0.001,0.029,0.003C771.832,687.662,771.776,687.687,771.729,687.702z M781.177,697.952    c0.048,0.098,0.146,0.273,0.306,0.478C781.322,698.225,781.225,698.05,781.177,697.952z"
   id="path195" />
		<path
   fill="#8F68A1"
   d="M1018,807.5c0,6.352-5.148,11.5-11.5,11.5h-22c-6.352,0-11.5-5.148-11.5-11.5l0,0    c0-6.352,5.148-11.5,11.5-11.5h22C1012.852,796,1018,801.148,1018,807.5L1018,807.5z"
   id="path197" />
	</g>
	<path
   fill="#211826"
   d="M3758.59,979c-90.586-9.447-196.257-27.201-228.421-35.772c-33.404-8.902-218.787,20.167-312.294,35.772   h-228.281c-88.607-6.159-250.752-16.756-296.946-18.114c-28.61-0.841-96.374,9.162-150.396,18.114h-446.986h-38.94   c-49.484-3.234-108.222-12.096-135.104-26.112c-28.775-15.003-115.287-16.728-143.29-16.887c-2.937-0.79-5.581-1.501-7.883-2.114   c-33.405-8.902-227.733,29.508-321.24,45.113h-228.281c-88.608-6.159-250.752-16.756-296.947-18.114   c-28.61-0.841-96.374,9.162-150.396,18.114H287.256c-49.484-3.234-108.222-12.096-135.104-26.112C117.632,934.889,0,936,0,936v43   v140h1769.067h326.197H3864V979H3758.59z"
   id="path201" />
	<g
   id="g227">
		<polygon
   fill="#211826"
   points="16.699,940 44.191,823 71.684,940   "
   id="polygon203" />
		<polygon
   fill="#211826"
   points="62.699,966 93.191,849 123.684,966   "
   id="polygon205" />
		<polygon
   fill="#211826"
   points="349.699,1000 377.191,883 404.684,1000   "
   id="polygon207" />
		<polygon
   fill="#211826"
   points="3052.699,1012 3080.191,895 3107.684,1012   "
   id="polygon209" />
		<polygon
   fill="#211826"
   points="3502.699,973 3530.191,856 3557.684,973   "
   id="polygon211" />
		<polygon
   fill="#211826"
   points="3553.699,991 3581.191,874 3608.684,991   "
   id="polygon213" />
		<polygon
   fill="#211826"
   points="1534.699,980 1562.191,863 1589.684,980   "
   id="polygon215" />
		<polygon
   fill="#211826"
   points="1580.699,1006 1611.191,889 1641.684,1006   "
   id="polygon217" />
		<polygon
   fill="#211826"
   points="1494.699,1016 1525.191,899 1555.684,1016   "
   id="polygon219" />
		<polygon
   fill="#211826"
   points="2770.699,977 2798.191,860 2825.684,977   "
   id="polygon221" />
		<polygon
   fill="#211826"
   points="2816.699,1003 2847.191,886 2877.684,1003   "
   id="polygon223" />
		<polygon
   fill="#211826"
   points="2730.699,1013 2761.191,896 2791.684,1013   "
   id="polygon225" />
	</g>
	<path
   fill="#8F68A1"
   d="M1619.73,669.443h-14.262c-0.133-9.438-7.821-17.048-17.29-17.048c-4.39,0-8.395,1.638-11.444,4.333   c-2.99-14.242-16.868-25.015-33.54-25.015c-2.496,0-4.928,0.243-7.271,0.702c-3.173-3.768-7.923-6.164-13.233-6.164   c-2.646,0-5.154,0.596-7.396,1.658c-5.946-9.856-16.076-16.348-27.574-16.348c-13.263,0-24.705,8.637-30.007,21.115   c-1.017-0.16-2.059-0.244-3.121-0.244c-2.939,0-5.729,0.639-8.244,1.777c-6.487-5.746-15.019-9.236-24.366-9.236   c-20.305,0-36.766,16.459-36.766,36.764c0,2.643,0.281,5.221,0.812,7.705h-46.21c-7.969,0-14.429,6.461-14.429,14.429v0.188   c0,7.969,6.46,14.428,14.429,14.428h81.143c0.34,0.01,0.68,0.015,1.021,0.015c0.341,0,0.681-0.005,1.021-0.015h196.729   c7.968,0,14.428-6.459,14.428-14.428v-0.188C1634.158,675.904,1627.698,669.443,1619.73,669.443z"
   id="path229" />
	<path
   fill="#8F68A1"
   d="M2752.957,669.443h14.262c0.133-9.438,7.821-17.048,17.29-17.048c4.39,0,8.395,1.638,11.444,4.333   c2.99-14.242,16.868-25.015,33.54-25.015c2.496,0,4.928,0.243,7.271,0.702c3.173-3.768,7.923-6.164,13.233-6.164   c2.646,0,5.154,0.596,7.396,1.658c5.946-9.856,16.076-16.348,27.574-16.348c13.263,0,24.705,8.637,30.007,21.115   c1.017-0.16,2.059-0.244,3.121-0.244c2.939,0,5.729,0.639,8.244,1.777c6.487-5.746,15.019-9.236,24.366-9.236   c20.305,0,36.766,16.459,36.766,36.764c0,2.643-0.281,5.221-0.812,7.705h46.21c7.969,0,14.429,6.461,14.429,14.429v0.188   c0,7.969-6.46,14.428-14.429,14.428h-81.143c-0.34,0.01-0.68,0.015-1.021,0.015c-0.341,0-0.681-0.005-1.021-0.015h-196.729   c-7.968,0-14.428-6.459-14.428-14.428v-0.188C2738.529,675.904,2744.989,669.443,2752.957,669.443z"
   id="path231" />
	<path
   fill="#8F68A1"
   d="M326.505,714H312c0,0,0,0.688,0,0.676c0-9.592-7.75-17.368-17.342-17.368   c-4.408,0-8.418,1.646-11.479,4.351c-3.004-14.301-16.934-25.118-33.674-25.118c-2.507,0-4.944,0.245-7.298,0.705   c-3.187-3.783-7.955-6.189-13.287-6.189c-8.062,0-14.839,5.494-16.797,12.941c-5.255-3.848-11.55-6.09-18.318-6.09   c-10.949,0-20.659,5.863-26.727,14.91c-2.616-1.089-5.485-1.692-8.495-1.692c-10.252,0-18.871,6.973-21.385,16.434   c-3.188-3.422-7.731-5.922-12.778-5.922c-8.001,0-14.74,6.363-16.81,12.363H75.57C67.569,714,61,721.2,61,729.202v0.188   C61,737.393,67.569,744,75.57,744h250.935c8.001,0,14.495-6.607,14.495-14.609v-0.188C341,721.2,334.506,714,326.505,714z"
   id="path233" />
	
</g>
</svg>