<?xml version="1.0" encoding="UTF-8" standalone="no"?>
<svg
   xmlns:dc="http://purl.org/dc/elements/1.1/"
   xmlns:cc="http://creativecommons.org/ns#"
   xmlns:rdf="http://www.w3.org/1999/02/22-rdf-syntax-ns#"
   xmlns:svg="http://www.w3.org/2000/svg"
   xmlns="http://www.w3.org/2000/svg"
   version="1.1"
   id="svg2"
   viewBox="0 0 197.383 247.89152"
   height="69.960495mm"
   width="55.705868mm">
  <defs
     id="defs4" />
  <metadata
     id="metadata7">
    <rdf:RDF>
      <cc:Work
         rdf:about="">
        <dc:format>image/svg+xml</dc:format>
        <dc:type
           rdf:resource="http://purl.org/dc/dcmitype/StillImage" />
        <dc:title></dc:title>
      </cc:Work>
    </rdf:RDF>
  </metadata>
  <g
     transform="translate(-243.63642,-252.22213)"
     id="layer1">
    <g
       transform="translate(-232.5,-59.693461)"
       id="g4347">
      <g
         transform="translate(148.49242,-19.192898)"
         id="XMLID_19_">
        <path
           style="fill:#f7ae1c"
           id="XMLID_23_"
           d="m 377.37,341.481 c -8.142,-5.497 -23.302,-14.454 -27.733,-8.291 -2.834,3.941 -0.994,6.343 1.173,7.691 -0.53,-0.203 -1.104,-0.319 -1.707,-0.319 -2.64,0 -4.778,2.141 -4.778,4.781 0,1.406 0.611,2.667 1.578,3.541 -6.262,11.263 2.799,22.036 2.799,22.036 l 33.938,-25.686 c 0,0.001 -2.04,-1.842 -5.27,-3.753 z m -25.062,0.173 c -0.029,0.022 -0.059,0.047 -0.088,0.069 -0.104,-0.09 -0.212,-0.173 -0.322,-0.253 0.137,0.067 0.276,0.128 0.41,0.184 z" />
        <path
           style="fill:#f7ae1c"
           id="XMLID_20_"
           d="m 469.687,345.987 33.941,25.684 c 0,0 9.058,-10.772 2.798,-22.033 0.968,-0.876 1.579,-2.138 1.579,-3.544 0,-2.64 -2.14,-4.779 -4.78,-4.779 -0.602,0 -1.176,0.115 -1.705,0.319 2.167,-1.35 4.007,-3.751 1.172,-7.692 -4.432,-6.162 -19.591,2.794 -27.734,8.292 -3.229,1.91 -5.271,3.753 -5.271,3.753 z m 30.744,-3.764 c -0.11,0.08 -0.218,0.163 -0.322,0.254 -0.03,-0.024 -0.06,-0.047 -0.089,-0.07 0.135,-0.057 0.272,-0.12 0.411,-0.184 z" />
      </g>
      <path
         style="fill:#5cc3a9"
         id="XMLID_18_"
         d="m 576.05742,555.1191 c -61.064,0 -99.921,-76.824 -99.921,-124.752 0,-47.929 20.776,-78.887 20.776,-78.887 l 33.94,-25.015 c 15.152,2.762 30.071,4.341 43.217,4.341 l 1.515,0 c 13.146,0 28.064,-1.579 43.217,-4.341 l 33.94,25.351 c 0,0 20.778,30.789 20.778,78.719 0,47.928 -38.857,124.67 -99.922,124.67" />
      <g
         transform="translate(148.49242,-19.192898)"
         id="XMLID_16_">
        <ellipse
           style="fill:#f7ae1c"
           id="XMLID_17_"
           cx="426.043"
           cy="435.80099"
           rx="74.301003"
           ry="67.191002" />
      </g>
      <path
         style="fill:#0a1938"
         d="m 654.86042,438.7601 c 0.228,-2.132 -0.459,-5.123 -2.814,-9.168 -1.094,-1.877 -2.333,-3.666 -3.698,-5.367 0.312,-2.501 0.488,-5.04 0.488,-7.617 0,-7.563 -1.399,-14.827 -3.952,-21.609 -2.44,5.641 -3.745,17.592 -12.087,23.773 -6.85,5.077 -19.305,9.161 -34.305,4.89 l 0,-0.012 c -4,-1.046 -7.447,-3.051 -10.232,-5.705 -4.391,0.561 -9.006,0.862 -13.632,0.862 -4.376,0 -8.839,-0.269 -13.007,-0.771 -2.768,2.609 -6.129,4.581 -10.129,5.615 l 0,0.012 c -15,4.271 -27.508,0.187 -34.358,-4.89 -8.825,-6.541 -9.916,-19.542 -12.642,-24.692 -2.779,7.044 -4.291,14.619 -4.291,22.527 0,2.232 0.143,4.437 0.378,6.612 -1.333,1.658 -2.529,3.402 -3.592,5.227 -2.357,4.045 -3.023,7.035 -2.795,9.168 -0.032,0.255 -0.043,0.513 -0.043,0.778 0,3.421 2.776,6.194 6.194,6.194 1.094,0 2.117,-0.286 3.005,-0.78 -1.159,1.479 -1.855,3.339 -1.855,5.365 0,4.812 3.902,8.713 8.715,8.713 1.689,0 3.26,-0.488 4.595,-1.318 0.048,0.059 0.093,0.12 0.141,0.179 -0.662,0.985 -1.065,2.157 -1.065,3.434 0,3.419 2.772,6.191 6.191,6.191 1.239,0 2.391,-0.367 3.358,-0.993 0.003,0.003 0.006,0.006 0.01,0.008 -0.245,0.665 -0.386,1.382 -0.386,2.133 0,3.419 2.773,6.192 6.191,6.192 1.308,0 2.518,-0.408 3.518,-1.1 -0.045,0.361 -0.077,0.727 -0.077,1.1 0,4.812 3.901,8.713 8.715,8.713 1.97,0 3.784,-0.662 5.244,-1.768 -0.125,0.494 -0.2,1.007 -0.2,1.54 0,3.418 2.771,6.19 6.191,6.19 2.118,0 3.988,-1.065 5.104,-2.689 0.487,4.352 4.175,7.734 8.657,7.734 3.523,0 6.552,-2.096 7.926,-5.108 1.062,3.614 4.397,6.257 8.356,6.257 4.48,0 8.168,-3.385 8.654,-7.735 1.117,1.624 2.986,2.689 5.104,2.689 3.421,0 6.193,-2.773 6.193,-6.192 0,-0.531 -0.074,-1.045 -0.201,-1.536 1.461,1.103 3.273,1.766 5.245,1.766 4.812,0 8.716,-3.901 8.716,-8.715 0,-0.372 -0.032,-0.737 -0.078,-1.098 1,0.691 2.209,1.098 3.518,1.098 3.42,0 6.191,-2.772 6.191,-6.192 0,-0.756 -0.144,-1.479 -0.391,-2.148 0.97,0.633 2.127,1.003 3.371,1.003 3.421,0 6.192,-2.772 6.192,-6.192 0,-1.498 -0.531,-2.87 -1.417,-3.941 1.433,1.033 3.186,1.649 5.086,1.649 4.812,0 8.714,-3.903 8.714,-8.714 0,-2.028 -0.697,-3.887 -1.856,-5.368 0.89,0.496 1.913,0.78 3.005,0.78 3.419,0 6.19,-2.772 6.19,-6.191 10e-4,-0.267 -0.023,-0.527 -0.053,-0.783 z m -138.194,16.25 c 0.205,-0.227 0.399,-0.465 0.58,-0.712 l 0.275,0.243 c -0.298,0.135 -0.584,0.29 -0.855,0.469 z m 9.206,7.318 c 0.039,-0.106 0.082,-0.212 0.117,-0.322 l 0.169,0.149 c -0.098,0.054 -0.193,0.113 -0.286,0.173 z m 97.23,1.089 0.057,-0.052 c 0.014,0.037 0.027,0.073 0.04,0.109 -0.031,-0.019 -0.064,-0.037 -0.097,-0.057 z m 8.583,-7.665 0.223,-0.198 c 0.156,0.209 0.322,0.41 0.498,0.604 -0.229,-0.152 -0.471,-0.286 -0.721,-0.406 z"
         id="path4159" />
      <path
         style="fill:none"
         d="m 516.66642,455.0101 c 0.271,-0.179 0.558,-0.334 0.855,-0.469 l -0.275,-0.243 c -0.181,0.247 -0.375,0.486 -0.58,0.712 z"
         id="path4161" />
      <path
         style="fill:none"
         d="m 525.87242,462.3281 c 0.093,-0.06 0.188,-0.118 0.286,-0.173 l -0.169,-0.149 c -0.035,0.11 -0.078,0.215 -0.117,0.322 z"
         id="path4163" />
      <path
         style="fill:none"
         d="m 623.10242,463.4171 c 0.032,0.02 0.065,0.038 0.097,0.058 -0.013,-0.036 -0.026,-0.072 -0.04,-0.109 l -0.057,0.051 z"
         id="path4165" />
      <path
         style="fill:none"
         d="m 631.68542,455.7521 c 0.25,0.12 0.491,0.254 0.721,0.406 -0.176,-0.194 -0.342,-0.396 -0.498,-0.604 l -0.223,0.198 z"
         id="path4167" />
      <path
         style="fill:#ffdfae"
         d="m 511.93142,393.5881 c 0.051,0.484 0.108,1.036 0.175,1.621 0.001,0.001 0.002,0.002 0.003,0.003 -0.068,-0.586 -0.127,-1.139 -0.178,-1.624 z"
         id="path4169" />
      <path
         style="fill:#ffdfae"
         d="m 585.97242,404.3191 c 0.12,0.596 0.27,1.183 0.453,1.758 l 0,0 c -0.183,-0.576 -0.329,-1.164 -0.453,-1.758 z"
         id="path4171" />
      <path
         style="fill:#ffdfae"
         d="m 585.97242,404.3191 c -0.039,-0.196 -0.081,-0.391 -0.113,-0.588 0.033,0.197 0.073,0.392 0.113,0.588 z"
         id="path4173" />
      <path
         style="fill:#ffdfae"
         d="m 585.85942,403.7301 c -0.037,-0.221 -0.068,-0.444 -0.096,-0.667 0.027,0.224 0.06,0.446 0.096,0.667 z"
         id="path4175" />
      <path
         style="fill:#ffdfae"
         d="m 549.49242,418.7851 c -3.729,1.079 -7.39,1.5 -10.712,1.447 3.356,0.06 6.712,-0.361 10.712,-1.447 l 0,-0.01 c 1,-0.194 1.502,-0.44 2.191,-0.709 -0.734,0.272 -1.403,0.513 -2.191,0.709 l 0,0.01 z"
         id="path4177" />
      <path
         style="fill:#ffdfae"
         d="m 560.71542,411.3471 c -1.686,2.242 -3.882,4.133 -6.39,5.525 0.021,0.004 0.042,0.009 0.064,0.013 2.572,-1.395 4.707,-3.29 6.326,-5.538 z"
         id="path4179" />
      <path
         style="fill:#ffdfae"
         d="m 551.77142,418.0651 c 0.916,-0.339 1.791,-0.732 2.619,-1.18 -0.021,-0.004 -0.042,-0.009 -0.064,-0.013 -0.821,0.455 -1.676,0.85 -2.555,1.193 z"
         id="path4181" />
      <g
         transform="translate(148.49242,-19.192898)"
         id="XMLID_9_">
        <g
           id="XMLID_13_">
          <circle
             style="fill:#0a1938"
             id="XMLID_15_"
             cx="392.56201"
             cy="419.60999"
             r="12.129" />
          <circle
             style="fill:#f9f7e4"
             id="XMLID_14_"
             cx="388.242"
             cy="415.28799"
             r="3.2219999" />
        </g>
        <g
           id="XMLID_10_">
          <circle
             style="fill:#0a1938"
             id="XMLID_12_"
             cx="459.52499"
             cy="419.60999"
             r="12.129" />
          <circle
             style="fill:#f9f7e4"
             id="XMLID_11_"
             cx="455.20401"
             cy="415.28799"
             r="3.2219999" />
        </g>
      </g>
      <g
         transform="translate(148.49242,-19.192898)"
         id="XMLID_5_">
        <g
           id="XMLID_6_">
          <path
             style="fill:#f9f7e4"
             id="XMLID_8_"
             d="m 424.839,445.5 0,7.306 c 0,2.522 -2.064,4.587 -4.586,4.587 l -2.963,0 c -2.522,0 -4.586,-2.064 -4.586,-4.587 l 0,-4.782" />
          <path
             style="fill:#f9f7e4"
             id="XMLID_7_"
             d="m 438.96,448.023 0,4.782 c 0,2.522 -2.065,4.587 -4.587,4.587 l -2.962,0 c -2.524,0 -4.587,-2.064 -4.587,-4.587 l 0,-7.305" />
        </g>
      </g>
      <path
         style="fill:#006874"
         d="m 610.40842,427.6921 c -6.144,-7.401 -16.049,-12.386 -27.413,-14.017 0.037,-0.183 0.06,-0.368 0.06,-0.556 0,-2.692 -3.834,-4.875 -8.562,-4.875 -4.729,0 -8.562,2.183 -8.562,4.875 0,0.218 0.034,0.431 0.083,0.642 -11.145,1.708 -20.844,6.644 -26.896,13.931 -2.768,3.335 -2.307,8.283 1.026,11.051 3.335,2.768 8.282,2.309 11.052,-1.025 4.503,-5.427 13.757,-8.932 23.57,-8.932 9.813,0 19.064,3.505 23.57,8.932 1.552,1.87 3.788,2.836 6.039,2.836 1.769,0 3.545,-0.595 5.011,-1.811 3.332,-2.768 3.791,-7.716 1.022,-11.051 z"
         id="path4194" />
      <g
         transform="translate(148.49242,-19.192898)"
         id="g4196">
        <g
           style="opacity:0.4"
           id="g4198">
          <polyline
             style="fill:none;stroke:#ffffff;stroke-width:2;stroke-miterlimit:10"
             stroke-miterlimit="10"
             points="455.5,398.5 470.5,419 469.5,442.5   "
             id="polyline4200" />
          <line
             style="fill:none;stroke:#ffffff;stroke-width:2;stroke-miterlimit:10"
             stroke-miterlimit="10"
             x1="488.5"
             y1="416"
             x2="470.5"
             y2="419"
             id="line4202" />
        </g>
        <g
           id="g4204">
          <path
             style="fill:#fbf0b0"
             d="m 437.155,421.875 c -1.121,-1.064 -2.762,-1.965 -5.083,-2.461 C 430.84,419.151 429.419,419 427.787,419 l -3.487,0 c -1.297,0 -2.446,0.104 -3.488,0.274 -2.211,0.361 -3.874,1.061 -5.085,1.938 0.014,1.749 -0.253,3.438 -0.763,5.043 l 5.201,0.003 12.564,0.008 5.205,0.003 c -0.449,-1.406 -0.729,-2.873 -0.779,-4.394 z"
             id="path4206" />
        </g>
        <g
           id="g4208">
          <path
             style="fill:#ff4b3d"
             d="m 508.258,395 c -0.106,-10e-4 -10.585,-0.091 -17.792,-0.746 -5.489,-0.499 -22.515,-1.471 -34.26,-1.471 -4.762,0 -8.114,0.162 -10.027,0.48 -4.567,0.762 -10.196,2.202 -13.326,6.621 -2.117,2.99 -2.754,6.956 -1.909,11.788 2.084,11.91 8.009,32.164 24.242,33.988 4.66,0.523 9.206,0.993 13.582,0.993 16.387,0 20.877,-7.608 22.828,-13.332 2.013,-5.902 3.219,-10.773 4.188,-14.687 1.233,-4.978 2.124,-8.574 3.579,-9.011 3.283,-0.985 9.09,-2.644 9.151,-2.66 C 508.949,406.846 509,406.45 509,406 l 0,-10 c 0,-0.549 -0.193,-0.996 -0.742,-1 z m -51.989,-1.217 c 0.134,0 0.271,10e-4 0.407,10e-4 -0.265,-10e-4 -0.521,0 -0.78,0.001 0.125,-0.001 0.245,-0.002 0.373,-0.002 z m 12.502,51.871 c -0.039,0 -0.079,-0.003 -0.118,-0.003 0.072,0 0.146,10e-4 0.217,10e-4 -0.034,0 -0.066,0.002 -0.099,0.002 z m 20.73,-36.207 c -0.289,5.398 -2.382,15.829 -4.412,20.307 -3.115,6.87 -7.868,9.673 -16.405,9.673 -3.27,0 -6.975,-0.4 -10.244,-0.754 -4.436,-0.479 -15.17,-3.977 -19.032,-26.041 -0.613,-3.503 -0.178,-6.333 1.292,-8.409 2.236,-3.157 6.535,-4.23 10.031,-4.813 1.351,-0.226 3.69,-0.345 6.766,-0.345 9.071,0 23.89,1.094 28.401,2.375 0.461,0.226 3.918,2.133 3.603,8.007 z"
             id="path4210" />
          <path
             style="fill:#0a1938"
             d="m 505,402 c 0,1.104 -0.896,2 -2,2 l -4,0 c -1.104,0 -2,-0.896 -2,-2 l 0,0 c 0,-1.104 0.896,-2 2,-2 l 4,0 c 1.104,0 2,0.896 2,2 l 0,0 z"
             id="path4212" />
        </g>
        <g
           id="g4214">
          <path
             style="fill:#ff4b3d"
             d="m 344,396 0,10 c 0,0.45 -0.157,0.846 0.277,0.965 0.061,0.017 5.764,1.675 9.047,2.66 1.455,0.437 2.293,4.033 3.526,9.011 0.969,3.913 2.149,8.784 4.162,14.687 1.951,5.724 6.428,13.332 22.815,13.332 4.376,0 8.916,-0.47 13.575,-0.993 16.232,-1.824 22.154,-22.078 24.239,-33.988 0.846,-4.832 0.207,-8.798 -1.911,-11.788 -3.129,-4.419 -8.759,-5.859 -13.326,-6.621 -1.913,-0.318 -5.266,-0.48 -10.027,-0.48 -11.745,0 -28.771,0.972 -34.26,1.471 -7.207,0.655 -17.477,0.745 -17.583,0.746 -0.55,0.002 -0.534,0.449 -0.534,0.998 z m 52.688,-2.215 c -0.259,-0.001 -0.516,-0.002 -0.78,-0.001 0.135,0 0.273,-10e-4 0.407,-10e-4 0.127,0 0.247,10e-4 0.373,0.002 z m -12.975,51.867 c 0.072,0 0.145,-10e-4 0.217,-10e-4 -0.039,0 -0.079,0.003 -0.118,0.003 -0.033,0 -0.065,-0.002 -0.099,-0.002 z m -17.028,-44.213 c 4.511,-1.281 19.33,-2.375 28.401,-2.375 3.075,0 5.415,0.119 6.766,0.345 3.496,0.583 7.795,1.656 10.031,4.813 1.47,2.076 1.905,4.906 1.292,8.409 -3.862,22.064 -14.596,25.562 -19.032,26.041 -3.269,0.354 -6.974,0.754 -10.244,0.754 -8.537,0 -13.29,-2.803 -16.405,-9.673 -2.03,-4.478 -4.123,-14.908 -4.412,-20.307 -0.315,-5.873 3.142,-7.78 3.603,-8.007 z"
             id="path4216" />
          <path
             style="fill:#0a1938"
             d="m 356,402 c 0,-1.104 -0.896,-2 -2,-2 l -4,0 c -1.104,0 -2,0.896 -2,2 l 0,0 c 0,1.104 0.896,2 2,2 l 4,0 c 1.104,0 2,-0.896 2,-2 l 0,0 z"
             id="path4218" />
        </g>
        <path
           style="opacity:0.4;fill:#fbf0b0"
           d="m 366.685,401.439 c -0.46,0.227 -3.917,2.134 -3.603,8.008 0.289,5.398 2.382,15.829 4.412,20.307 0.057,0.125 0.119,0.24 0.177,0.363 l 15.108,-30.605 c -6.77,0.436 -13.346,1.147 -16.094,1.927 z"
           id="path4220" />
        <path
           style="opacity:0.4;fill:#fbf0b0"
           d="m 450.732,399.409 c -3.496,0.583 -7.795,1.656 -10.031,4.813 -1.47,2.076 -1.905,4.906 -1.292,8.409 0.752,4.299 1.768,7.885 2.945,10.89 l 12.842,-24.431 c -1.95,0.047 -3.475,0.154 -4.464,0.319 z"
           id="path4222" />
      </g>
      <g
         transform="translate(148.49242,-19.192898)"
         id="XMLID_1_">
        <path
           style="fill:#0a1938"
           id="XMLID_2_"
           d="m 426.103,438 c 0,0 2.064,-0.198 2.565,-1.222 1.316,-2.709 -0.486,-6.595 2.928,-6.067 3.812,0.586 0.332,4.857 3.519,4.363 3.296,-0.514 4.057,-1.728 4.057,-4.804 0,-3.078 -2.739,-7.271 -11.384,-7.271 l -3.488,0 c -8.646,0 -11.384,4.177 -11.384,7.254 0,3.077 0.762,4.637 4.059,5.148 3.186,0.496 -0.294,-3.99 3.516,-4.574 3.416,-0.525 1.611,3.329 2.931,6.04 0.498,1.025 2.563,1.132 2.563,1.132 l 0.118,0 z" />
      </g>
      <path
         style="fill:none"
         d="m 555.80742,337.5691 c 0.427,0.841 0.747,1.358 0.747,1.358 0,0 -0.243,-0.522 -0.747,-1.358 z"
         id="path4226" />
      <path
         style="fill:none"
         d="m 589.10842,337.3881 c 0.926,1.087 1.613,1.768 1.613,1.768 0,0 -0.572,-0.686 -1.613,-1.768 z"
         id="path4228" />
      <path
         style="fill:none"
         d="m 550.55742,335.6961 c 0.462,0.912 0.81,1.473 0.81,1.473 0,0 -0.264,-0.567 -0.81,-1.473 z"
         id="path4230" />
      <path
         style="fill:none"
         d="m 586.65942,335.5001 c 1.003,1.178 1.749,1.917 1.749,1.917 0,0 -0.621,-0.744 -1.749,-1.917 z"
         id="path4232" />
      <path
         style="fill:#0a1938"
         d="m 610.32042,327.5621 c -3.995,-4.631 -9.741,-8.294 -17.929,-8.294 -17.78,0 -9.711,11.567 -5.732,16.232 -4.262,-4.426 -15.805,-14.988 -28.963,-14.988 -13.595,0 -9.205,11.112 -7.139,15.184 -2.243,-3.718 -9.29,-13.196 -22.864,-13.196 -12.561,0 -7.922,13.208 -4.724,19.972 0.214,0.512 0.572,1.285 1.123,2.25 0.542,1.027 0.907,1.645 0.908,1.646 0.072,0.049 0.146,0.093 0.217,0.142 2.29,3.355 6.452,7.904 13.67,11.611 13.975,5.316 33.586,-3.197 45.479,-5.769 9.512,-2.057 19.614,2.172 24.655,4.786 8.211,-15.049 4.974,-24.529 1.299,-29.576 z"
         id="path4234" />
      <g
         transform="translate(148.49242,-19.192898)"
         id="g4260">
        <g
           id="g4262">
          <path
             style="fill:#006874"
             d="m 389,576.25 c 0,1.519 -1.231,2.75 -2.75,2.75 l -0.5,0 c -1.519,0 -2.75,-1.231 -2.75,-2.75 l 0,-14.5 c 0,-1.519 1.231,-2.75 2.75,-2.75 l 0.5,0 c 1.519,0 2.75,1.231 2.75,2.75 l 0,14.5 z"
             id="path4264" />
          <circle
             style="fill:#00424c"
             cx="386"
             cy="526"
             r="9.3339996"
             id="circle4266" />
          <path
             style="fill:#fbf0b0"
             d="m 386,520 c -3.314,0 -6,3 -6,6 l 0,40.475 c 0,2.134 1.396,3.525 3.53,3.525 l 4.94,0 c 2.134,0 3.53,-1.392 3.53,-3.525 L 392,526 c 0,-3 -2.686,-6 -6,-6 z"
             id="path4268" />
        </g>
        <g
           id="g4270">
          <path
             style="fill:#006874"
             d="m 468,576.25 c 0,1.519 -1.231,2.75 -2.75,2.75 l -0.5,0 c -1.519,0 -2.75,-1.231 -2.75,-2.75 l 0,-14.5 c 0,-1.519 1.231,-2.75 2.75,-2.75 l 0.5,0 c 1.519,0 2.75,1.231 2.75,2.75 l 0,14.5 z"
             id="path4272" />
          <circle
             style="fill:#00424c"
             cx="465"
             cy="526"
             r="9.3339996"
             id="circle4274" />
          <path
             style="fill:#fbf0b0"
             d="m 465,520 c -3.314,0 -6,3 -6,6 l 0,40.475 c 0,2.134 1.396,3.525 3.53,3.525 l 4.94,0 c 2.134,0 3.53,-1.392 3.53,-3.525 L 471,526 c 0,-3 -2.686,-6 -6,-6 z"
             id="path4276" />
        </g>
      </g>
    </g>
  </g>
</svg>
