<?xml version="1.0" encoding="UTF-8" standalone="no"?>
<!-- Generator: Adobe Illustrator 16.0.0, SVG Export Plug-In . SVG Version: 6.00 Build 0)  -->

<svg
   xmlns:dc="http://purl.org/dc/elements/1.1/"
   xmlns:cc="http://creativecommons.org/ns#"
   xmlns:rdf="http://www.w3.org/1999/02/22-rdf-syntax-ns#"
   xmlns:svg="http://www.w3.org/2000/svg"
   xmlns="http://www.w3.org/2000/svg"
   xmlns:sodipodi="http://sodipodi.sourceforge.net/DTD/sodipodi-0.dtd"
   xmlns:inkscape="http://www.inkscape.org/namespaces/inkscape"
   version="1.1"
   id="Calque_1"
   x="0px"
   y="0px"
   width="1063px"
   height="1067px"
   viewBox="0 0 1063 1067"
   enable-background="new 0 0 1063 1067"
   xml:space="preserve"
   sodipodi:docname="Speaker.svg"
   inkscape:version="0.92.1 r15371"><metadata
   id="metadata45"><rdf:RDF><cc:Work
       rdf:about=""><dc:format>image/svg+xml</dc:format><dc:type
         rdf:resource="http://purl.org/dc/dcmitype/StillImage" /></cc:Work></rdf:RDF></metadata><defs
   id="defs43" /><sodipodi:namedview
   pagecolor="#ffffff"
   bordercolor="#666666"
   borderopacity="1"
   objecttolerance="10"
   gridtolerance="10"
   guidetolerance="10"
   inkscape:pageopacity="0"
   inkscape:pageshadow="2"
   inkscape:window-width="640"
   inkscape:window-height="480"
   id="namedview41"
   showgrid="false"
   inkscape:zoom="0.22118088"
   inkscape:cx="531.5"
   inkscape:cy="533.5"
   inkscape:window-x="0"
   inkscape:window-y="0"
   inkscape:window-maximized="0"
   inkscape:current-layer="Calque_1" />

<g
   id="g38">
	<path
   fill="#E7724A"
   d="M812,975.773c0,20.008-16.219,36.227-36.226,36.227H286.226C266.219,1012,250,995.781,250,975.773V91.227   C250,71.219,266.219,55,286.226,55h489.549C795.781,55,812,71.219,812,91.227V975.773z"
   id="path4" />
	<g
   id="g14">
		<circle
   fill="#FFD102"
   cx="288.623"
   cy="91.412"
   r="19.558"
   id="circle6" />
		<circle
   fill="#FFD102"
   cx="774.046"
   cy="91.412"
   r="19.558"
   id="circle8" />
		<circle
   fill="#FFD102"
   cx="288.623"
   cy="972.42"
   r="19.558"
   id="circle10" />
		<circle
   fill="#FFD102"
   cx="774.046"
   cy="972.42"
   r="19.558"
   id="circle12" />
	</g>
	<g
   id="g36">
		<g
   id="g24">
			<circle
   fill="#45314E"
   cx="531.335"
   cy="318.723"
   r="168.083"
   id="circle16" />
			<path
   fill="#FD945F"
   d="M531.335,150.639c92.83,0,168.083,75.254,168.083,168.084s-75.253,168.084-168.083,168.084     s-168.083-75.254-168.083-168.084S438.505,150.639,531.335,150.639 M531.335,125.281c-26.104,0-51.439,5.118-75.304,15.212     c-23.038,9.745-43.722,23.688-61.479,41.446c-17.758,17.756-31.702,38.441-41.446,61.479     c-10.094,23.865-15.212,49.202-15.212,75.305s5.118,51.439,15.212,75.303c9.744,23.039,23.688,43.723,41.446,61.48     c17.757,17.758,38.441,31.701,61.479,41.446c23.865,10.094,49.201,15.212,75.304,15.212s51.438-5.118,75.304-15.212     c23.037-9.745,43.723-23.688,61.48-41.446c17.757-17.758,31.701-38.441,41.445-61.48c10.094-23.863,15.212-49.2,15.212-75.303     s-5.118-51.439-15.212-75.305c-9.744-23.037-23.688-43.723-41.445-61.479c-17.758-17.758-38.443-31.701-61.48-41.446     C582.773,130.399,557.438,125.281,531.335,125.281L531.335,125.281z"
   id="path18" />
			<circle
   fill="#84558B"
   cx="531.335"
   cy="318.723"
   r="57.255"
   id="circle20" />
			<path
   fill="#603E65"
   d="M531.335,456.022c-7.002,0-12.679-5.677-12.679-12.679s5.677-12.68,12.679-12.68     c29.901,0,58.012-11.643,79.155-32.787c21.143-21.143,32.787-49.254,32.787-79.154c0-29.901-11.645-58.012-32.787-79.155     c-21.144-21.143-49.254-32.786-79.155-32.786c-7.002,0-12.679-5.678-12.679-12.68s5.677-12.679,12.679-12.679     c18.529,0,36.512,3.632,53.447,10.794c16.351,6.916,31.033,16.814,43.639,29.42c12.604,12.605,22.503,27.288,29.419,43.639     c7.163,16.936,10.795,34.917,10.795,53.447c0,18.529-3.632,36.512-10.795,53.447c-6.916,16.352-16.814,31.033-29.419,43.639     c-12.605,12.605-27.288,22.504-43.639,29.42C567.847,452.391,549.864,456.022,531.335,456.022z"
   id="path22" />
		</g>
		<g
   id="g34">
			<circle
   fill="#45314E"
   cx="531.335"
   cy="747.996"
   r="168.083"
   id="circle26" />
			<path
   fill="#FD945F"
   d="M531.335,579.913c92.83,0,168.083,75.254,168.083,168.083c0,92.83-75.253,168.083-168.083,168.083     s-168.083-75.253-168.083-168.083C363.251,655.167,438.505,579.913,531.335,579.913 M531.335,554.555     c-26.104,0-51.439,5.119-75.304,15.213c-23.038,9.743-43.722,23.688-61.479,41.445c-17.758,17.757-31.702,38.441-41.446,61.479     c-10.094,23.865-15.212,49.201-15.212,75.304c0,26.104,5.118,51.439,15.212,75.304c9.744,23.038,23.688,43.723,41.446,61.479     c17.757,17.758,38.441,31.702,61.479,41.445c23.865,10.094,49.201,15.213,75.304,15.213s51.438-5.119,75.304-15.213     c23.037-9.743,43.723-23.688,61.48-41.445c17.757-17.757,31.701-38.441,41.445-61.479c10.094-23.864,15.212-49.2,15.212-75.304     c0-26.103-5.118-51.438-15.212-75.304c-9.744-23.038-23.688-43.723-41.445-61.479c-17.758-17.757-38.443-31.702-61.48-41.445     C582.773,559.674,557.438,554.555,531.335,554.555L531.335,554.555z"
   id="path28" />
			<circle
   fill="#84558B"
   cx="531.335"
   cy="747.996"
   r="57.255"
   id="circle30" />
			<path
   fill="#603E65"
   d="M531.335,885.297c-7.002,0-12.679-5.678-12.679-12.68s5.677-12.679,12.679-12.679     c29.901,0,58.012-11.644,79.155-32.787c21.143-21.144,32.787-49.255,32.787-79.155s-11.645-58.012-32.787-79.155     c-21.144-21.143-49.254-32.786-79.155-32.786c-7.002,0-12.679-5.677-12.679-12.68s5.677-12.679,12.679-12.679     c18.529,0,36.512,3.632,53.447,10.795c16.351,6.916,31.033,16.813,43.639,29.419c12.604,12.605,22.503,27.288,29.419,43.639     c7.163,16.935,10.795,34.918,10.795,53.447s-3.632,36.512-10.795,53.447c-6.916,16.352-16.814,31.033-29.419,43.639     c-12.605,12.605-27.288,22.503-43.639,29.42C567.847,881.664,549.864,885.297,531.335,885.297z"
   id="path32" />
		</g>
	</g>
</g>
</svg>