<?xml version="1.0" encoding="utf-8"?>
<!-- Generator: Adobe Illustrator 16.0.0, SVG Export Plug-In . SVG Version: 6.00 Build 0)  -->
<!DOCTYPE svg PUBLIC "-//W3C//DTD SVG 1.1//EN" "http://www.w3.org/Graphics/SVG/1.1/DTD/svg11.dtd">
<svg version="1.1" id="Calque_1" xmlns="http://www.w3.org/2000/svg" xmlns:xlink="http://www.w3.org/1999/xlink" x="0px" y="0px"
	 width="1063px" height="1067px" viewBox="0 0 1063 1067" enable-background="new 0 0 1063 1067" xml:space="preserve">
<rect fill="#603E65" width="1063" height="1067"/>
<g>
	<path fill="#01CD6B" d="M379.855,322.963c0,0,60.259-122.822,242.988-76.496c213,54,238.714,354.525,288.714,375.525
		s75.769,23.955,75.769,39.955s-193.984,121.498-323.984,31.498"/>
	<path fill="#03AF5C" d="M914.549,659.992c0.352,0,0.709-0.025,1.068-0.082c3.82-0.584,6.444-4.156,5.859-7.977
		c-1.452-9.49-3.717-19.592-5.908-28.287c-1.322-0.539-2.654-1.084-4.011-1.654c-4.769-2.004-9.755-7.133-15.06-14.807
		c2.02,6.711,8.31,28.369,11.141,46.865C908.168,657.514,911.15,659.992,914.549,659.992z"/>
	<g>
		<path fill="#FFFFFF" d="M664.559,720.992c133-7,176-113,176-113c-61-6-106-69-106-69c42,14,72-35,72-35c-42-2-188-125-188-125
			l-86,120C532.559,498.992,626.559,715.992,664.559,720.992"/>
		<path fill="#FFFFFF" d="M252.558,720.992c-133-7-176-113-176-113c61-6,106-69,106-69c-42,14-72-35-72-35c42-2,188-125,188-125
			l86,120C384.558,498.992,290.558,715.992,252.558,720.992"/>
		<circle fill="#FEAB06" cx="457.867" cy="584.992" r="246"/>
		<g>
			<g>
				<circle fill="#FFFFFF" cx="335.483" cy="562.992" r="79.501"/>
				<circle fill="#45314E" cx="335.483" cy="562.992" r="61.358"/>
			</g>
			<g>
				
					<ellipse transform="matrix(0.9556 0.2946 -0.2946 0.9556 202.2731 -60.4767)" fill="#FEAB06" cx="301.858" cy="641.104" rx="47.769" ry="28.14"/>
			</g>
			<g>
				<circle fill="#FFFFFF" cx="580.956" cy="562.992" r="79.501"/>
				<circle fill="#45314E" cx="580.955" cy="562.992" r="61.358"/>
			</g>
			<g>
				
					<ellipse transform="matrix(-0.9556 0.2946 -0.2946 -0.9556 1390.7607 1072.6914)" fill="#FEAB06" cx="614.58" cy="641.104" rx="47.769" ry="28.14"/>
			</g>
		</g>
		<polyline fill="#FFFFFF" points="512.316,718.992 521.868,760.992 484.614,749.992 457.868,796.992 431.122,749.992 
			393.868,760.992 403.42,718.992 		"/>
		<g>
			<ellipse fill="#FD945F" cx="458.367" cy="687.492" rx="85" ry="43.5"/>
			<path fill="#E7724A" d="M545,694H373c-3.866,0-7-3.134-7-7s3.134-7,7-7h172c3.866,0,7,3.134,7,7S548.866,694,545,694z"/>
			<path fill="#E7724A" d="M363.152,721.344c-1.717,0-3.438-0.628-4.788-1.896c-2.819-2.645-2.96-7.075-0.315-9.895
				c2.963-3.157,6.422-10.961,6.422-22.562s-3.459-19.404-6.422-22.562c-2.645-2.819-2.504-7.25,0.315-9.895
				c2.819-2.646,7.25-2.504,9.895,0.314c6.395,6.816,10.212,18.831,10.212,32.142s-3.818,25.325-10.212,32.142
				C366.881,720.602,365.019,721.344,363.152,721.344z"/>
			<path fill="#E7724A" d="M552.583,721.344c-1.866,0-3.729-0.742-5.106-2.21c-6.395-6.815-10.211-18.831-10.211-32.142
				s3.816-25.326,10.211-32.142c2.646-2.817,7.074-2.96,9.895-0.314c2.819,2.645,2.961,7.075,0.315,9.895
				c-2.962,3.156-6.421,10.96-6.421,22.562s3.459,19.405,6.421,22.562c2.646,2.819,2.504,7.25-0.315,9.895
				C556.021,720.716,554.3,721.344,552.583,721.344z"/>
		</g>
		<g>
			<circle fill="#45314E" cx="437.868" cy="600.992" r="8.75"/>
			<circle fill="#45314E" cx="477.868" cy="600.992" r="8.75"/>
		</g>
		<path fill="#FFFFFF" d="M252.558,720.992c0,0-24-80-5-120c0,0-55-2-57,10C190.558,610.992,208.558,695.992,252.558,720.992z"/>
		<g>
			<path fill="#FFFFFF" d="M458.558,338.992c0,0-59-41-63-43s-15-3-23,4s-88,83-111,88
				C261.558,387.992,344.558,417.992,458.558,338.992z"/>
			<path fill="#FFE6CC" d="M304.088,393.576c13.593-0.021,30.075-1.492,48.906-5.857c9.229-6.6,17.91-14.133,25.812-20.992
				c9.793-8.5,19.043-16.529,25.51-19.301c7.423-3.182,18.694-4.004,32.594-2.381c3.765,0.439,7.247,1.008,10.22,1.566
				c3.774-2.422,7.582-4.953,11.429-7.619c0,0-3.511-2.439-8.872-6.154c-13.056-2.445-35.228-4.99-50.886,1.721
				c-8.478,3.633-18.068,11.957-29.172,21.596c-17.93,15.564-44.049,36.598-64.737,37.172L304.088,393.576z"/>
		</g>
		<path fill="#FFE6CC" d="M152.763,611.777c-3.249,2.096-4.183,6.428-2.087,9.676c1.339,2.076,3.59,3.207,5.888,3.207
			c1.3,0,2.615-0.363,3.789-1.119c13.151-8.484,37.276-18.02,51.988-23.463c-0.295-4.879-0.463-9.795-0.469-14.746
			C197.542,590.506,168.603,601.557,152.763,611.777z"/>
		<path fill="#FFFFFF" d="M664.559,720.992c0,0,24-80,5-120c0,0,55-2,57,10C726.559,610.992,708.559,695.992,664.559,720.992z"/>
		<path fill="#FFE6CC" d="M764.353,611.777c-16.367-10.561-46.718-22.008-60.487-26.941c0,0.053,0.002,0.104,0.002,0.156
			c0,4.898-0.16,9.76-0.441,14.588c14.545,5.346,39.777,15.211,53.338,23.961c1.173,0.756,2.488,1.119,3.788,1.119
			c2.298,0,4.55-1.131,5.888-3.207C768.536,618.205,767.602,613.873,764.353,611.777z"/>
		<g>
			<path fill="#FFFFFF" d="M458.558,338.992c0,0,59-41,63-43s15-3,23,4s88,83,111,88
				C655.559,387.992,572.559,417.992,458.558,338.992z"/>
			<path fill="#FFE6CC" d="M613.027,393.576c-13.592-0.021-30.074-1.492-48.905-5.857c-9.229-6.6-17.909-14.133-25.812-20.992
				c-9.793-8.5-19.043-16.529-25.51-19.301c-7.423-3.182-18.694-4.004-32.594-2.381c-3.765,0.439-7.247,1.008-10.22,1.566
				c-3.774-2.422-7.582-4.953-11.429-7.619c0,0,3.511-2.439,8.871-6.154c13.057-2.445,35.229-4.99,50.886,1.721
				c8.478,3.633,18.067,11.957,29.173,21.596c17.93,15.564,44.049,36.598,64.736,37.172L613.027,393.576z"/>
		</g>
	</g>
</g>
</svg>
