<?xml version="1.0" encoding="UTF-8" standalone="no"?>
<!-- Created with Inkscape (http://www.inkscape.org/) -->

<svg
   xmlns:dc="http://purl.org/dc/elements/1.1/"
   xmlns:cc="http://creativecommons.org/ns#"
   xmlns:rdf="http://www.w3.org/1999/02/22-rdf-syntax-ns#"
   xmlns:svg="http://www.w3.org/2000/svg"
   xmlns="http://www.w3.org/2000/svg"
   xmlns:sodipodi="http://sodipodi.sourceforge.net/DTD/sodipodi-0.dtd"
   xmlns:inkscape="http://www.inkscape.org/namespaces/inkscape"
   width="87.3125mm"
   height="87.3125mm"
   viewBox="0 0 87.3125 87.3125"
   version="1.1"
   id="svg382"
   inkscape:version="0.92.1 r15371"
   sodipodi:docname="moon.svg">
  <defs
     id="defs376" />
  <sodipodi:namedview
     id="base"
     pagecolor="#ffffff"
     bordercolor="#666666"
     borderopacity="1.0"
     inkscape:pageopacity="0.0"
     inkscape:pageshadow="2"
     inkscape:zoom="0.35"
     inkscape:cx="250.71428"
     inkscape:cy="299.28572"
     inkscape:document-units="mm"
     inkscape:current-layer="layer1"
     showgrid="false"
     fit-margin-top="0"
     fit-margin-left="0"
     fit-margin-right="0"
     fit-margin-bottom="0"
     inkscape:window-width="1440"
     inkscape:window-height="877"
     inkscape:window-x="1912"
     inkscape:window-y="-8"
     inkscape:window-maximized="1" />
  <metadata
     id="metadata379">
    <rdf:RDF>
      <cc:Work
         rdf:about="">
        <dc:format>image/svg+xml</dc:format>
        <dc:type
           rdf:resource="http://purl.org/dc/dcmitype/StillImage" />
        <dc:title></dc:title>
      </cc:Work>
    </rdf:RDF>
  </metadata>
  <g
     inkscape:label="Calque 1"
     inkscape:groupmode="layer"
     id="layer1"
     transform="translate(-39.498512,-140.70685)">
    <g
       transform="matrix(0.26458333,0,0,0.26458333,20.064072,122.18813)"
       id="g291">
      <circle
         style="fill:#ffe6cc"
         cx="238.453"
         cy="234.992"
         r="165"
         id="circle235" />
      <g
         id="g247">
        <circle
           style="fill:#feae86"
           cx="306.54099"
           cy="126.802"
           r="26.457001"
           id="circle237" />
        <circle
           style="fill:#feae86"
           cx="336.54099"
           cy="317.802"
           r="26.457001"
           id="circle239" />
        <circle
           style="fill:#feae86"
           cx="203.245"
           cy="116.664"
           r="16.535999"
           id="circle241" />
        <circle
           style="fill:#feae86"
           cx="220.711"
           cy="373.43799"
           r="9.9219999"
           id="circle243" />
        <circle
           style="fill:#feae86"
           cx="116.757"
           cy="299.466"
           r="16.535999"
           id="circle245" />
      </g>
      <g
         id="g269">
        <g
           id="g257">
          <circle
             style="fill:#ffffff"
             cx="156.05"
             cy="220.23599"
             r="53.323002"
             id="circle249" />
          <circle
             style="fill:#45314e"
             cx="156.05"
             cy="220.23599"
             r="41.154999"
             id="circle251" />
          <path
             style="fill:#ffe6cc"
             inkscape:connector-curvature="0"
             d="m 102.035,186.254 117.732,37.556 c 0.065,-1.184 0.105,-2.374 0.105,-3.573 0,-10.061 -2.328,-19.577 -6.474,-28.041 -10.381,-21.192 -32.161,-35.783 -57.351,-35.783"
             id="path253" />
          <path
             style="fill:#feae86"
             inkscape:connector-curvature="0"
             d="m 219.768,228.31 c -0.459,0 -0.92,-0.07 -1.367,-0.213 L 100.669,190.541 c -2.368,-0.755 -3.675,-3.287 -2.92,-5.654 0.756,-2.367 3.289,-3.68 5.654,-2.92 l 111.917,35.7 c -0.344,-8.219 -2.345,-16.109 -5.961,-23.492 -1.094,-2.232 -0.17,-4.928 2.062,-6.021 2.229,-1.094 4.927,-0.171 6.021,2.062 4.601,9.392 6.933,19.492 6.933,30.021 0,1.204 -0.037,2.454 -0.112,3.821 -0.077,1.391 -0.793,2.667 -1.939,3.457 -0.762,0.524 -1.655,0.795 -2.556,0.795 z"
             id="path255" />
        </g>
        <g
           id="g267">
          <circle
             style="fill:#ffffff"
             cx="320.85599"
             cy="220.23599"
             r="53.323002"
             id="circle259" />
          <circle
             style="fill:#45314e"
             cx="320.85599"
             cy="220.23599"
             r="41.154999"
             id="circle261" />
          <path
             style="fill:#ffe6cc"
             inkscape:connector-curvature="0"
             d="M 374.871,186.254 257.139,223.81 c -0.065,-1.184 -0.105,-2.374 -0.105,-3.573 0,-10.061 2.328,-19.577 6.474,-28.041 10.381,-21.192 32.161,-35.783 57.351,-35.783"
             id="path263" />
          <path
             style="fill:#feae86"
             inkscape:connector-curvature="0"
             d="m 257.139,228.31 c 0.459,0 0.92,-0.07 1.367,-0.213 l 117.732,-37.556 c 2.368,-0.755 3.675,-3.287 2.92,-5.654 -0.756,-2.367 -3.289,-3.68 -5.654,-2.92 l -111.917,35.7 c 0.344,-8.219 2.345,-16.109 5.961,-23.492 1.094,-2.232 0.17,-4.928 -2.062,-6.021 -2.229,-1.094 -4.927,-0.171 -6.021,2.062 -4.601,9.392 -6.933,19.492 -6.933,30.021 0,1.204 0.037,2.454 0.112,3.821 0.077,1.391 0.793,2.667 1.939,3.457 0.762,0.524 1.654,0.795 2.556,0.795 z"
             id="path265" />
        </g>
      </g>
      <path
         style="fill:#ffffff"
         inkscape:connector-curvature="0"
         d="m 322,314 c 0,13.255 -10.745,24 -24,24 H 179 c -13.255,0 -24,-10.745 -24,-24 v -6 c 0,-13.255 10.745,-24 24,-24 h 119 c 13.255,0 24,10.745 24,24 z"
         id="path271" />
      <g
         id="g283">
        <rect
           style="fill:#ffe6cc"
           x="155"
           y="307"
           width="167"
           height="10"
           id="rect273" />
        <g
           id="g281">
          <rect
             style="fill:#ffe6cc"
             x="186"
             y="284"
             width="10"
             height="57"
             id="rect275" />
          <rect
             style="fill:#ffe6cc"
             x="233"
             y="284"
             width="10"
             height="57"
             id="rect277" />
          <rect
             style="fill:#ffe6cc"
             x="280"
             y="284"
             width="10"
             height="57"
             id="rect279" />
        </g>
      </g>
      <g
         id="g289">
        <polyline
           style="fill:#ffe6cc"
           points="269.755,280.5 238.453,304.167 207.151,280.5    "
           id="polyline285" />
        <path
           style="fill:#feae86"
           inkscape:connector-curvature="0"
           d="m 238.453,309.167 c -1.062,0 -2.123,-0.337 -3.016,-1.012 l -31.302,-23.667 c -2.202,-1.665 -2.638,-4.801 -0.973,-7.004 1.666,-2.202 4.802,-2.639 7.004,-0.973 l 28.286,21.387 28.286,-21.387 c 2.202,-1.668 5.338,-1.229 7.004,0.973 1.665,2.203 1.229,5.339 -0.973,7.004 l -31.302,23.667 c -0.891,0.675 -1.952,1.012 -3.014,1.012 z"
           id="path287" />
      </g>
    </g>
  </g>
</svg>
